<?xml version="1.0" encoding="UTF-8" standalone="no"?>
<!-- Created with Inkscape (http://www.inkscape.org/) -->

<svg
   xmlns:dc="http://purl.org/dc/elements/1.1/"
   xmlns:cc="http://creativecommons.org/ns#"
   xmlns:rdf="http://www.w3.org/1999/02/22-rdf-syntax-ns#"
   xmlns:svg="http://www.w3.org/2000/svg"
   xmlns="http://www.w3.org/2000/svg"
   xmlns:sodipodi="http://sodipodi.sourceforge.net/DTD/sodipodi-0.dtd"
   xmlns:inkscape="http://www.inkscape.org/namespaces/inkscape"
   width="65mm"
   height="65mm"
   viewBox="0 0 65 65"
   version="1.1"
   id="svg8"
   inkscape:version="0.92.2 5c3e80d, 2017-08-06"
   sodipodi:docname="kiptool_icon.svg"
   inkscape:export-filename="/Users/kaestner/git/imagingsuite/applications/kiptool/resources/kiptool_icon.png"
   inkscape:export-xdpi="400.14999"
   inkscape:export-ydpi="400.14999">
  <defs
     id="defs2">
    <inkscape:path-effect
       effect="skeletal"
       id="path-effect1592"
       is_visible="true"
       pattern="M 0,5 C 0,2.24 2.24,0 5,0 7.76,0 10,2.24 10,5 10,7.76 7.76,10 5,10 2.24,10 0,7.76 0,5 Z"
       copytype="single_stretched"
       prop_scale="0.16514626"
       scale_y_rel="false"
       spacing="0"
       normal_offset="0"
       tang_offset="0"
       prop_units="false"
       vertical_pattern="false"
       fuse_tolerance="0" />
    <inkscape:path-effect
       effect="skeletal"
       id="path-effect837"
       is_visible="true"
       pattern="m -2.8375796,18.557325 c 0,-2.76 2.23999998,-5 5,-5 2.76,0 5,2.24 5,5 0,2.76 -2.24,5 -5,5 -2.76000002,0 -5,-2.24 -5,-5 z"
       copytype="single_stretched"
       prop_scale="0.26458333"
       scale_y_rel="false"
       spacing="0"
       normal_offset="0"
       tang_offset="0"
       prop_units="false"
       vertical_pattern="false"
       fuse_tolerance="0" />
    <inkscape:path-effect
       effect="skeletal"
       id="path-effect833"
       is_visible="true"
       pattern="M 0,5 C 0,2.24 2.24,0 5,0 7.76,0 10,2.24 10,5 10,7.76 7.76,10 5,10 2.24,10 0,7.76 0,5 Z"
       copytype="single_stretched"
       prop_scale="0.20403548"
       scale_y_rel="false"
       spacing="0"
       normal_offset="0"
       tang_offset="0"
       prop_units="false"
       vertical_pattern="false"
       fuse_tolerance="0" />
    <inkscape:path-effect
       effect="skeletal"
       id="path-effect829"
       is_visible="true"
       pattern="M 0,5 C 0,2.24 2.24,0 5,0 7.76,0 10,2.24 10,5 10,7.76 7.76,10 5,10 2.24,10 0,7.76 0,5 Z"
       copytype="single_stretched"
       prop_scale="0.26458333"
       scale_y_rel="false"
       spacing="0"
       normal_offset="0"
       tang_offset="0"
       prop_units="false"
       vertical_pattern="false"
       fuse_tolerance="0" />
    <inkscape:path-effect
       effect="skeletal"
       id="path-effect825"
       is_visible="true"
       pattern="M 0,5 C 0,2.24 2.24,0 5,0 7.76,0 10,2.24 10,5 10,7.76 7.76,10 5,10 2.24,10 0,7.76 0,5 Z"
       copytype="single_stretched"
       prop_scale="-0.3565219"
       scale_y_rel="false"
       spacing="0"
       normal_offset="0"
       tang_offset="0"
       prop_units="false"
       vertical_pattern="false"
       fuse_tolerance="0" />
    <inkscape:path-effect
       effect="skeletal"
       id="path-effect821"
       is_visible="true"
       pattern="m 4.9653132,1.8471338 c 0,-2.76000004 2.24,-5 5,-5 2.7600008,0 4.9999998,2.23999996 4.9999998,5 0,2.76 -2.239999,5 -4.9999998,5 -2.76,0 -5,-2.24 -5,-5 z"
       copytype="single_stretched"
       prop_scale="0.2215022"
       scale_y_rel="false"
       spacing="0"
       normal_offset="0"
       tang_offset="0"
       prop_units="false"
       vertical_pattern="false"
       fuse_tolerance="0" />
    <inkscape:path-effect
       effect="skeletal"
       id="path-effect817"
       is_visible="true"
       pattern="M 0,5 C 0,2.24 2.24,0 5,0 7.76,0 10,2.24 10,5 10,7.76 7.76,10 5,10 2.24,10 0,7.76 0,5 Z"
       copytype="single_stretched"
       prop_scale="0.2144284"
       scale_y_rel="false"
       spacing="0"
       normal_offset="0"
       tang_offset="0"
       prop_units="false"
       vertical_pattern="false"
       fuse_tolerance="0" />
    <inkscape:path-effect
       effect="skeletal"
       id="path-effect817-0"
       is_visible="true"
       pattern="M -3.036306e-7,4.9999983 C -3.036306e-7,2.2399983 2.2399997,-1.6899674e-6 4.9999997,-1.6899674e-6 c 2.76,0 5,2.2399999899674 5,4.9999999899674 0,2.76 -2.24,5 -5,5 -2.76,0 -5.0000000036306,-2.24 -5.0000000036306,-5 z"
       copytype="single_stretched"
       prop_scale="0.2144284"
       scale_y_rel="false"
       spacing="0"
       normal_offset="0"
       tang_offset="0"
       prop_units="false"
       vertical_pattern="false"
       fuse_tolerance="0" />
    <inkscape:path-effect
       effect="skeletal"
       id="path-effect837-2"
       is_visible="true"
       pattern="m -2.8375799,18.557323 c 0,-2.76 2.23999998,-5 5,-5 2.76,0 5,2.24 5,5 0,2.76 -2.24,5 -5,5 -2.76000002,0 -5,-2.24 -5,-5 z"
       copytype="single_stretched"
       prop_scale="0.26458333"
       scale_y_rel="false"
       spacing="0"
       normal_offset="0"
       tang_offset="0"
       prop_units="false"
       vertical_pattern="false"
       fuse_tolerance="0" />
    <inkscape:path-effect
       effect="skeletal"
       id="path-effect1592-4"
       is_visible="true"
       pattern="M -3.036306e-7,4.9999983 C -3.036306e-7,2.2399983 2.2399997,-1.6899674e-6 4.9999997,-1.6899674e-6 c 2.76,0 5,2.2399999899674 5,4.9999999899674 0,2.76 -2.24,5 -5,5 -2.76,0 -5.0000000036306,-2.24 -5.0000000036306,-5 z"
       copytype="single_stretched"
       prop_scale="0.16514626"
       scale_y_rel="false"
       spacing="0"
       normal_offset="0"
       tang_offset="0"
       prop_units="false"
       vertical_pattern="false"
       fuse_tolerance="0" />
    <filter
       inkscape:collect="always"
       style="color-interpolation-filters:sRGB"
       id="filter1700"
       x="-0.026088599"
       width="1.0521772"
       y="-0.022221031"
       height="1.0444421">
      <feGaussianBlur
         inkscape:collect="always"
         stdDeviation="2.0289364"
         id="feGaussianBlur1702" />
    </filter>
  </defs>
  <sodipodi:namedview
     id="base"
     pagecolor="#ffffff"
     bordercolor="#666666"
     borderopacity="1.0"
     inkscape:pageopacity="0.0"
     inkscape:pageshadow="2"
     inkscape:zoom="3.8344231"
     inkscape:cx="122.83465"
     inkscape:cy="122.83465"
     inkscape:document-units="mm"
     inkscape:current-layer="layer1"
     showgrid="false"
     fit-margin-top="2"
     fit-margin-left="2"
     fit-margin-right="2"
     fit-margin-bottom="2"
     inkscape:window-width="1870"
     inkscape:window-height="1155"
     inkscape:window-x="111"
     inkscape:window-y="13"
     inkscape:window-maximized="0" />
  <metadata
     id="metadata5">
    <rdf:RDF>
      <cc:Work
         rdf:about="">
        <dc:format>image/svg+xml</dc:format>
        <dc:type
           rdf:resource="http://purl.org/dc/dcmitype/StillImage" />
        <dc:title></dc:title>
      </cc:Work>
    </rdf:RDF>
  </metadata>
  <g
     inkscape:label="Shading"
     inkscape:groupmode="layer"
     id="layer1"
     transform="translate(-62.002096,-75.030246)">
    <path
       style="fill:#ffffff;fill-opacity:1;fill-rule:evenodd;stroke:#000000;stroke-width:0.99999994px;stroke-linecap:butt;stroke-linejoin:miter;stroke-opacity:1;filter:url(#filter1700)"
       d="m 338.39844,298.18359 c -11.34247,-0.35019 -20.90856,22.0009 -19.05469,35.34961 -16.36944,-49.51543 -58.98838,11.11762 -22.94881,39.94844 -18.36011,33.49732 -35.82046,85.83441 -49.59611,143.34883 l 32.68164,-19.71328 36.73242,15.88672 29.14453,-19.39258 35.29297,11.8164 21.75,-15.57421 32.26367,10.31836 c -15.29139,-62.52912 -34.99068,-107.50454 -51.03868,-133.21874 13.10651,-23.10204 7.79955,-79.72695 -25.43554,-42.61017 -5.778,-20.08063 -13.42855,-25.96293 -19.7914,-26.15938 z"
       id="path1647"
       transform="matrix(0.26458333,0,0,0.26458333,3.7041667,0)"
       inkscape:connector-curvature="0"
       sodipodi:nodetypes="scccccccccccs" />
  </g>
  <g
     inkscape:groupmode="layer"
     id="layer2"
     inkscape:label="Main chicken"
     style="display:inline"
     transform="translate(-62.002096,-75.030246)">
    <path
       style="fill:#fe0000;fill-opacity:1;fill-rule:evenodd;stroke:none;stroke-width:0.22150135px;stroke-linecap:butt;stroke-linejoin:miter;stroke-opacity:1"
       d="m 88.718945,116.09793 c 0.67216,-0.45375 3.491796,3.87802 6.545977,9.21503 0.0013,0.002 0.08443,0.14758 0.08574,0.14987 1.992631,-5.72262 3.940064,-10.40663 4.67743,-10.08513 0.7233,0.31536 -1.435426,5.1257 -4.580168,11.14731 0.0014,0.002 -0.116088,-0.14883 -0.114733,-0.1471 -4.222728,-5.41582 -7.273937,-9.83465 -6.614244,-10.27998 z"
       id="path819"
       inkscape:connector-curvature="0"
       inkscape:path-effect="#path-effect821"
       inkscape:original-d="m 88.718945,116.09793 6.680346,9.89599 4.628799,-10.61622"
       sodipodi:nodetypes="ccc" />
    <g
       id="g1588"
       transform="matrix(0.59860873,0.14174906,-0.12843958,0.66063924,56.125605,26.701515)">
      <g
         transform="matrix(0.7061522,-0.14564564,0.1469982,0.72307434,-26.690553,-21.011697)"
         id="g860">
        <ellipse
           style="opacity:1;fill:#000000;fill-opacity:1;stroke:#505050;stroke-width:0.30360496;stroke-linejoin:round;stroke-miterlimit:4;stroke-dasharray:none;stroke-dashoffset:0;stroke-opacity:1"
           id="path841"
           cx="114.6061"
           cy="204.11397"
           rx="4.480762"
           ry="8.2957106" />
        <ellipse
           style="opacity:1;fill:#000000;fill-opacity:1;stroke:#505050;stroke-width:0.30360496;stroke-linejoin:round;stroke-miterlimit:4;stroke-dasharray:none;stroke-dashoffset:0;stroke-opacity:1"
           id="path841-3"
           cx="125.19259"
           cy="203.44635"
           rx="4.480762"
           ry="8.2957106" />
      </g>
      <ellipse
         transform="rotate(4.5635495)"
         ry="1.4306058"
         rx="1.3352319"
         cy="105.6014"
         cx="94.307152"
         id="path915"
         style="opacity:1;fill:#ffffff;fill-opacity:1;stroke:#505050;stroke-width:0.30000001;stroke-linejoin:round;stroke-miterlimit:4;stroke-dasharray:none;stroke-dashoffset:0;stroke-opacity:1" />
      <ellipse
         transform="rotate(4.5635495)"
         ry="1.4306058"
         rx="1.3352321"
         cy="103.40781"
         cx="100.22033"
         id="path915-0"
         style="opacity:1;fill:#ffffff;fill-opacity:1;stroke:#505050;stroke-width:0.30000001;stroke-linejoin:round;stroke-miterlimit:4;stroke-dasharray:none;stroke-dashoffset:0;stroke-opacity:1" />
    </g>
    <g
       id="g1597"
       transform="translate(3.7041667)">
      <path
         sodipodi:nodetypes="cc"
         inkscape:original-d="M 65.620211,136.87338 C 80.870252,83.132185 94.639052,66.493007 115.01097,132.29485"
         inkscape:path-effect="#path-effect817"
         inkscape:connector-curvature="0"
         id="path815"
         d="m 65.620211,136.87338 c -0.196805,-0.0558 0.517508,-3.58668 2.126169,-9.51028 1.508521,-5.55486 4.190564,-14.62211 8.249872,-23.55288 1.483227,-3.27166 3.280742,-6.825716 5.745415,-10.006159 1.527452,-2.018615 3.54686,-4.077073 6.275002,-5.051845 0.01225,-0.0044 0.02452,-0.0087 0.0368,-0.01307 1.119339,-0.37723 2.317638,-0.493953 3.487844,-0.326028 1.284401,0.196335 2.458603,0.694687 3.474809,1.340756 2.984483,1.907208 5.054713,4.763167 6.689293,7.386481 2.95995,4.687151 5.11327,9.727021 6.76387,13.924511 0,0 0,1e-5 0,1e-5 4.94985,12.57085 6.68474,21.18569 6.54169,21.22997 -0.34153,0.10574 -2.89638,-8.29143 -8.14978,-20.56966 0,0 0,0 0,0 -1.75636,-4.10012 -3.97799,-9.02489 -6.879008,-13.480075 -1.65276,-2.504431 -3.546739,-5.135457 -6.094441,-6.685677 -0.835916,-0.51141 -1.738372,-0.904558 -2.654098,-1.027736 -0.817708,-0.120764 -1.685162,-0.03154 -2.497334,0.2401 -0.0095,0.003 -0.0189,0.006 -0.02834,0.009 -2.09723,0.669736 -3.8026,2.48849 -5.29377,4.33091 -2.322606,2.94282 -4.082553,6.353095 -5.597794,9.543155 -4.06971,8.58982 -7.114088,17.74694 -8.889063,23.0653 -1.937561,5.80552 -3.063416,9.2224 -3.307129,9.15324 z"
         style="fill:#000000;fill-rule:evenodd;stroke:none;stroke-width:0.22792627px;stroke-linecap:butt;stroke-linejoin:miter;stroke-opacity:1" />
      <path
         sodipodi:nodetypes="cccc"
         inkscape:original-d="M 84.665166,101.54016 C 67.737991,93.972257 78.66021,76.868789 84.537541,88.708485 c 4.660405,-17.018394 9.126423,-3.395548 8.951035,-0.881648 8.851164,-8.512482 10.404314,-3.403015 7.514804,10.12401"
         inkscape:path-effect="#path-effect837"
         inkscape:connector-curvature="0"
         id="path835"
         d="m 84.665166,101.54016 c 0.309693,-0.69269 -4.945745,0.44523 -8.825685,-6.43572 10e-7,0 -1e-6,-2e-6 -1e-6,-2e-6 -1.109683,-1.981037 -1.793486,-4.795803 -0.861888,-7.644554 0.324558,-0.984579 0.891958,-1.97365 1.763398,-2.7834 0.745689,-0.693576 1.755404,-1.179023 2.912574,-1.252987 1.245782,-0.02442 2.398347,0.413953 3.289765,1.131383 0.853369,1.020275 1.330152,2.333388 1.549464,3.692485 0.199792,-1.976224 0.448621,-4.359927 1.442374,-6.438551 0.286986,-0.600286 0.633832,-1.171704 1.055207,-1.703018 0.520553,-0.605918 1.384027,-1.076994 2.504533,-1.133725 0,0 6e-6,0 6e-6,0 0.990794,0.08696 1.751132,0.500978 2.233121,1.021604 1.24872,1.252553 1.89433,2.771931 2.300816,4.103414 0.22959,0.68963 0.416165,1.391575 0.549253,2.104582 0,0 -10e-7,2e-6 -10e-7,2e-6 -0.257727,0.301632 -0.521914,0.715161 -0.901047,1.221966 1.322021,-1.854685 2.758521,-3.570648 4.732421,-4.553578 0.662361,-0.271211 1.489818,-0.388689 2.375794,-0.187018 0.82335,0.259262 1.41569,0.793886 1.75023,1.413123 1.00456,1.938317 0.788,4.023749 0.61208,5.415566 -0.53494,5.484671 -2.03035,8.463434 -2.1442,8.439115 -0.31913,-0.06817 0.38656,-3.311602 0.43483,-8.532201 -0.0234,-1.413341 0.0777,-3.244785 -0.67624,-4.266759 -0.15976,-0.211403 -0.35703,-0.397314 -0.51151,-0.389721 -0.22699,-0.08483 -0.592745,0.04649 -1.05356,0.198316 -2.043071,0.526827 -3.744892,1.785781 -5.896803,3.269553 -0.315125,-0.410642 -0.748108,-0.924142 -1.187265,-1.541831 0,0 -3e-6,-3e-6 -3e-6,-3e-6 -0.122908,-0.584135 -0.294145,-1.171526 -0.503003,-1.763627 -0.457042,-1.193011 -0.914486,-2.366941 -1.684898,-3.032147 -0.259997,-0.184 -0.445563,-0.350903 -0.491877,-0.288708 0,0 0,0 0,0 -0.04503,-0.08454 -0.256066,0.133228 -0.5696,0.365636 -0.469697,0.364307 -0.884689,0.788816 -1.260393,1.26346 -1.288557,1.627892 -2.117142,3.879197 -3.020769,5.93679 -0.994542,-1.084587 -2.002392,-2.031658 -3.202999,-2.624172 -0.542065,-0.408872 -1.129142,-0.698646 -1.637655,-0.660278 -0.470447,-0.01569 -0.992786,0.234913 -1.418844,0.578507 -0.530694,0.431318 -0.923318,1.083585 -1.201055,1.769399 -0.812453,1.988403 -0.375572,4.310309 0.39393,6.017589 0,1e-6 10e-7,1e-6 10e-7,2e-6 2.477722,5.535682 7.299617,6.953738 7.149499,7.289508 z"
         style="fill:#f40000;fill-opacity:1;fill-rule:evenodd;stroke:none;stroke-width:0.26458332px;stroke-linecap:butt;stroke-linejoin:miter;stroke-opacity:1" />
      <path
         sodipodi:nodetypes="ccccccc"
         inkscape:original-d="m 65.620211,136.87338 8.263694,-5.89703 9.711862,4.05685 7.683434,-5.16327 9.343059,3.19631 5.77794,-3.99538 8.51877,3.12379"
         inkscape:path-effect="#path-effect1592"
         inkscape:connector-curvature="0"
         id="path1590"
         d="m 65.620211,136.87338 c -0.155672,-0.21815 2.964654,-2.68339 8.201497,-6.44976 2.79391,1.10338 6.095618,2.4328 9.705353,3.91073 1.916905,-1.31187 3.936248,-2.68538 6.016983,-4.09092 0.0015,-0.001 1.637264,-1.104 1.638755,-1.105 3.318852,1.1432 6.473922,2.2465 9.347811,3.2664 2.12944,-1.43486 4.08512,-2.73924 5.80126,-3.8701 0,0 0,0 0,0 5.43941,2.0371 8.67325,3.42499 8.5871,3.65992 -0.0861,0.2347 -3.41993,-0.78522 -8.45044,-2.58766 0,0 0,0 0,0 -1.69979,1.23121 -3.63966,2.62056 -5.75462,4.12066 -2.866121,-0.94379 -6.017918,-1.9981 -9.338307,-3.12622 0.0015,-0.001 -1.650681,1.1055 -1.649188,1.1045 -2.094617,1.4003 -4.129515,2.75124 -6.061942,4.02612 -3.608125,-1.53713 -6.914259,-2.96794 -9.718371,-4.20297 -4.856134,3.43625 -8.170314,5.56232 -8.325891,5.3443 z"
         style="fill:#000000;fill-rule:evenodd;stroke:none;stroke-width:0.26458332px;stroke-linecap:butt;stroke-linejoin:miter;stroke-opacity:1" />
    </g>
  </g>
</svg>
