<?xml version="1.0" encoding="UTF-8" standalone="no"?>
<!-- Created with Inkscape (http://www.inkscape.org/) -->

<svg
   xmlns:dc="http://purl.org/dc/elements/1.1/"
   xmlns:cc="http://creativecommons.org/ns#"
   xmlns:rdf="http://www.w3.org/1999/02/22-rdf-syntax-ns#"
   xmlns:svg="http://www.w3.org/2000/svg"
   xmlns="http://www.w3.org/2000/svg"
   xmlns:sodipodi="http://sodipodi.sourceforge.net/DTD/sodipodi-0.dtd"
   xmlns:inkscape="http://www.inkscape.org/namespaces/inkscape"
   width="80mm"
   height="80mm"
   viewBox="0 0 79.999999 80"
   version="1.1"
   id="svg8"
   inkscape:version="0.92.2 5c3e80d, 2017-08-06"
   sodipodi:docname="kiptool_download.svg"
   inkscape:export-filename="/Users/kaestner/git/imagingsuite/applications/kiptool/resources/kiptool_download.png"
   inkscape:export-xdpi="400.14999"
   inkscape:export-ydpi="400.14999">
  <defs
     id="defs2">
    <inkscape:path-effect
       effect="skeletal"
       id="path-effect1592"
       is_visible="true"
       pattern="m 3.7041667,5 c 0,-2.76 2.24,-5 5,-5 2.7600003,0 5.0000003,2.24 5.0000003,5 0,2.76 -2.24,5 -5.0000003,5 -2.76,0 -5,-2.24 -5,-5 z"
       copytype="single_stretched"
       prop_scale="0.16514626"
       scale_y_rel="false"
       spacing="0"
       normal_offset="0"
       tang_offset="0"
       prop_units="false"
       vertical_pattern="false"
       fuse_tolerance="0" />
    <inkscape:path-effect
       effect="skeletal"
       id="path-effect837"
       is_visible="true"
       pattern="m 0.8665871,18.557325 c 0,-2.76 2.24,-5 5,-5 2.76,0 4.9999999,2.24 4.9999999,5 0,2.76 -2.2399999,5 -4.9999999,5 -2.76,0 -5,-2.24 -5,-5 z"
       copytype="single_stretched"
       prop_scale="0.26458333"
       scale_y_rel="false"
       spacing="0"
       normal_offset="0"
       tang_offset="0"
       prop_units="false"
       vertical_pattern="false"
       fuse_tolerance="0" />
    <inkscape:path-effect
       effect="skeletal"
       id="path-effect833"
       is_visible="true"
       pattern="M 0,5 C 0,2.24 2.24,0 5,0 7.76,0 10,2.24 10,5 10,7.76 7.76,10 5,10 2.24,10 0,7.76 0,5 Z"
       copytype="single_stretched"
       prop_scale="0.20403548"
       scale_y_rel="false"
       spacing="0"
       normal_offset="0"
       tang_offset="0"
       prop_units="false"
       vertical_pattern="false"
       fuse_tolerance="0" />
    <inkscape:path-effect
       effect="skeletal"
       id="path-effect829"
       is_visible="true"
       pattern="M 0,5 C 0,2.24 2.24,0 5,0 7.76,0 10,2.24 10,5 10,7.76 7.76,10 5,10 2.24,10 0,7.76 0,5 Z"
       copytype="single_stretched"
       prop_scale="0.26458333"
       scale_y_rel="false"
       spacing="0"
       normal_offset="0"
       tang_offset="0"
       prop_units="false"
       vertical_pattern="false"
       fuse_tolerance="0" />
    <inkscape:path-effect
       effect="skeletal"
       id="path-effect825"
       is_visible="true"
       pattern="M 0,5 C 0,2.24 2.24,0 5,0 7.76,0 10,2.24 10,5 10,7.76 7.76,10 5,10 2.24,10 0,7.76 0,5 Z"
       copytype="single_stretched"
       prop_scale="-0.3565219"
       scale_y_rel="false"
       spacing="0"
       normal_offset="0"
       tang_offset="0"
       prop_units="false"
       vertical_pattern="false"
       fuse_tolerance="0" />
    <inkscape:path-effect
       effect="skeletal"
       id="path-effect821"
       is_visible="true"
       pattern="m 4.9653132,1.8471338 c 0,-2.76000004 2.24,-5 5,-5 2.7600008,0 4.9999998,2.23999996 4.9999998,5 0,2.76 -2.239999,5 -4.9999998,5 -2.76,0 -5,-2.24 -5,-5 z"
       copytype="single_stretched"
       prop_scale="0.2215022"
       scale_y_rel="false"
       spacing="0"
       normal_offset="0"
       tang_offset="0"
       prop_units="false"
       vertical_pattern="false"
       fuse_tolerance="0" />
    <inkscape:path-effect
       effect="skeletal"
       id="path-effect817"
       is_visible="true"
       pattern="m 3.7041667,5 c 0,-2.76 2.24,-5 5,-5 2.7600003,0 5.0000003,2.24 5.0000003,5 0,2.76 -2.24,5 -5.0000003,5 -2.76,0 -5,-2.24 -5,-5 z"
       copytype="single_stretched"
       prop_scale="0.2144284"
       scale_y_rel="false"
       spacing="0"
       normal_offset="0"
       tang_offset="0"
       prop_units="false"
       vertical_pattern="false"
       fuse_tolerance="0" />
    <inkscape:path-effect
       effect="skeletal"
       id="path-effect817-0"
       is_visible="true"
       pattern="M -3.036306e-7,4.9999983 C -3.036306e-7,2.2399983 2.2399997,-1.6899674e-6 4.9999997,-1.6899674e-6 c 2.76,0 5,2.2399999899674 5,4.9999999899674 0,2.76 -2.24,5 -5,5 -2.76,0 -5.0000000036306,-2.24 -5.0000000036306,-5 z"
       copytype="single_stretched"
       prop_scale="0.2144284"
       scale_y_rel="false"
       spacing="0"
       normal_offset="0"
       tang_offset="0"
       prop_units="false"
       vertical_pattern="false"
       fuse_tolerance="0" />
    <inkscape:path-effect
       effect="skeletal"
       id="path-effect837-2"
       is_visible="true"
       pattern="m -2.8375799,18.557323 c 0,-2.76 2.23999998,-5 5,-5 2.76,0 5,2.24 5,5 0,2.76 -2.24,5 -5,5 -2.76000002,0 -5,-2.24 -5,-5 z"
       copytype="single_stretched"
       prop_scale="0.26458333"
       scale_y_rel="false"
       spacing="0"
       normal_offset="0"
       tang_offset="0"
       prop_units="false"
       vertical_pattern="false"
       fuse_tolerance="0" />
    <inkscape:path-effect
       effect="skeletal"
       id="path-effect1592-4"
       is_visible="true"
       pattern="M -3.036306e-7,4.9999983 C -3.036306e-7,2.2399983 2.2399997,-1.6899674e-6 4.9999997,-1.6899674e-6 c 2.76,0 5,2.2399999899674 5,4.9999999899674 0,2.76 -2.24,5 -5,5 -2.76,0 -5.0000000036306,-2.24 -5.0000000036306,-5 z"
       copytype="single_stretched"
       prop_scale="0.16514626"
       scale_y_rel="false"
       spacing="0"
       normal_offset="0"
       tang_offset="0"
       prop_units="false"
       vertical_pattern="false"
       fuse_tolerance="0" />
    <filter
       inkscape:collect="always"
       style="color-interpolation-filters:sRGB"
       id="filter1700"
       x="-0.026088599"
       width="1.0521772"
       y="-0.022221031"
       height="1.0444421">
      <feGaussianBlur
         inkscape:collect="always"
         stdDeviation="2.0289364"
         id="feGaussianBlur1702" />
    </filter>
    <inkscape:path-effect
       effect="skeletal"
       id="path-effect1592-3"
       is_visible="true"
       pattern="m -76.539234,16.327563 c 0,-2.76 2.24,-5 5,-5 2.760001,0 5.000001,2.24 5.000001,5 0,2.76 -2.24,5 -5.000001,5 -2.76,0 -5,-2.24 -5,-5 z"
       copytype="single_stretched"
       prop_scale="0.16514626"
       scale_y_rel="false"
       spacing="0"
       normal_offset="0"
       tang_offset="0"
       prop_units="false"
       vertical_pattern="false"
       fuse_tolerance="0" />
    <inkscape:path-effect
       effect="skeletal"
       id="path-effect817-8"
       is_visible="true"
       pattern="m -76.539234,16.327563 c 0,-2.76 2.24,-5 5,-5 2.760001,0 5.000001,2.24 5.000001,5 0,2.76 -2.24,5 -5.000001,5 -2.76,0 -5,-2.24 -5,-5 z"
       copytype="single_stretched"
       prop_scale="0.2144284"
       scale_y_rel="false"
       spacing="0"
       normal_offset="0"
       tang_offset="0"
       prop_units="false"
       vertical_pattern="false"
       fuse_tolerance="0" />
  </defs>
  <sodipodi:namedview
     id="base"
     pagecolor="#ffffff"
     bordercolor="#666666"
     borderopacity="1.0"
     inkscape:pageopacity="0.0"
     inkscape:pageshadow="2"
     inkscape:zoom="3.4064962"
     inkscape:cx="177.00406"
     inkscape:cy="246.40339"
     inkscape:document-units="mm"
     inkscape:current-layer="layer1"
     showgrid="false"
     fit-margin-top="2"
     fit-margin-left="2"
     fit-margin-right="2"
     fit-margin-bottom="2"
     inkscape:window-width="1870"
     inkscape:window-height="1155"
     inkscape:window-x="341"
     inkscape:window-y="18"
     inkscape:window-maximized="0" />
  <metadata
     id="metadata5">
    <rdf:RDF>
      <cc:Work
         rdf:about="">
        <dc:format>image/svg+xml</dc:format>
        <dc:type
           rdf:resource="http://purl.org/dc/dcmitype/StillImage" />
        <dc:title></dc:title>
      </cc:Work>
    </rdf:RDF>
  </metadata>
  <g
     inkscape:label="Shading"
     inkscape:groupmode="layer"
     id="layer1"
     transform="translate(-65.706263,-75.569293)">
    <g
       id="g1486"
       transform="matrix(0.51959266,0,0,0.46290192,73.497806,86.175887)">
      <g
         transform="translate(43.069665,-137.74287)"
         id="g884">
        <path
           style="opacity:1;fill:#646464;fill-opacity:1;stroke:#000000;stroke-width:5;stroke-linejoin:miter;stroke-miterlimit:4;stroke-dasharray:none;stroke-opacity:1"
           d="m 70.894318,258.02971 v 11.30897 c 0,7.58678 -6.10777,13.69455 -13.69455,13.69455 h -75.292643 c -7.586777,0 -13.694543,-6.10776 -13.694543,-13.69455 v -11.30897 z"
           id="rect864"
           inkscape:connector-curvature="0"
           sodipodi:nodetypes="csssscc" />
        <path
           style="opacity:1;fill:#a0a0a0;fill-opacity:1;stroke:none;stroke-width:5;stroke-linejoin:miter;stroke-miterlimit:4;stroke-dasharray:none;stroke-opacity:1"
           d="m 70.894317,255.38388 v 13.9548 c 0,7.58678 -6.10777,13.69455 -13.694549,13.69455 h -75.292642 c -7.586777,0 -13.694543,-6.10776 -13.694543,-13.69455 v -13.9548 z"
           id="rect864-7"
           inkscape:connector-curvature="0"
           sodipodi:nodetypes="csssscc" />
      </g>
      <path
         sodipodi:nodetypes="cccccccc"
         inkscape:connector-curvature="0"
         id="rect859"
         d="M 41.383737,93.459632 H 84.773571 V 120.5763 l 6.42894,0.12917 -28.12386,13.22917 -29.042251,-13.22917 7.347337,-0.12917 z"
         style="opacity:1;fill:#a50113;fill-opacity:1;stroke:#8e0200;stroke-width:1.31741941;stroke-miterlimit:4;stroke-dasharray:none;stroke-opacity:1" />
    </g>
  </g>
  <g
     inkscape:groupmode="layer"
     id="layer2"
     inkscape:label="Main chicken"
     style="display:inline"
     transform="translate(-65.706263,-75.569293)">
    <g
       id="g1559"
       transform="translate(12.170835,1.0583333)">
      <path
         sodipodi:nodetypes="scccccccccccs"
         inkscape:connector-curvature="0"
         transform="matrix(0.26458333,0,0,0.26458333,3.7041668,6.6666668e-7)"
         id="path1647"
         d="m 338.39844,298.18359 c -11.34247,-0.35019 -20.90856,22.0009 -19.05469,35.34961 -16.36944,-49.51543 -58.98838,11.11762 -22.94881,39.94844 -18.36011,33.49732 -35.82046,85.83441 -49.59611,143.34883 l 32.68164,-19.71328 36.73242,15.88672 29.14453,-19.39258 35.29297,11.8164 21.75,-15.57421 32.26367,10.31836 c -15.29139,-62.52912 -34.99068,-107.50454 -51.03868,-133.21874 13.10651,-23.10204 7.79955,-79.72695 -25.43554,-42.61017 -5.778,-20.08063 -13.42855,-25.96293 -19.7914,-26.15938 z"
         style="fill:#ffffff;fill-opacity:1;fill-rule:evenodd;stroke:#000000;stroke-width:0.99999994px;stroke-linecap:butt;stroke-linejoin:miter;stroke-opacity:1;filter:url(#filter1700)" />
      <path
         sodipodi:nodetypes="cccccccc"
         inkscape:connector-curvature="0"
         id="path1542"
         d="m 69.324184,136.87336 8.201567,-5.92057 9.70535,3.91087 7.655865,-5.19606 9.347754,3.26647 5.80119,-3.87005 8.58139,3.13727 C 98.106991,63.358335 82.962825,87.124625 69.324184,136.87336 Z"
         style="fill:#ffffff;fill-opacity:1;stroke:none;stroke-width:0.26458332px;stroke-linecap:butt;stroke-linejoin:miter;stroke-opacity:1" />
      <path
         sodipodi:nodetypes="ccc"
         inkscape:original-d="m 88.718945,116.09793 6.680346,9.89599 4.628799,-10.61622"
         inkscape:path-effect="#path-effect821"
         inkscape:connector-curvature="0"
         id="path819"
         d="m 88.718945,116.09793 c 0.67216,-0.45375 3.491796,3.87802 6.545977,9.21503 0.0013,0.002 0.08443,0.14758 0.08574,0.14987 1.992631,-5.72262 3.940064,-10.40663 4.67743,-10.08513 0.7233,0.31536 -1.435426,5.1257 -4.580168,11.14731 0.0014,0.002 -0.116088,-0.14883 -0.114733,-0.1471 -4.222728,-5.41582 -7.273937,-9.83465 -6.614244,-10.27998 z"
         style="fill:#fe0000;fill-opacity:1;fill-rule:evenodd;stroke:none;stroke-width:0.22150135px;stroke-linecap:butt;stroke-linejoin:miter;stroke-opacity:1" />
      <g
         transform="matrix(0.59860873,0.14174906,-0.12843958,0.66063924,56.125605,26.701515)"
         id="g1588">
        <g
           id="g860"
           transform="matrix(0.7061522,-0.14564564,0.1469982,0.72307434,-26.690553,-21.011697)">
          <ellipse
             ry="8.2957106"
             rx="4.480762"
             cy="204.11397"
             cx="114.6061"
             id="path841"
             style="opacity:1;fill:#000000;fill-opacity:1;stroke:#505050;stroke-width:0.30360496;stroke-linejoin:round;stroke-miterlimit:4;stroke-dasharray:none;stroke-dashoffset:0;stroke-opacity:1" />
          <ellipse
             ry="8.2957106"
             rx="4.480762"
             cy="203.44635"
             cx="125.19259"
             id="path841-3"
             style="opacity:1;fill:#000000;fill-opacity:1;stroke:#505050;stroke-width:0.30360496;stroke-linejoin:round;stroke-miterlimit:4;stroke-dasharray:none;stroke-dashoffset:0;stroke-opacity:1" />
        </g>
        <ellipse
           style="opacity:1;fill:#ffffff;fill-opacity:1;stroke:#505050;stroke-width:0.30000001;stroke-linejoin:round;stroke-miterlimit:4;stroke-dasharray:none;stroke-dashoffset:0;stroke-opacity:1"
           id="path915"
           cx="94.307152"
           cy="105.6014"
           rx="1.3352319"
           ry="1.4306058"
           transform="rotate(4.5635495)" />
        <ellipse
           style="opacity:1;fill:#ffffff;fill-opacity:1;stroke:#505050;stroke-width:0.30000001;stroke-linejoin:round;stroke-miterlimit:4;stroke-dasharray:none;stroke-dashoffset:0;stroke-opacity:1"
           id="path915-0"
           cx="100.22033"
           cy="103.40781"
           rx="1.3352321"
           ry="1.4306058"
           transform="rotate(4.5635495)" />
      </g>
      <path
         sodipodi:nodetypes="cc"
         inkscape:original-d="M 69.324378,136.87338 C 84.574419,83.132185 98.343219,66.493007 118.71514,132.29485"
         inkscape:path-effect="#path-effect817"
         inkscape:connector-curvature="0"
         id="path815"
         d="m 69.324378,136.87338 c -0.196805,-0.0558 0.517508,-3.58668 2.126169,-9.51028 1.508521,-5.55486 4.190564,-14.62211 8.249872,-23.55288 1.483227,-3.27166 3.280743,-6.825716 5.745415,-10.006159 1.527452,-2.018615 3.54686,-4.077073 6.275002,-5.051845 0.01225,-0.0044 0.02452,-0.0087 0.03679,-0.01307 1.11934,-0.37723 2.317638,-0.493953 3.487845,-0.326028 1.284401,0.196335 2.458602,0.694687 3.474809,1.340756 2.984485,1.907208 5.054715,4.763167 6.689295,7.386481 2.95994,4.687151 5.11326,9.727021 6.76386,13.924511 0,0 1e-5,1e-5 1e-5,1e-5 4.94985,12.57085 6.68474,21.18569 6.54169,21.22997 -0.34153,0.10574 -2.89638,-8.29143 -8.14978,-20.56966 0,0 0,0 0,0 -1.75636,-4.10012 -3.97799,-9.02489 -6.87901,-13.480075 -1.65276,-2.504431 -3.54674,-5.135457 -6.094442,-6.685677 -0.835916,-0.51141 -1.738371,-0.904558 -2.654097,-1.027736 -0.817709,-0.120764 -1.685163,-0.03154 -2.497334,0.2401 -0.0095,0.003 -0.0189,0.006 -0.02834,0.009 -2.097231,0.669736 -3.8026,2.48849 -5.293771,4.33091 -2.322606,2.94282 -4.082553,6.353095 -5.597794,9.543155 -4.06971,8.58982 -7.114088,17.74694 -8.889063,23.0653 -1.937561,5.80552 -3.063416,9.2224 -3.307129,9.15324 z"
         style="fill:#000000;fill-rule:evenodd;stroke:none;stroke-width:0.22792627px;stroke-linecap:butt;stroke-linejoin:miter;stroke-opacity:1" />
      <path
         sodipodi:nodetypes="cccc"
         inkscape:original-d="M 88.369333,101.54016 C 71.442158,93.972257 82.364377,76.868789 88.241708,88.708485 c 4.660405,-17.018394 9.126423,-3.395548 8.951035,-0.881648 8.851167,-8.512482 10.404317,-3.403015 7.514807,10.12401"
         inkscape:path-effect="#path-effect837"
         inkscape:connector-curvature="0"
         id="path835"
         d="m 88.369333,101.54016 c 0.309693,-0.69269 -4.945745,0.44523 -8.825685,-6.43572 10e-7,0 -10e-7,-2e-6 -10e-7,-2e-6 -1.109683,-1.981037 -1.793486,-4.795803 -0.861888,-7.644553 0.324558,-0.98458 0.891958,-1.973651 1.763398,-2.783401 0.745689,-0.693576 1.755404,-1.179023 2.912574,-1.252987 1.245782,-0.02442 2.398347,0.413953 3.289765,1.131383 0.853369,1.020275 1.330152,2.333388 1.549464,3.692485 0.199792,-1.976225 0.448621,-4.359931 1.442376,-6.438556 0.286986,-0.600284 0.633831,-1.1717 1.055205,-1.703013 0.520553,-0.605918 1.384027,-1.076994 2.504533,-1.133725 0,0 6e-6,0 6e-6,0 0.990794,0.08696 1.751133,0.500978 2.233121,1.021604 1.24872,1.252553 1.89433,2.771931 2.300816,4.103414 0.22959,0.68963 0.416165,1.391575 0.549253,2.104582 0,0 -10e-7,2e-6 -10e-7,2e-6 -0.257727,0.301632 -0.521914,0.715161 -0.901047,1.221966 1.322022,-1.854685 2.758518,-3.570649 4.732418,-4.553578 0.66237,-0.271211 1.48982,-0.388689 2.37579,-0.187019 0.82336,0.259263 1.4157,0.793887 1.75024,1.413124 1.00456,1.938317 0.788,4.023748 0.61208,5.415566 -0.53494,5.484676 -2.03035,8.463441 -2.1442,8.439122 -0.31913,-0.06817 0.38656,-3.311605 0.43483,-8.532208 -0.0234,-1.413341 0.0776,-3.244785 -0.67625,-4.266759 -0.15975,-0.211403 -0.35702,-0.397313 -0.5115,-0.389721 -0.22699,-0.08483 -0.59275,0.04649 -1.05356,0.198316 -2.04307,0.526827 -3.744894,1.785781 -5.896806,3.269553 -0.315125,-0.410642 -0.748108,-0.924142 -1.187265,-1.541831 0,0 -3e-6,-3e-6 -3e-6,-3e-6 -0.122908,-0.584135 -0.294145,-1.171526 -0.503003,-1.763627 -0.457042,-1.193011 -0.914487,-2.366941 -1.684898,-3.032147 -0.259998,-0.184 -0.445563,-0.350903 -0.491877,-0.288708 0,0 0,0 0,0 -0.04503,-0.08454 -0.256066,0.133228 -0.5696,0.365636 -0.469696,0.364306 -0.884686,0.788814 -1.26039,1.263456 -1.288558,1.627893 -2.117144,3.879199 -3.020772,5.936794 -0.994542,-1.084587 -2.002392,-2.031658 -3.202999,-2.624172 -0.542064,-0.408872 -1.129142,-0.698646 -1.637655,-0.660278 -0.470447,-0.01569 -0.992786,0.234913 -1.418844,0.578507 -0.530694,0.431318 -0.923318,1.083585 -1.201055,1.769399 -0.812453,1.988403 -0.375572,4.310309 0.39393,6.017589 0,1e-6 1e-6,1e-6 1e-6,2e-6 2.477722,5.535682 7.299617,6.953738 7.149499,7.289508 z"
         style="fill:#f40000;fill-opacity:1;fill-rule:evenodd;stroke:none;stroke-width:0.26458332px;stroke-linecap:butt;stroke-linejoin:miter;stroke-opacity:1" />
      <path
         sodipodi:nodetypes="ccccccc"
         inkscape:original-d="m 69.324378,136.87338 8.263694,-5.89703 9.711862,4.05685 7.683434,-5.16327 9.343062,3.19631 5.77794,-3.99538 8.51877,3.12379"
         inkscape:path-effect="#path-effect1592"
         inkscape:connector-curvature="0"
         id="path1590"
         d="m 69.324378,136.87338 c -0.155672,-0.21815 2.964654,-2.68339 8.201497,-6.44976 2.79391,1.10338 6.095618,2.4328 9.705353,3.91073 1.916905,-1.31187 3.936248,-2.68538 6.016983,-4.09092 0.0015,-0.001 1.637264,-1.104 1.638755,-1.105 3.318853,1.1432 6.473924,2.2465 9.347814,3.2664 2.12944,-1.43486 4.08512,-2.73924 5.80126,-3.8701 0,0 0,0 0,0 5.43941,2.0371 8.67325,3.42499 8.5871,3.65992 -0.0861,0.2347 -3.41993,-0.78522 -8.45044,-2.58766 0,0 0,0 0,0 -1.69979,1.23121 -3.63966,2.62056 -5.75462,4.12066 -2.86612,-0.94379 -6.01792,-1.9981 -9.33831,-3.12622 0.0015,-0.001 -1.650681,1.1055 -1.649188,1.1045 -2.094617,1.4003 -4.129515,2.75124 -6.061942,4.02612 -3.608125,-1.53713 -6.914259,-2.96794 -9.718371,-4.20297 -4.856134,3.43625 -8.170314,5.56232 -8.325891,5.3443 z"
         style="fill:#000000;fill-rule:evenodd;stroke:none;stroke-width:0.26458332px;stroke-linecap:butt;stroke-linejoin:miter;stroke-opacity:1" />
    </g>
  </g>
</svg>
