<?xml version="1.0" encoding="UTF-8" standalone="no"?>
<!-- Created with Inkscape (http://www.inkscape.org/) -->

<svg
   xmlns:dc="http://purl.org/dc/elements/1.1/"
   xmlns:cc="http://creativecommons.org/ns#"
   xmlns:rdf="http://www.w3.org/1999/02/22-rdf-syntax-ns#"
   xmlns:svg="http://www.w3.org/2000/svg"
   xmlns="http://www.w3.org/2000/svg"
   xmlns:sodipodi="http://sodipodi.sourceforge.net/DTD/sodipodi-0.dtd"
   xmlns:inkscape="http://www.inkscape.org/namespaces/inkscape"
   width="297mm"
   height="210mm"
   viewBox="0 0 1052.3622 744.09448"
   id="svg2"
   version="1.1"
   inkscape:version="0.91 r"
   sodipodi:docname="ProjectionGeometry.svg">
  <sodipodi:namedview
     id="base"
     pagecolor="#ffffff"
     bordercolor="#666666"
     borderopacity="1.0"
     inkscape:pageopacity="0.0"
     inkscape:pageshadow="2"
     inkscape:zoom="1.3531463"
     inkscape:cx="526.1811"
     inkscape:cy="372.04724"
     inkscape:document-units="px"
     inkscape:current-layer="layer1"
     showgrid="false"
     inkscape:window-width="1920"
     inkscape:window-height="1174"
     inkscape:window-x="1920"
     inkscape:window-y="0"
     inkscape:window-maximized="1" />
  <defs
     id="defs4" />
  <metadata
     id="metadata7">
    <rdf:RDF>
      <cc:Work
         rdf:about="">
        <dc:format>image/svg+xml</dc:format>
        <dc:type
           rdf:resource="http://purl.org/dc/dcmitype/StillImage" />
        <dc:title />
      </cc:Work>
    </rdf:RDF>
  </metadata>
  <g
     transform="translate(0,-308.26772)"
     id="layer1"
     inkscape:groupmode="layer"
     inkscape:label="Layer 1">
    <g
       id="g4146">
      <circle
         style="opacity:1;fill:none;fill-opacity:1;stroke:#ff0000;stroke-width:0.56800002;stroke-linecap:butt;stroke-linejoin:miter;stroke-miterlimit:4;stroke-dasharray:none;stroke-dashoffset:0;stroke-opacity:1"
         id="path4136"
         cx="573.28467"
         cy="712.29755"
         r="203.34947" />
      <rect
         style="opacity:1;fill:none;fill-opacity:1;stroke:#ff0000;stroke-width:0.56800002;stroke-linecap:butt;stroke-linejoin:miter;stroke-miterlimit:4;stroke-dasharray:none;stroke-dashoffset:0;stroke-opacity:1"
         id="rect4138"
         width="222.8802"
         height="22.977341"
         x="461.84454"
         y="529.62775" />
      <path
         style="opacity:1;fill:none;fill-opacity:1;stroke:#000000;stroke-width:0.56800002;stroke-linecap:butt;stroke-linejoin:miter;stroke-miterlimit:4;stroke-dasharray:none;stroke-dashoffset:0;stroke-opacity:1"
         d="m 573.28465,471.03548 0,519.2879"
         id="path4140"
         inkscape:connector-curvature="0" />
      <path
         inkscape:connector-curvature="0"
         id="path4142"
         d="m 832.9286,712.29756 -519.2879,0"
         style="opacity:1;fill:none;fill-opacity:1;stroke:#000000;stroke-width:0.56800002;stroke-linecap:butt;stroke-linejoin:miter;stroke-miterlimit:4;stroke-dasharray:none;stroke-dashoffset:0;stroke-opacity:1" />
      <rect
         y="874.28784"
         x="461.84454"
         height="22.977341"
         width="222.8802"
         id="rect4144"
         style="opacity:1;fill:none;fill-opacity:1;stroke:#ff0000;stroke-width:0.56800002;stroke-linecap:butt;stroke-linejoin:miter;stroke-miterlimit:4;stroke-dasharray:none;stroke-dashoffset:0;stroke-opacity:1" />
    </g>
    <rect
       transform="matrix(0.43713131,0.8993977,-0.8993977,0.43713131,0,0)"
       inkscape:transform-center-y="-107.44313"
       inkscape:transform-center-x="-223.6925"
       y="-458.76071"
       x="603.06165"
       height="13.786403"
       width="575.5824"
       id="rect4153"
       style="opacity:1;fill:none;fill-opacity:1;stroke:#000000;stroke-width:0.56800002;stroke-linecap:butt;stroke-linejoin:miter;stroke-miterlimit:4;stroke-dasharray:none;stroke-dashoffset:0;stroke-opacity:1" />
    <path
       inkscape:connector-curvature="0"
       id="path4155"
       d="M 471.03548,541.11637 711.1487,430.82514"
       style="opacity:1;fill:none;fill-opacity:1;stroke:#000000;stroke-width:0.56800002;stroke-linecap:butt;stroke-linejoin:miter;stroke-miterlimit:4;stroke-dasharray:none;stroke-dashoffset:0;stroke-opacity:1" />
    <path
       sodipodi:nodetypes="cc"
       style="opacity:1;fill:none;fill-opacity:1;stroke:#000000;stroke-width:0.56800002;stroke-linecap:butt;stroke-linejoin:miter;stroke-miterlimit:4;stroke-dasharray:none;stroke-dashoffset:0;stroke-opacity:1"
       d="M 672.08721,885.77648 886.92536,786.97392"
       id="path4157"
       inkscape:connector-curvature="0" />
    <path
       sodipodi:nodetypes="cc"
       inkscape:connector-curvature="0"
       id="path4159"
       d="M 671.32347,542.14228 747.1487,508.82514"
       style="opacity:1;fill:none;fill-opacity:1;stroke:#000000;stroke-width:0.56800002;stroke-linecap:butt;stroke-linejoin:miter;stroke-miterlimit:4;stroke-dasharray:none;stroke-dashoffset:0;stroke-opacity:1" />
    <path
       sodipodi:nodetypes="cc"
       style="opacity:1;fill:none;fill-opacity:1;stroke:#000000;stroke-width:0.56800002;stroke-linecap:butt;stroke-linejoin:miter;stroke-miterlimit:4;stroke-dasharray:none;stroke-dashoffset:0;stroke-opacity:1"
       d="M 471.03548,885.11637 846.71501,708.19085"
       id="path4161"
       inkscape:connector-curvature="0" />
    <path
       inkscape:connector-curvature="0"
       id="path4163"
       d="M 572.93877,712.21935 473.33322,539.9675 572.93877,539.0863 Z"
       style="opacity:1;fill:none;fill-opacity:1;stroke:#000000;stroke-width:0.56800002;stroke-linecap:butt;stroke-linejoin:miter;stroke-miterlimit:4;stroke-dasharray:none;stroke-dashoffset:0;stroke-opacity:1"
       sodipodi:nodetypes="cccc" />
    <path
       inkscape:connector-curvature="0"
       id="path4165"
       d="M 573.28465,711.14869 675.53382,541.11637 573.20644,538.74043 Z"
       style="opacity:1;fill:none;fill-opacity:1;stroke:#000000;stroke-width:0.56800002;stroke-linecap:butt;stroke-linejoin:miter;stroke-miterlimit:4;stroke-dasharray:none;stroke-dashoffset:0;stroke-opacity:1"
       sodipodi:nodetypes="cccc" />
    <path
       inkscape:connector-curvature="0"
       id="path4167"
       d="m 572.13578,675.53381 c -7.47434,0.21781 -11.708,3.13618 -14.93527,6.89321"
       style="opacity:1;fill:none;fill-opacity:1;stroke:#000000;stroke-width:0.56800002;stroke-linecap:butt;stroke-linejoin:miter;stroke-miterlimit:4;stroke-dasharray:none;stroke-dashoffset:0;stroke-opacity:1"
       sodipodi:nodetypes="cc" />
    <path
       inkscape:connector-curvature="0"
       id="path4169"
       d="M 573.28465,712.29756 796.16486,608.89953"
       style="opacity:1;fill:none;fill-opacity:1;stroke:#000000;stroke-width:0.56800002;stroke-linecap:butt;stroke-linejoin:miter;stroke-miterlimit:4;stroke-dasharray:none;stroke-dashoffset:0;stroke-opacity:1" />
    <path
       inkscape:connector-curvature="0"
       id="path4171"
       d="m 634.1746,683.57588 c 4.97995,8.56391 8.19908,17.60804 5.39705,28.29431"
       style="opacity:1;fill:none;fill-opacity:1;stroke:#000000;stroke-width:0.56800002;stroke-linecap:butt;stroke-linejoin:miter;stroke-miterlimit:4;stroke-dasharray:none;stroke-dashoffset:0;stroke-opacity:1"
       sodipodi:nodetypes="cc" />
    <g
       id="g4197"
       transform="matrix(0.73845624,0,0,0.73845624,434.71971,442.90627)">
      <g
         word-spacing="normal"
         letter-spacing="normal"
         font-size-adjust="none"
         font-stretch="normal"
         font-weight="normal"
         font-variant="normal"
         font-style="normal"
         stroke-miterlimit="10.433"
         xml:space="preserve"
         transform="matrix(1.0629921,0,0,-1.0629921,-186.02362,789.27165)"
         id="content"
         style="font-style:normal;font-variant:normal;font-weight:normal;font-stretch:normal;letter-spacing:normal;word-spacing:normal;text-anchor:start;fill:none;fill-opacity:1;fill-rule:evenodd;stroke:#000000;stroke-linecap:butt;stroke-linejoin:miter;stroke-miterlimit:10.43299961;stroke-dasharray:none;stroke-dashoffset:0;stroke-opacity:1"><path
           id="path4200"
           d="m 478.19,431.11 0,0.31 -0.01,0.34 -0.02,0.36 -0.02,0.37 -0.03,0.39 -0.04,0.39 -0.04,0.41 -0.06,0.41 -0.07,0.42 -0.07,0.43 -0.09,0.42 -0.1,0.43 -0.12,0.42 -0.12,0.42 -0.14,0.41 -0.16,0.41 -0.17,0.4 -0.18,0.38 -0.2,0.37 -0.22,0.36 -0.23,0.34 -0.25,0.32 -0.28,0.3 -0.29,0.27 -0.31,0.25 -0.16,0.12 -0.17,0.1 -0.17,0.1 -0.18,0.1 -0.18,0.08 -0.19,0.08 -0.19,0.07 -0.2,0.06 -0.21,0.05 -0.21,0.05 -0.22,0.03 -0.22,0.02 -0.23,0.02 -0.23,0 -0.05,-1.09 c 2.44,0 2.73,-3.19 2.73,-6.03 0,-2.44 -0.39,-4.99 -1.59,-9.92 l -10.41,0 c 0.85,3.2 1.85,7.18 3.83,10.72 1.36,2.43 3.19,5.23 5.44,5.23 l 0.05,1.09 c -6.92,0 -14.6,-14.04 -14.6,-25.45 0,-4.69 1.44,-10.22 5.99,-10.22 l 0,1.1 c -1.66,0 -2.71,1.45 -2.71,6.07 0,2.1 0.3,4.99 1.6,9.86 l 10.37,0 c -0.54,-2.28 -1.59,-6.51 -3.5,-10.11 -1.73,-3.39 -3.62,-5.82 -5.76,-5.82 l 0,-1.1 c 7.01,0 14.59,14.3 14.59,25.46 z"
           inkscape:connector-curvature="0"
           style="fill:#000000;stroke-width:0" /></g>    </g>
    <g
       transform="matrix(0.62996019,0,0,0.62996019,359.45742,437.3066)"
       id="g4250">
      <g
         style="font-style:normal;font-variant:normal;font-weight:normal;font-stretch:normal;letter-spacing:normal;word-spacing:normal;text-anchor:start;fill:none;fill-opacity:1;fill-rule:evenodd;stroke:#000000;stroke-linecap:butt;stroke-linejoin:miter;stroke-miterlimit:10.43299961;stroke-dasharray:none;stroke-dashoffset:0;stroke-opacity:1"
         id="g4252"
         transform="matrix(1.0629921,0,0,-1.0629921,-186.02362,789.27165)"
         xml:space="preserve"
         stroke-miterlimit="10.433"
         font-style="normal"
         font-variant="normal"
         font-weight="normal"
         font-stretch="normal"
         font-size-adjust="none"
         letter-spacing="normal"
         word-spacing="normal"><path
           style="fill:#000000;stroke-width:0"
           inkscape:connector-curvature="0"
           d="m 477.29,439.57 0,0.01 0,0.01 0,0 0,0.01 0,0.01 0,0.01 0,0 0,0.01 0.01,0.02 0,0.03 0,0.02 0.01,0.02 0.01,0.03 0,0.03 0.01,0.02 0,0.03 0.01,0.03 0.01,0.03 0.01,0.06 0.02,0.06 0,0.03 0.01,0.02 0.01,0.03 0,0.03 0.01,0.02 0.01,0.02 0,0.02 0.01,0.02 0,0.01 0,0.01 0,0.01 0,0.01 0.01,0 0,0.01 0,0.01 0,0 0,0.01 0,0 0,0 0,0.01 c 0,0.04 0,0.5 -0.59,0.5 -0.5,0 -0.55,-0.16 -0.75,-1 l -2.89,-11.5 c -7.92,-0.25 -15.25,-6.88 -15.25,-13.66 0,-4.73 3.48,-8.67 9.56,-9.01 l 0.25,1.09 c -2.98,0.14 -6.58,1.89 -6.58,6.87 0,5.99 4.3,12.96 11.72,13.6 l -5.14,-20.47 -0.25,-1.09 c -0.39,-1.55 -0.73,-3.15 -1.14,-4.69 -0.59,-2.35 -1.09,-4.24 -1.09,-4.39 0,-0.49 0.34,-0.55 0.59,-0.55 0.25,0 0.36,0.06 0.5,0.2 0.09,0.1 0.41,1.3 0.55,2 l 1.89,7.43 0.25,1.09 5.14,20.47 c 3.78,-0.19 6.62,-2.49 6.62,-6.88 0,-5.87 -4.28,-13 -11.76,-13.59 l -0.25,-1.09 c 8.03,0.25 15.25,6.96 15.25,13.64 0,3.93 -2.64,8.53 -9.57,9.03 z"
           id="path4254" /></g>    </g>
    <text
       sodipodi:linespacing="125%"
       id="text4286"
       y="607.75061"
       x="576.73126"
       style="font-style:normal;font-variant:normal;font-weight:normal;font-stretch:normal;font-size:15px;line-height:125%;font-family:Arial;-inkscape-font-specification:Arial;letter-spacing:0px;word-spacing:0px;fill:#000000;fill-opacity:1;stroke:none;stroke-width:1px;stroke-linecap:butt;stroke-linejoin:miter;stroke-opacity:1"
       xml:space="preserve"><tspan
         style="font-size:25px"
         y="607.75061"
         x="576.73126"
         id="tspan4288"
         sodipodi:role="line">h</tspan></text>
    <text
       sodipodi:linespacing="125%"
       id="text4290"
       y="641.06781"
       x="477.92868"
       style="font-style:normal;font-variant:normal;font-weight:normal;font-stretch:normal;font-size:15px;line-height:125%;font-family:Arial;-inkscape-font-specification:Arial;letter-spacing:0px;word-spacing:0px;fill:#000000;fill-opacity:1;stroke:none;stroke-width:1px;stroke-linecap:butt;stroke-linejoin:miter;stroke-opacity:1"
       xml:space="preserve"><tspan
         style="font-size:25px"
         y="641.06781"
         x="477.92868"
         id="tspan4292"
         sodipodi:role="line">R</tspan></text>
    <g
       transform="matrix(0.73845624,0,0,0.73845624,270.43173,252.19434)"
       id="g4305">
      <g
         style="font-style:normal;font-variant:normal;font-weight:normal;font-stretch:normal;letter-spacing:normal;word-spacing:normal;text-anchor:start;fill:none;fill-opacity:1;fill-rule:evenodd;stroke:#000000;stroke-linecap:butt;stroke-linejoin:miter;stroke-miterlimit:10.43299961;stroke-dasharray:none;stroke-dashoffset:0;stroke-opacity:1"
         id="g4307"
         transform="matrix(1.0629921,0,0,-1.0629921,-186.02362,789.27165)"
         xml:space="preserve"
         stroke-miterlimit="10.433"
         font-style="normal"
         font-variant="normal"
         font-weight="normal"
         font-stretch="normal"
         font-size-adjust="none"
         letter-spacing="normal"
         word-spacing="normal"><path
           style="fill:#000000;stroke-width:0"
           inkscape:connector-curvature="0"
           d="m 478.19,431.11 0,0.31 -0.01,0.34 -0.02,0.36 -0.02,0.37 -0.03,0.39 -0.04,0.39 -0.04,0.41 -0.06,0.41 -0.07,0.42 -0.07,0.43 -0.09,0.42 -0.1,0.43 -0.12,0.42 -0.12,0.42 -0.14,0.41 -0.16,0.41 -0.17,0.4 -0.18,0.38 -0.2,0.37 -0.22,0.36 -0.23,0.34 -0.25,0.32 -0.28,0.3 -0.29,0.27 -0.31,0.25 -0.16,0.12 -0.17,0.1 -0.17,0.1 -0.18,0.1 -0.18,0.08 -0.19,0.08 -0.19,0.07 -0.2,0.06 -0.21,0.05 -0.21,0.05 -0.22,0.03 -0.22,0.02 -0.23,0.02 -0.23,0 -0.05,-1.09 c 2.44,0 2.73,-3.19 2.73,-6.03 0,-2.44 -0.39,-4.99 -1.59,-9.92 l -10.41,0 c 0.85,3.2 1.85,7.18 3.83,10.72 1.36,2.43 3.19,5.23 5.44,5.23 l 0.05,1.09 c -6.92,0 -14.6,-14.04 -14.6,-25.45 0,-4.69 1.44,-10.22 5.99,-10.22 l 0,1.1 c -1.66,0 -2.71,1.45 -2.71,6.07 0,2.1 0.3,4.99 1.6,9.86 l 10.37,0 c -0.54,-2.28 -1.59,-6.51 -3.5,-10.11 -1.73,-3.39 -3.62,-5.82 -5.76,-5.82 l 0,-1.1 c 7.01,0 14.59,14.3 14.59,25.46 z"
           id="path4309" /></g>    </g>
    <path
       style="opacity:1;fill:none;fill-opacity:1;stroke:#000000;stroke-width:0.56800002;stroke-linecap:butt;stroke-linejoin:miter;stroke-miterlimit:4;stroke-dasharray:none;stroke-dashoffset:0;stroke-opacity:1"
       d="m 522.7345,516.99016 c 6.7761,8.58723 6.26154,15.35179 4.59547,21.82848"
       id="path4429"
       inkscape:connector-curvature="0"
       sodipodi:nodetypes="cc" />
    <text
       xml:space="preserve"
       style="font-style:normal;font-variant:normal;font-weight:normal;font-stretch:normal;font-size:15px;line-height:125%;font-family:Arial;-inkscape-font-specification:Arial;letter-spacing:0px;word-spacing:0px;fill:#000000;fill-opacity:1;stroke:none;stroke-width:1px;stroke-linecap:butt;stroke-linejoin:miter;stroke-opacity:1"
       x="527.32996"
       y="560.64709"
       id="text4431"
       sodipodi:linespacing="125%"><tspan
         sodipodi:role="line"
         id="tspan4433"
         x="527.32996"
         y="560.64709"
         style="font-size:25px">w</tspan></text>
    <g
       transform="translate(-252.75075,101.1003)"
       id="g4483">
      <g
         style="font-style:normal;font-variant:normal;font-weight:normal;font-stretch:normal;letter-spacing:normal;word-spacing:normal;text-anchor:start;fill:none;fill-opacity:1;fill-rule:evenodd;stroke:#000000;stroke-linecap:butt;stroke-linejoin:miter;stroke-miterlimit:10.43299961;stroke-dasharray:none;stroke-dashoffset:0;stroke-opacity:1"
         id="g4485"
         transform="matrix(1.0629921,0,0,-1.0629921,-186.02362,789.27165)"
         xml:space="preserve"
         stroke-miterlimit="10.433"
         font-style="normal"
         font-variant="normal"
         font-weight="normal"
         font-stretch="normal"
         font-size-adjust="none"
         letter-spacing="normal"
         word-spacing="normal"><path
           style="fill:#000000;stroke-width:0"
           inkscape:connector-curvature="0"
           d="m 478.54,423.09 0.02,0.1 0.02,0.11 0.03,0.12 0.03,0.11 0.03,0.12 0.03,0.12 0.06,0.25 0.06,0.25 0.06,0.25 0.06,0.24 0.06,0.25 0.03,0.11 0.03,0.12 0.03,0.11 0.02,0.11 0.03,0.1 0.02,0.1 0.02,0.1 0.02,0.09 0.02,0.08 0.02,0.08 0.01,0.07 0.01,0.06 0.01,0.06 0.01,0.05 0,0.04 0.01,0.03 c 0,0.91 -0.71,1.35 -1.46,1.35 -0.59,0 -1.48,-0.39 -1.83,-1.39 -0.15,-0.35 -2.5,-9.86 -2.84,-11.16 -0.36,-1.5 -0.45,-2.39 -0.45,-3.3 0,-0.54 0,-0.64 0.04,-0.89 -1.14,-2.64 -2.64,-4.18 -4.57,-4.18 -3.99,0 -3.99,3.68 -3.99,4.53 0,1.59 0.25,3.54 2.6,9.67 0.54,1.48 0.84,2.19 0.84,3.19 0,2.23 -1.64,4.07 -4.09,4.07 -4.74,0 -6.58,-7.21 -6.58,-7.67 0,-0.5 0.5,-0.5 0.61,-0.5 0.5,0 0.54,0.11 0.79,0.91 1.35,4.62 3.28,6.17 5.03,6.17 0.44,0 1.25,-0.05 1.25,-1.64 0,-1.25 -0.56,-2.64 -0.9,-3.48 -2.19,-5.88 -2.78,-8.18 -2.78,-10.07 0,-4.53 3.33,-6.28 7.06,-6.28 0.86,0 3.19,0 5.19,3.49 1.29,-3.19 4.73,-3.49 6.23,-3.49 3.74,0 5.92,3.14 7.22,6.13 1.69,3.89 3.28,10.56 3.28,12.95 0,2.75 -1.34,3.48 -2.19,3.48 -1.25,0 -2.48,-1.29 -2.48,-2.39 0,-0.64 0.3,-0.93 0.73,-1.34 0.55,-0.55 1.8,-1.84 1.8,-4.23 0,-1.69 -1.44,-6.58 -2.73,-9.11 -1.3,-2.64 -3.05,-4.39 -5.49,-4.39 -2.34,0 -3.69,1.5 -3.69,4.32 0,1.41 0.35,2.96 0.55,3.64 z"
           id="path4487" /><path
           style="fill:#000000;stroke-width:0"
           inkscape:connector-curvature="0"
           d="m 540.63,422.5 0.14,0 0.15,0 0.14,0 0.07,0.01 0.08,0 0.07,0.01 0.07,0.01 0.07,0.01 0.07,0.01 0.07,0.01 0.06,0.02 0.07,0.02 0.06,0.02 0.06,0.02 0.06,0.03 0.06,0.03 0.05,0.04 0.05,0.03 0.05,0.05 0.04,0.04 0.04,0.05 0.02,0.03 0.02,0.03 0.01,0.02 0.02,0.03 0.01,0.03 0.01,0.04 0.02,0.03 0.01,0.04 0.01,0.03 0.01,0.04 0,0.04 0.01,0.04 0,0.04 0.01,0.04 0,0.04 0,0.05 c 0,1 -0.95,1 -1.64,1 l -29.84,0 c -0.71,0 -1.64,0 -1.64,-1 0,-0.98 0.93,-0.98 1.68,-0.98 z"
           id="path4489" /><path
           style="fill:#000000;stroke-width:0"
           inkscape:connector-curvature="0"
           d="m 540.68,412.82 0.07,0 0.06,0 0.14,0.01 0.14,0 0.07,0 0.07,0.01 0.07,0.01 0.06,0 0.07,0.01 0.07,0.02 0.07,0.01 0.06,0.02 0.07,0.02 0.06,0.02 0.06,0.02 0.05,0.03 0.06,0.03 0.05,0.04 0.05,0.04 0.05,0.04 0.04,0.05 0.02,0.02 0.02,0.03 0.02,0.02 0.02,0.03 0.01,0.03 0.02,0.03 0.01,0.03 0.01,0.03 0.02,0.04 0.01,0.03 0.01,0.04 0.01,0.04 0,0.04 0.01,0.04 0,0.04 0.01,0.04 0,0.05 0,0.04 c 0,1 -0.95,1 -1.69,1 l -29.75,0 c -0.75,0 -1.68,0 -1.68,-1 0,-1 0.93,-1 1.64,-1 z"
           id="path4491" /><path
           style="fill:#000000;stroke-width:0"
           inkscape:connector-curvature="0"
           d="m 578.34,405.12 -8.77,19.38 c -0.34,0.8 -0.59,0.8 -0.75,0.8 -0.05,0 -0.3,0 -0.84,-0.39 l -4.74,-3.6 c -0.64,-0.5 -0.64,-0.64 -0.64,-0.79 0,-0.25 0.14,-0.55 0.5,-0.55 0.3,0 1.14,0.7 1.69,1.09 0.3,0.25 1.05,0.8 1.59,1.21 l 9.82,-21.58 c 0.35,-0.8 0.6,-0.8 1.04,-0.8 0.75,0 0.91,0.3 1.25,1 l 22.63,46.83 c 0.34,0.7 0.34,0.89 0.34,1 0,0.5 -0.41,1 -1,1 -0.39,0 -0.75,-0.25 -1.14,-1.05 z"
           id="path4493" /><polyline
           style="fill:#000000;fill-rule:nonzero;stroke-width:0"
           points="600,448 772.56,448 772.56,450.04 600,450.04 "
           id="polyline4495" /><path
           style="fill:#000000;stroke-width:0"
           inkscape:connector-curvature="0"
           d="m 626.34,423.14 0.47,0.11 0.48,0.12 0.48,0.14 0.49,0.15 0.48,0.16 0.48,0.18 0.48,0.19 0.47,0.2 0.47,0.22 0.47,0.23 0.46,0.24 0.45,0.25 0.44,0.27 0.42,0.28 0.42,0.29 0.4,0.3 0.39,0.31 0.37,0.32 0.36,0.34 0.33,0.35 0.32,0.35 0.3,0.37 0.27,0.38 0.25,0.39 0.22,0.4 0.2,0.41 0.18,0.42 0.14,0.43 0.11,0.44 0.09,0.45 0.05,0.46 0.01,0.47 c 0,4.28 -4.48,7.47 -11,7.47 l -14.2,0 c -1,0 -1.45,0 -1.45,-1 0,-0.55 0.45,-0.55 1.4,-0.55 0.1,0 1.05,0 1.89,-0.09 0.89,-0.11 1.35,-0.16 1.35,-0.8 0,-0.2 -0.05,-0.36 -0.21,-0.95 l -6.67,-26.75 c -0.5,-1.95 -0.59,-2.34 -4.53,-2.34 -0.9,0 -1.34,0 -1.34,-1 0,-0.55 0.59,-0.55 0.69,-0.55 1.4,0 4.88,0.16 6.28,0.16 1.39,0 4.93,-0.16 6.32,-0.16 0.41,0 1,0 1,1 0,0.55 -0.45,0.55 -1.39,0.55 -1.84,0 -3.25,0 -3.25,0.89 0,0.29 0.11,0.54 0.16,0.84 l 3.28,13.2 5.94,0 -0.05,1.11 -5.59,0 3.25,13 c 0.3,1.19 0.43,1.69 1.39,1.85 0.45,0.04 2.04,0.04 3.03,0.04 3.55,0 9.08,0 9.08,-4.93 0,-1.69 -0.8,-5.13 -2.75,-7.07 -1.28,-1.29 -3.92,-2.89 -8.41,-2.89 l 0.05,-1.11 c 4.53,0 5.42,-2.78 5.42,-4.53 0,-0.75 -0.39,-2.28 -0.69,-3.44 -0.36,-1.39 -0.79,-3.23 -0.79,-4.23 0,-5.37 5.97,-5.37 6.62,-5.37 4.23,0 5.97,5.03 5.97,5.73 0,0.59 -0.55,0.59 -0.59,0.59 -0.46,0 -0.55,-0.36 -0.65,-0.7 -1.25,-3.69 -3.38,-4.53 -4.54,-4.53 -1.64,0 -1.99,1.09 -1.99,3.05 0,1.53 0.3,4.07 0.5,5.67 0.1,0.7 0.21,1.64 0.21,2.34 0,3.83 -3.35,5.38 -4.69,5.88 z"
           id="path4497" /><path
           style="fill:#000000;stroke-width:0"
           inkscape:connector-curvature="0"
           d="m 656.23,426.95 -1.18,0 c -0.1,-0.77 -0.46,-2.83 -0.91,-3.18 -0.26,-0.2 -2.95,-0.2 -3.44,-0.2 l -6.42,0 c 3.66,3.23 4.88,4.2 6.97,5.84 2.58,2.07 4.98,4.22 4.98,7.54 0,4.21 -3.68,6.79 -8.15,6.79 -4.31,0 -7.25,-3.03 -7.25,-6.23 0,-1.78 1.5,-1.96 1.86,-1.96 0.83,0 1.84,0.6 1.84,1.85 0,0.62 -0.25,1.84 -2.06,1.84 1.08,2.47 3.45,3.24 5.09,3.24 3.49,0 5.3,-2.71 5.3,-5.53 0,-3.04 -2.16,-5.44 -3.28,-6.69 l -8.39,-8.3 c -0.36,-0.31 -0.36,-0.39 -0.36,-1.36 l 14.36,0 z"
           id="path4499" /><path
           style="fill:#000000;stroke-width:0"
           inkscape:connector-curvature="0"
           d="m 704.95,417.65 0.16,0 0.16,0 0.15,0.01 0.08,0 0.08,0.01 0.07,0 0.08,0.01 0.07,0.01 0.07,0.01 0.07,0.02 0.07,0.02 0.07,0.02 0.06,0.02 0.06,0.02 0.06,0.03 0.06,0.03 0.05,0.04 0.05,0.03 0.04,0.05 0.05,0.04 0.03,0.05 0.02,0.03 0.02,0.03 0.01,0.03 0.02,0.03 0.01,0.03 0.02,0.03 0.01,0.04 0.01,0.03 0.01,0.04 0.01,0.04 0,0.04 0.01,0.04 0,0.04 0.01,0.04 0,0.05 0,0.04 c 0,1 -0.91,1 -1.75,1 l -26.95,0 c -0.85,0 -1.74,0 -1.74,-1 0,-1 0.89,-1 1.74,-1 z"
           id="path4501" /><path
           style="fill:#000000;stroke-width:0"
           inkscape:connector-curvature="0"
           d="m 736.22,440.23 0,0 0,0.01 -0.01,0 0,0.01 0,0.02 0,0.01 0,0.02 0,0.02 0,0.02 -0.01,0.02 0,0.02 -0.01,0.02 -0.01,0.02 -0.01,0.03 -0.01,0.02 -0.01,0.03 -0.02,0.02 -0.01,0.03 -0.02,0.02 -0.02,0.02 -0.02,0.03 -0.01,0.01 -0.02,0.01 -0.01,0.01 -0.01,0.01 -0.02,0.01 -0.01,0.01 -0.02,0.01 -0.02,0.01 -0.01,0.01 -0.02,0.01 -0.02,0 -0.02,0.01 -0.02,0.01 -0.02,0 -0.02,0.01 -0.02,0.01 -0.03,0 -0.02,0 -0.03,0.01 -0.02,0 -0.03,0 -0.03,0.01 -0.03,0 -0.03,0 c -1.15,0 -4.78,-0.41 -6.07,-0.5 -0.41,-0.05 -0.96,-0.1 -0.96,-1 0,-0.6 0.46,-0.6 1.21,-0.6 2.39,0 2.48,-0.34 2.48,-0.84 l -0.16,-1 -7.22,-28.7 c -0.2,-0.69 -0.2,-0.8 -0.2,-1.1 0,-1.14 1,-1.39 1.45,-1.39 0.8,0 1.6,0.6 1.85,1.3 l 0.94,3.78 1.11,4.48 c 0.29,1.1 0.59,2.19 0.84,3.35 0.09,0.3 0.5,1.94 0.55,2.23 0.14,0.46 1.68,3.25 3.39,4.6 1.09,0.79 2.64,1.73 4.78,1.73 2.14,0 2.69,-1.69 2.69,-3.48 0,-2.69 -1.9,-8.13 -3.1,-11.16 -0.39,-1.16 -0.64,-1.75 -0.64,-2.75 0,-2.33 1.74,-4.08 4.08,-4.08 4.69,0 6.53,7.27 6.53,7.67 0,0.5 -0.45,0.5 -0.59,0.5 -0.5,0 -0.5,-0.15 -0.75,-0.9 -0.75,-2.64 -2.35,-6.17 -5.08,-6.17 -0.86,0 -1.2,0.5 -1.2,1.64 0,1.25 0.45,2.45 0.9,3.54 0.8,2.14 3.03,8.07 3.03,10.96 0,3.23 -2,5.32 -5.73,5.32 -3.14,0 -5.53,-1.53 -7.38,-3.82 z"
           id="path4503" /><path
           style="fill:#000000;stroke-width:0"
           inkscape:connector-curvature="0"
           d="m 768.2,426.95 -1.19,0 c -0.1,-0.77 -0.46,-2.83 -0.91,-3.18 -0.26,-0.2 -2.95,-0.2 -3.44,-0.2 l -6.42,0 c 3.66,3.23 4.88,4.2 6.97,5.84 2.58,2.07 4.99,4.22 4.99,7.54 0,4.21 -3.69,6.79 -8.16,6.79 -4.31,0 -7.25,-3.03 -7.25,-6.23 0,-1.78 1.5,-1.96 1.86,-1.96 0.83,0 1.84,0.6 1.84,1.85 0,0.62 -0.25,1.84 -2.06,1.84 1.08,2.47 3.45,3.24 5.09,3.24 3.49,0 5.3,-2.71 5.3,-5.53 0,-3.04 -2.16,-5.44 -3.28,-6.69 l -8.39,-8.3 c -0.36,-0.31 -0.36,-0.39 -0.36,-1.36 l 14.36,0 z"
           id="path4505" /></g>    </g>
    <g
       id="g4625"
       transform="translate(-247.00641,171.18119)">
      <g
         word-spacing="normal"
         letter-spacing="normal"
         font-size-adjust="none"
         font-stretch="normal"
         font-weight="normal"
         font-variant="normal"
         font-style="normal"
         stroke-miterlimit="10.433"
         xml:space="preserve"
         transform="matrix(1.0629921,0,0,-1.0629921,-186.02362,789.27165)"
         id="g4627"
         style="font-style:normal;font-variant:normal;font-weight:normal;font-stretch:normal;letter-spacing:normal;word-spacing:normal;text-anchor:start;fill:none;fill-opacity:1;fill-rule:evenodd;stroke:#000000;stroke-linecap:butt;stroke-linejoin:miter;stroke-miterlimit:10.43299961;stroke-dasharray:none;stroke-dashoffset:0;stroke-opacity:1"><path
           id="path4629"
           d="m 477.29,439.57 0,0.01 0,0.01 0,0 0,0.01 0,0.01 0,0.01 0,0 0,0.01 0.01,0.02 0,0.03 0,0.02 0.01,0.02 0.01,0.03 0,0.03 0.01,0.02 0,0.03 0.01,0.03 0.01,0.03 0.01,0.06 0.02,0.06 0,0.03 0.01,0.02 0.01,0.03 0,0.03 0.01,0.02 0.01,0.02 0,0.02 0.01,0.02 0,0.01 0,0.01 0,0.01 0,0.01 0.01,0 0,0.01 0,0.01 0,0 0,0.01 0,0 0,0 0,0.01 c 0,0.04 0,0.5 -0.59,0.5 -0.5,0 -0.55,-0.16 -0.75,-1 l -2.89,-11.5 c -7.92,-0.25 -15.25,-6.88 -15.25,-13.66 0,-4.73 3.48,-8.67 9.56,-9.01 l 0.25,1.09 c -2.98,0.14 -6.58,1.89 -6.58,6.87 0,5.99 4.3,12.96 11.72,13.6 l -5.14,-20.47 -0.25,-1.09 c -0.39,-1.55 -0.73,-3.15 -1.14,-4.69 -0.59,-2.35 -1.09,-4.24 -1.09,-4.39 0,-0.49 0.34,-0.55 0.59,-0.55 0.25,0 0.36,0.06 0.5,0.2 0.09,0.1 0.41,1.3 0.55,2 l 1.89,7.43 0.25,1.09 5.14,20.47 c 3.78,-0.19 6.62,-2.49 6.62,-6.88 0,-5.87 -4.28,-13 -11.76,-13.59 l -0.25,-1.09 c 8.03,0.25 15.25,6.96 15.25,13.64 0,3.93 -2.64,8.53 -9.57,9.03 z"
           inkscape:connector-curvature="0"
           style="fill:#000000;stroke-width:0" /><path
           id="path4631"
           d="m 533.31,422.5 0.14,0 0.15,0 0.14,0 0.07,0.01 0.08,0 0.07,0.01 0.07,0.01 0.07,0.01 0.07,0.01 0.07,0.01 0.06,0.02 0.07,0.02 0.06,0.02 0.06,0.02 0.06,0.03 0.06,0.03 0.05,0.04 0.05,0.03 0.05,0.05 0.04,0.04 0.04,0.05 0.02,0.03 0.02,0.03 0.01,0.02 0.02,0.03 0.01,0.03 0.01,0.04 0.02,0.03 0.01,0.04 0.01,0.03 0.01,0.04 0,0.04 0.01,0.04 0,0.04 0.01,0.04 0,0.04 0,0.05 c 0,1 -0.95,1 -1.64,1 l -29.84,0 c -0.71,0 -1.64,0 -1.64,-1 0,-0.98 0.93,-0.98 1.68,-0.98 z"
           inkscape:connector-curvature="0"
           style="fill:#000000;stroke-width:0" /><path
           id="path4633"
           d="m 533.36,412.82 0.06,0 0.07,0 0.14,0.01 0.14,0 0.07,0 0.07,0.01 0.07,0.01 0.06,0 0.07,0.01 0.07,0.02 0.07,0.01 0.06,0.02 0.07,0.02 0.06,0.02 0.06,0.02 0.05,0.03 0.06,0.03 0.05,0.04 0.05,0.04 0.05,0.04 0.04,0.05 0.02,0.02 0.02,0.03 0.02,0.02 0.02,0.03 0.01,0.03 0.02,0.03 0.01,0.03 0.01,0.03 0.02,0.04 0.01,0.03 0.01,0.04 0.01,0.04 0,0.04 0.01,0.04 0,0.04 0.01,0.04 0,0.05 0,0.04 c 0,1 -0.95,1 -1.69,1 l -29.75,0 c -0.75,0 -1.68,0 -1.68,-1 0,-1 0.93,-1 1.64,-1 z"
           inkscape:connector-curvature="0"
           style="fill:#000000;stroke-width:0" /><path
           id="path4635"
           d="m 570.21,425.03 -0.08,0.17 -0.09,0.17 -0.09,0.16 -0.1,0.16 -0.1,0.16 -0.1,0.16 -0.11,0.15 -0.11,0.14 -0.11,0.15 -0.12,0.13 -0.12,0.14 -0.12,0.13 -0.13,0.12 -0.13,0.12 -0.13,0.11 -0.14,0.11 -0.15,0.11 -0.14,0.09 -0.16,0.1 -0.15,0.08 -0.16,0.08 -0.16,0.08 -0.17,0.06 -0.17,0.07 -0.18,0.05 -0.18,0.05 -0.19,0.04 -0.19,0.03 -0.19,0.03 -0.2,0.02 -0.2,0.01 -0.21,0 0.05,-1.09 c 3.23,0 3.94,-4.08 3.94,-4.37 0,-0.32 -0.1,-0.61 -0.14,-0.86 l -2.5,-9.77 c -0.25,-0.89 -0.25,-0.98 -1,-1.84 -2.19,-2.74 -4.24,-3.53 -5.63,-3.53 -2.48,0 -3.19,2.73 -3.19,4.68 0,2.49 1.6,8.61 2.74,10.91 1.55,2.94 3.8,4.78 5.78,4.78 l -0.05,1.09 c -5.83,0 -12,-7.31 -12,-14.59 0,-4.69 2.74,-7.97 6.63,-7.97 0.98,0 3.48,0.21 6.47,3.74 0.4,-2.1 2.14,-3.74 4.53,-3.74 1.75,0 2.89,1.14 3.69,2.74 0.84,1.79 1.5,4.84 1.5,4.93 0,0.5 -0.46,0.5 -0.6,0.5 -0.5,0 -0.55,-0.2 -0.7,-0.9 -0.85,-3.24 -1.75,-6.17 -3.78,-6.17 -1.35,0 -1.5,1.29 -1.5,2.29 0,1.1 0.09,1.49 0.64,3.69 0.56,2.09 0.65,2.59 1.11,4.48 l 1.78,6.97 c 0.36,1.39 0.36,1.5 0.36,1.69 0,0.86 -0.61,1.36 -1.46,1.36 -1.18,0 -1.93,-1.11 -2.09,-2.2 z"
           inkscape:connector-curvature="0"
           style="fill:#000000;stroke-width:0" /><path
           id="path4637"
           d="m 597.65,425.14 -0.15,0 -0.15,0 -0.14,-0.01 -0.15,0 -0.14,-0.01 -0.14,-0.02 -0.07,-0.01 -0.07,-0.01 -0.06,-0.02 -0.07,-0.01 -0.07,-0.02 -0.07,-0.02 -0.07,-0.02 -0.06,-0.02 -0.07,-0.03 -0.07,-0.03 -0.06,-0.03 -0.07,-0.04 -0.07,-0.04 -0.06,-0.04 -0.07,-0.05 -0.06,-0.04 -0.07,-0.06 -0.07,-0.05 -0.06,-0.06 -0.07,-0.07 c -0.79,-0.75 -0.89,-1.59 -0.89,-1.93 0,-1.21 0.89,-1.75 1.85,-1.75 1.43,0 2.79,1.2 2.79,3.18 0,2.44 -2.34,4.28 -5.89,4.28 -6.72,0 -13.34,-7.12 -13.34,-14.14 0,-4.48 2.89,-8.42 8.06,-8.42 7.13,0 11.31,5.28 11.31,5.88 0,0.29 -0.3,0.65 -0.59,0.65 -0.25,0 -0.34,-0.11 -0.66,-0.5 -3.93,-4.93 -9.36,-4.93 -9.95,-4.93 -3.14,0 -4.48,2.43 -4.48,5.43 0,2.03 0.98,6.88 2.68,9.96 1.55,2.84 4.28,4.98 7.02,4.98 1.7,0 3.59,-0.64 4.3,-1.98 z"
           inkscape:connector-curvature="0"
           style="fill:#000000;stroke-width:0" /><path
           id="path4639"
           d="m 622.87,419.79 -0.01,0.48 -0.03,0.47 -0.05,0.46 -0.07,0.44 -0.09,0.44 -0.1,0.42 -0.13,0.4 -0.14,0.4 -0.15,0.38 -0.18,0.36 -0.19,0.36 -0.2,0.34 -0.22,0.32 -0.24,0.31 -0.24,0.3 -0.27,0.28 -0.27,0.26 -0.29,0.25 -0.3,0.24 -0.31,0.22 -0.32,0.2 -0.34,0.19 -0.34,0.17 -0.35,0.15 -0.37,0.13 -0.37,0.12 -0.38,0.1 -0.39,0.09 -0.4,0.06 -0.4,0.05 -0.41,0.03 -0.42,0 -0.05,-1.09 c 2.89,0 4.39,-2.39 4.39,-5.37 0,-1.96 -1,-7.18 -2.89,-10.43 -1.75,-2.89 -4.48,-4.57 -6.78,-4.57 l 0,0 c -2.14,0 -4.33,1.54 -4.33,5.43 0,2.44 1.3,7.82 2.89,10.36 2.49,3.83 5.33,4.58 6.72,4.58 l 0.05,1.09 c -6.67,0 -13.35,-7.06 -13.35,-14.14 0,-4.93 3.33,-8.42 7.97,-8.42 6.63,0 13.35,6.88 13.35,14.14 z"
           inkscape:connector-curvature="0"
           style="fill:#000000;stroke-width:0" /><path
           id="path4641"
           d="m 643.11,424.84 -0.13,-0.01 -0.13,-0.01 -0.12,-0.02 -0.13,-0.03 -0.12,-0.03 -0.11,-0.04 -0.12,-0.04 -0.11,-0.04 -0.1,-0.05 -0.11,-0.06 -0.1,-0.06 -0.1,-0.06 -0.09,-0.07 -0.09,-0.07 -0.08,-0.07 -0.08,-0.08 -0.08,-0.08 -0.07,-0.08 -0.07,-0.09 -0.07,-0.08 -0.06,-0.09 -0.05,-0.1 -0.05,-0.09 -0.05,-0.1 -0.04,-0.09 -0.03,-0.1 -0.03,-0.1 -0.03,-0.1 -0.02,-0.1 -0.01,-0.11 -0.01,-0.1 0,-0.1 c 0,-0.7 0.44,-1.44 1.55,-1.44 1.09,0 2.28,0.85 2.28,2.78 0,2.25 -2.14,4.28 -5.93,4.28 -6.57,0 -8.42,-5.07 -8.42,-7.26 0,-3.89 3.69,-4.64 5.13,-4.94 2.59,-0.5 5.19,-1.05 5.19,-3.78 0,-1.3 -1.14,-5.48 -7.13,-5.48 -0.7,0 -4.53,0 -5.69,2.64 1.91,-0.25 3.14,1.25 3.14,2.64 0,1.14 -0.79,1.75 -1.84,1.75 -1.3,0 -2.78,-1.05 -2.78,-3.3 0,-2.84 2.84,-4.83 7.12,-4.83 8.07,0 10.02,6.03 10.02,8.27 0,1.79 -0.95,3.04 -1.55,3.64 -1.34,1.39 -2.79,1.64 -4.98,2.09 -1.8,0.39 -3.78,0.75 -3.78,2.99 0,1.45 1.18,4.48 5.57,4.48 1.24,0 3.74,-0.34 4.49,-2.28 z"
           inkscape:connector-curvature="0"
           style="fill:#000000;stroke-width:0" /><path
           id="path4643"
           d="m 663.51,394.25 0,0.02 0,0.03 -0.01,0.01 0,0.02 0,0.01 -0.01,0.02 0,0.01 -0.01,0.02 -0.01,0.02 -0.01,0.02 -0.01,0.02 -0.01,0.03 -0.02,0.02 -0.02,0.03 -0.02,0.03 -0.02,0.03 -0.03,0.03 -0.03,0.04 -0.01,0.02 -0.02,0.02 -0.02,0.02 -0.02,0.02 -0.02,0.02 -0.02,0.03 -0.02,0.02 -0.02,0.02 -0.02,0.03 -0.02,0.02 -0.03,0.03 -0.02,0.03 -0.03,0.03 -0.03,0.03 -0.03,0.03 -0.03,0.03 -0.03,0.03 -0.03,0.03 -0.03,0.04 -0.04,0.03 -0.03,0.04 -0.04,0.03 -0.04,0.04 -0.04,0.04 c -6.21,6.28 -7.81,15.69 -7.81,23.31 0,8.67 1.89,17.35 8.02,23.56 0.64,0.61 0.64,0.71 0.64,0.86 0,0.35 -0.19,0.49 -0.49,0.49 -0.5,0 -4.98,-3.38 -7.92,-9.7 -2.55,-5.49 -3.14,-11.02 -3.14,-15.21 0,-3.89 0.55,-9.9 3.28,-15.54 2.99,-6.13 7.28,-9.36 7.78,-9.36 0.3,0 0.49,0.14 0.49,0.5 z"
           inkscape:connector-curvature="0"
           style="fill:#000000;stroke-width:0" /><path
           id="path4645"
           d="m 680.64,440.23 0,0 0,0.01 0,0 0,0.01 0,0.02 -0.01,0.01 0,0.02 0,0.02 0,0.02 -0.01,0.02 0,0.02 -0.01,0.02 -0.01,0.02 -0.01,0.03 -0.01,0.02 -0.01,0.03 -0.01,0.02 -0.02,0.03 -0.02,0.02 -0.02,0.02 -0.02,0.03 -0.01,0.01 -0.01,0.01 -0.02,0.01 -0.01,0.01 -0.02,0.01 -0.01,0.01 -0.02,0.01 -0.01,0.01 -0.02,0.01 -0.02,0.01 -0.02,0 -0.02,0.01 -0.02,0.01 -0.02,0 -0.02,0.01 -0.02,0.01 -0.03,0 -0.02,0 -0.03,0.01 -0.02,0 -0.03,0 -0.03,0.01 -0.02,0 -0.03,0 c -1.16,0 -4.78,-0.41 -6.08,-0.5 -0.41,-0.05 -0.95,-0.1 -0.95,-1 0,-0.6 0.45,-0.6 1.2,-0.6 2.39,0 2.48,-0.34 2.48,-0.84 l -0.15,-1 -7.22,-28.7 c -0.21,-0.69 -0.21,-0.8 -0.21,-1.1 0,-1.14 1,-1.39 1.46,-1.39 0.79,0 1.59,0.6 1.84,1.3 l 0.94,3.78 1.11,4.48 c 0.3,1.1 0.59,2.19 0.84,3.35 0.09,0.3 0.5,1.94 0.55,2.23 0.14,0.46 1.69,3.25 3.39,4.6 1.09,0.79 2.64,1.73 4.78,1.73 2.14,0 2.69,-1.69 2.69,-3.48 0,-2.69 -1.89,-8.13 -3.1,-11.16 -0.39,-1.16 -0.64,-1.75 -0.64,-2.75 0,-2.33 1.74,-4.08 4.08,-4.08 4.69,0 6.53,7.27 6.53,7.67 0,0.5 -0.45,0.5 -0.59,0.5 -0.5,0 -0.5,-0.15 -0.75,-0.9 -0.75,-2.64 -2.35,-6.17 -5.08,-6.17 -0.86,0 -1.2,0.5 -1.2,1.64 0,1.25 0.45,2.45 0.9,3.54 0.8,2.14 3.03,8.07 3.03,10.96 0,3.23 -2,5.32 -5.73,5.32 -3.14,0 -5.53,-1.53 -7.37,-3.82 z"
           inkscape:connector-curvature="0"
           style="fill:#000000;stroke-width:0" /><path
           id="path4647"
           d="m 716.9,441.67 0.01,0.03 0.01,0.03 0.01,0.03 0.01,0.03 0.01,0.02 0.01,0.03 0.01,0.03 0.01,0.02 0.01,0.05 0.02,0.05 0.02,0.04 0.01,0.05 0.01,0.04 0.01,0.04 0.01,0.03 0.01,0.04 0.01,0.03 0.01,0.03 0.01,0.03 0,0.02 0.01,0.03 0,0.02 0.01,0.02 0,0.02 0,0.02 0.01,0.02 0,0.01 0,0.02 0,0.01 0,0.01 0,0.01 0,0.01 0,0.01 0,0.01 0.01,0.01 0,0 c 0,0.55 -0.46,0.99 -1,0.99 -0.35,0 -0.71,-0.14 -0.85,-0.44 L 698,395.64 c -0.25,-0.64 -0.25,-0.85 -0.25,-0.89 0,-0.55 0.46,-1 1,-1 0.66,0 0.8,0.34 1.1,1.18 z"
           inkscape:connector-curvature="0"
           style="fill:#000000;stroke-width:0" /><path
           id="path4649"
           d="m 745.84,423.14 0.47,0.11 0.48,0.12 0.48,0.14 0.48,0.15 0.48,0.16 0.49,0.18 0.47,0.19 0.48,0.2 0.47,0.22 0.47,0.23 0.45,0.24 0.45,0.25 0.44,0.27 0.43,0.28 0.42,0.29 0.4,0.3 0.39,0.31 0.37,0.32 0.35,0.34 0.34,0.35 0.32,0.35 0.29,0.37 0.28,0.38 0.25,0.39 0.22,0.4 0.2,0.41 0.17,0.42 0.14,0.43 0.12,0.44 0.08,0.45 0.05,0.46 0.02,0.47 c 0,4.28 -4.49,7.47 -11,7.47 l -14.2,0 c -1,0 -1.46,0 -1.46,-1 0,-0.55 0.46,-0.55 1.41,-0.55 0.09,0 1.05,0 1.89,-0.09 0.89,-0.11 1.34,-0.16 1.34,-0.8 0,-0.2 -0.04,-0.36 -0.2,-0.95 l -6.67,-26.75 c -0.5,-1.95 -0.6,-2.34 -4.53,-2.34 -0.91,0 -1.35,0 -1.35,-1 0,-0.55 0.6,-0.55 0.69,-0.55 1.41,0 4.89,0.16 6.28,0.16 1.39,0 4.94,-0.16 6.33,-0.16 0.41,0 1,0 1,1 0,0.55 -0.45,0.55 -1.39,0.55 -1.84,0 -3.25,0 -3.25,0.89 0,0.29 0.11,0.54 0.16,0.84 l 3.28,13.2 5.93,0 -0.04,1.11 -5.6,0 3.25,13 c 0.3,1.19 0.44,1.69 1.39,1.85 0.46,0.04 2.05,0.04 3.04,0.04 3.54,0 9.07,0 9.07,-4.93 0,-1.69 -0.79,-5.13 -2.75,-7.07 -1.28,-1.29 -3.92,-2.89 -8.4,-2.89 l 0.04,-1.11 c 4.54,0 5.43,-2.78 5.43,-4.53 0,-0.75 -0.39,-2.28 -0.69,-3.44 -0.36,-1.39 -0.8,-3.23 -0.8,-4.23 0,-5.37 5.97,-5.37 6.63,-5.37 4.23,0 5.97,5.03 5.97,5.73 0,0.59 -0.55,0.59 -0.6,0.59 -0.45,0 -0.54,-0.36 -0.64,-0.7 -1.25,-3.69 -3.39,-4.53 -4.55,-4.53 -1.64,0 -1.98,1.09 -1.98,3.05 0,1.53 0.3,4.07 0.5,5.67 0.09,0.7 0.2,1.64 0.2,2.34 0,3.83 -3.34,5.38 -4.68,5.88 z"
           inkscape:connector-curvature="0"
           style="fill:#000000;stroke-width:0" /><path
           id="path4651"
           d="m 772.53,418.65 0,0.37 -0.01,0.39 -0.01,0.39 -0.01,0.41 -0.04,0.84 -0.06,0.88 -0.08,0.92 -0.11,0.95 -0.13,0.97 -0.17,1.01 -0.19,1.02 -0.23,1.03 -0.27,1.05 -0.31,1.06 -0.35,1.07 -0.39,1.07 -0.21,0.53 -0.23,0.53 -0.23,0.53 -0.25,0.53 c -2.99,6.12 -7.27,9.36 -7.77,9.36 -0.3,0 -0.5,-0.19 -0.5,-0.49 0,-0.15 0,-0.25 0.94,-1.15 4.89,-4.92 7.73,-12.85 7.73,-23.27 0,-8.51 -1.84,-17.28 -8.03,-23.56 -0.64,-0.59 -0.64,-0.7 -0.64,-0.84 0,-0.3 0.2,-0.5 0.5,-0.5 0.5,0 4.97,3.39 7.92,9.71 2.53,5.47 3.13,11 3.13,15.19 z"
           inkscape:connector-curvature="0"
           style="fill:#000000;stroke-width:0" /></g>    </g>
    <g
       id="g5158"
       transform="translate(-253.89961,244.70868)">
      <g
         word-spacing="normal"
         letter-spacing="normal"
         font-size-adjust="none"
         font-stretch="normal"
         font-weight="normal"
         font-variant="normal"
         font-style="normal"
         stroke-miterlimit="10.433"
         xml:space="preserve"
         transform="matrix(1.0629921,0,0,-1.0629921,-186.02362,789.27165)"
         id="g5160"
         style="font-style:normal;font-variant:normal;font-weight:normal;font-stretch:normal;letter-spacing:normal;word-spacing:normal;text-anchor:start;fill:none;fill-opacity:1;fill-rule:evenodd;stroke:#000000;stroke-linecap:butt;stroke-linejoin:miter;stroke-miterlimit:10.43299961;stroke-dasharray:none;stroke-dashoffset:0;stroke-opacity:1"><path
           id="path5162"
           d="m 481.22,440.23 0,0 0,0.01 0,0 0,0.01 0,0.02 0,0.01 0,0.02 0,0.02 -0.01,0.02 0,0.02 -0.01,0.02 0,0.02 -0.01,0.02 -0.01,0.03 -0.01,0.02 -0.01,0.03 -0.02,0.02 -0.01,0.03 -0.02,0.02 -0.02,0.02 -0.02,0.03 -0.02,0.01 -0.01,0.01 -0.01,0.01 -0.02,0.01 -0.01,0.01 -0.02,0.01 -0.01,0.01 -0.02,0.01 -0.01,0.01 -0.02,0.01 -0.02,0 -0.02,0.01 -0.02,0.01 -0.02,0 -0.02,0.01 -0.03,0.01 -0.02,0 -0.02,0 -0.03,0.01 -0.03,0 -0.02,0 -0.03,0.01 -0.03,0 -0.03,0 c -0.75,0 -5.48,-0.46 -6.33,-0.55 -0.4,-0.05 -0.7,-0.3 -0.7,-0.95 0,-0.6 0.45,-0.6 1.2,-0.6 2.39,0 2.49,-0.34 2.49,-0.84 l -0.14,-1 -3,-11.81 c -0.89,1.84 -2.35,3.18 -4.58,3.18 l 0.05,-1.09 c 3.23,0 3.93,-4.08 3.93,-4.37 0,-0.32 -0.09,-0.61 -0.14,-0.86 l -2.5,-9.77 c -0.25,-0.89 -0.25,-0.98 -1,-1.84 -2.18,-2.74 -4.23,-3.53 -5.62,-3.53 -2.49,0 -3.19,2.73 -3.19,4.68 0,2.49 1.59,8.61 2.74,10.91 1.54,2.94 3.79,4.78 5.78,4.78 l -0.05,1.09 c -5.83,0 -12,-7.31 -12,-14.59 0,-4.69 2.73,-7.97 6.62,-7.97 0.99,0 3.49,0.21 6.47,3.74 0.41,-2.1 2.14,-3.74 4.53,-3.74 1.75,0 2.9,1.14 3.69,2.74 0.85,1.79 1.5,4.84 1.5,4.93 0,0.5 -0.45,0.5 -0.59,0.5 -0.5,0 -0.55,-0.2 -0.7,-0.9 -0.85,-3.24 -1.75,-6.17 -3.79,-6.17 -1.34,0 -1.5,1.29 -1.5,2.29 0,1.19 0.1,1.55 0.3,2.39 z"
           inkscape:connector-curvature="0"
           style="fill:#000000;stroke-width:0" /><path
           id="path5164"
           d="m 483.67,400.12 -0.03,-0.15 -0.04,-0.15 -0.03,-0.14 -0.04,-0.13 -0.03,-0.13 -0.03,-0.11 -0.04,-0.12 -0.03,-0.1 -0.04,-0.1 -0.04,-0.09 -0.04,-0.09 -0.05,-0.08 -0.05,-0.07 -0.05,-0.07 -0.06,-0.07 -0.06,-0.06 -0.07,-0.05 -0.07,-0.05 -0.08,-0.04 -0.09,-0.04 -0.09,-0.04 -0.1,-0.03 -0.11,-0.03 -0.12,-0.02 -0.13,-0.02 -0.06,-0.01 -0.07,-0.01 -0.07,-0.01 -0.08,-0.01 -0.07,0 -0.08,-0.01 -0.09,0 -0.08,-0.01 -0.09,0 -0.09,0 -0.09,0 -0.1,0 -0.09,-0.01 -0.11,0 c -0.59,0 -1.14,0 -1.14,-0.93 0,-0.41 0.25,-0.61 0.64,-0.61 1.36,0 2.8,0.15 4.19,0.15 1.64,0 3.35,-0.15 4.94,-0.15 0.25,0 0.89,0 0.89,1 0,0.54 -0.5,0.54 -1.19,0.54 -2.5,0 -2.5,0.36 -2.5,0.8 0,0.61 2.1,8.72 2.46,9.97 0.64,-1.44 2.03,-3.19 4.57,-3.19 l -0.04,1.1 c -3.3,0 -3.94,4.14 -3.94,4.43 0,0.1 0,0.21 0.14,0.8 l 2.45,9.77 c 0.35,1.34 1.69,2.73 2.58,3.48 1.75,1.55 3.2,1.89 4.05,1.89 1.98,0 3.19,-1.73 3.19,-4.69 0,-2.93 -1.65,-8.65 -2.55,-10.56 -1.69,-3.48 -4.08,-5.12 -5.92,-5.12 l 0.04,-1.1 c 5.78,0 12,7.27 12,14.6 0,4.68 -2.82,7.96 -6.62,7.96 -2.49,0 -4.88,-1.78 -6.52,-3.73 -0.5,2.69 -2.64,3.73 -4.48,3.73 -2.3,0 -3.25,-1.93 -3.69,-2.82 -0.91,-1.71 -1.55,-4.69 -1.55,-4.85 0,-0.5 0.5,-0.5 0.6,-0.5 0.5,0 0.54,0.07 0.84,1.16 0.86,3.53 1.85,5.92 3.64,5.92 0.85,0 1.55,-0.39 1.55,-2.28 0,-1.16 -0.16,-1.7 -0.34,-2.55 z"
           inkscape:connector-curvature="0"
           style="fill:#000000;stroke-width:0" /><path
           id="path5166"
           d="m 554.67,422.5 0.14,0 0.15,0 0.14,0 0.07,0.01 0.08,0 0.07,0.01 0.07,0.01 0.07,0.01 0.07,0.01 0.07,0.01 0.06,0.02 0.07,0.02 0.06,0.02 0.06,0.02 0.06,0.03 0.06,0.03 0.05,0.04 0.05,0.03 0.05,0.05 0.04,0.04 0.04,0.05 0.02,0.03 0.01,0.03 0.02,0.02 0.02,0.03 0.01,0.03 0.01,0.04 0.02,0.03 0.01,0.04 0.01,0.03 0,0.04 0.01,0.04 0.01,0.04 0,0.04 0.01,0.04 0,0.04 0,0.05 c 0,1 -0.95,1 -1.64,1 l -29.84,0 c -0.71,0 -1.65,0 -1.65,-1 0,-0.98 0.94,-0.98 1.69,-0.98 z"
           inkscape:connector-curvature="0"
           style="fill:#000000;stroke-width:0" /><path
           id="path5168"
           d="m 554.72,412.82 0.06,0 0.07,0 0.14,0.01 0.14,0 0.07,0 0.07,0.01 0.06,0.01 0.07,0 0.07,0.01 0.07,0.02 0.07,0.01 0.06,0.02 0.06,0.02 0.07,0.02 0.06,0.02 0.05,0.03 0.06,0.03 0.05,0.04 0.05,0.04 0.05,0.04 0.04,0.05 0.02,0.02 0.02,0.03 0.02,0.02 0.01,0.03 0.02,0.03 0.02,0.03 0.01,0.03 0.01,0.03 0.02,0.04 0.01,0.03 0.01,0.04 0,0.04 0.01,0.04 0.01,0.04 0,0.04 0.01,0.04 0,0.05 0,0.04 c 0,1 -0.95,1 -1.69,1 l -29.75,0 c -0.75,0 -1.69,0 -1.69,-1 0,-1 0.94,-1 1.65,-1 z"
           inkscape:connector-curvature="0"
           style="fill:#000000;stroke-width:0" /><path
           id="path5170"
           d="m 596.01,423.09 0.02,0.1 0.03,0.11 0.02,0.12 0.03,0.11 0.03,0.12 0.03,0.12 0.06,0.25 0.06,0.25 0.07,0.25 0.06,0.24 0.06,0.25 0.03,0.11 0.02,0.12 0.03,0.11 0.03,0.11 0.02,0.1 0.02,0.1 0.03,0.1 0.02,0.09 0.01,0.08 0.02,0.08 0.01,0.07 0.02,0.06 0.01,0.06 0,0.05 0.01,0.04 0,0.03 c 0,0.91 -0.71,1.35 -1.46,1.35 -0.59,0 -1.48,-0.39 -1.82,-1.39 -0.16,-0.35 -2.5,-9.86 -2.85,-11.16 -0.36,-1.5 -0.45,-2.39 -0.45,-3.3 0,-0.54 0,-0.64 0.05,-0.89 -1.14,-2.64 -2.64,-4.18 -4.58,-4.18 -3.99,0 -3.99,3.68 -3.99,4.53 0,1.59 0.25,3.54 2.6,9.67 0.54,1.48 0.84,2.19 0.84,3.19 0,2.23 -1.64,4.07 -4.09,4.07 -4.74,0 -6.58,-7.21 -6.58,-7.67 0,-0.5 0.5,-0.5 0.61,-0.5 0.5,0 0.55,0.11 0.8,0.91 1.34,4.62 3.28,6.17 5.03,6.17 0.43,0 1.25,-0.05 1.25,-1.64 0,-1.25 -0.57,-2.64 -0.91,-3.48 -2.19,-5.88 -2.78,-8.18 -2.78,-10.07 0,-4.53 3.33,-6.28 7.06,-6.28 0.86,0 3.19,0 5.19,3.49 1.3,-3.19 4.73,-3.49 6.23,-3.49 3.74,0 5.93,3.14 7.22,6.13 1.69,3.89 3.28,10.56 3.28,12.95 0,2.75 -1.34,3.48 -2.18,3.48 -1.25,0 -2.49,-1.29 -2.49,-2.39 0,-0.64 0.3,-0.93 0.74,-1.34 0.54,-0.55 1.79,-1.84 1.79,-4.23 0,-1.69 -1.43,-6.58 -2.73,-9.11 -1.3,-2.64 -3.05,-4.39 -5.49,-4.39 -2.34,0 -3.68,1.5 -3.68,4.32 0,1.41 0.34,2.96 0.54,3.64 z"
           inkscape:connector-curvature="0"
           style="fill:#000000;stroke-width:0" /><path
           id="path5172"
           d="m 636.87,415.87 0.11,-0.02 0.13,-0.02 0.14,-0.03 0.16,-0.04 0.17,-0.04 0.18,-0.04 0.19,-0.05 0.19,-0.06 0.21,-0.06 0.21,-0.07 0.21,-0.08 0.22,-0.08 0.22,-0.1 0.23,-0.1 0.22,-0.11 0.22,-0.12 0.21,-0.14 0.21,-0.14 0.21,-0.15 0.2,-0.16 0.19,-0.18 0.18,-0.19 0.17,-0.2 0.15,-0.21 0.15,-0.22 0.06,-0.12 0.06,-0.12 0.06,-0.13 0.06,-0.12 0.05,-0.14 0.04,-0.13 0.04,-0.14 0.04,-0.14 0.03,-0.15 0.02,-0.15 0.02,-0.16 0.02,-0.15 0.01,-0.17 0,-0.16 c 0,-2.53 -1.75,-4.53 -5.63,-4.53 -4.18,0 -5.98,2.84 -6.93,7.07 -0.15,0.64 -0.19,0.85 -0.69,0.85 -0.66,0 -0.66,-0.35 -0.66,-1.25 l 0,-6.58 c 0,-0.84 0,-1.19 0.55,-1.19 0.25,0 0.3,0.05 1.25,1 0.09,0.1 0.09,0.19 1,1.14 2.19,-2.09 4.44,-2.14 5.48,-2.14 5.72,0 8.02,3.35 8.02,6.92 0,2.64 -1.5,4.14 -2.1,4.74 -1.63,1.59 -3.59,2 -5.68,2.39 -2.78,0.55 -6.13,1.2 -6.13,4.09 0,1.74 1.3,3.78 5.58,3.78 5.48,0 5.73,-4.48 5.83,-6.03 0.06,-0.45 0.5,-0.45 0.61,-0.45 0.64,0 0.64,0.25 0.64,1.2 l 0,5.03 c 0,0.85 0,1.19 -0.55,1.19 -0.25,0 -0.34,0 -1,-0.59 -0.14,-0.21 -0.64,-0.64 -0.84,-0.8 -1.89,1.39 -3.94,1.39 -4.69,1.39 -6.08,0 -7.97,-3.33 -7.97,-6.12 0,-1.74 0.8,-3.14 2.14,-4.24 1.6,-1.29 3,-1.59 6.58,-2.28 z"
           inkscape:connector-curvature="0"
           style="fill:#000000;stroke-width:0" /><path
           id="path5174"
           d="m 655,428.21 -6.97,-0.54 0,-1.55 c 3.24,0 3.69,-0.3 3.69,-2.73 l 0,-13.41 c 0,-2.23 -0.54,-2.23 -3.89,-2.23 l 0,-1.55 c 1.6,0.05 4.28,0.16 5.49,0.16 1.75,0 3.48,-0.11 5.18,-0.16 l 0,1.55 c -3.29,0 -3.5,0.25 -3.5,2.18 z"
           inkscape:connector-curvature="0"
           style="fill:#000000;stroke-width:0" /><path
           id="path5176"
           d="m 655.21,436.89 -0.01,0.14 -0.01,0.15 -0.02,0.14 -0.02,0.14 -0.03,0.13 -0.04,0.13 -0.04,0.13 -0.05,0.12 -0.05,0.12 -0.07,0.12 -0.06,0.11 -0.07,0.1 -0.08,0.1 -0.08,0.1 -0.08,0.1 -0.09,0.08 -0.1,0.09 -0.09,0.08 -0.1,0.07 -0.11,0.07 -0.1,0.07 -0.12,0.06 -0.11,0.05 -0.11,0.05 -0.12,0.04 -0.12,0.04 -0.13,0.03 -0.12,0.03 -0.13,0.02 -0.13,0.01 -0.12,0.01 -0.13,0.01 c -1.55,0 -2.64,-1.35 -2.64,-2.64 0,-1.35 1.09,-2.64 2.64,-2.64 1.39,0 2.64,1.04 2.64,2.64 z"
           inkscape:connector-curvature="0"
           style="fill:#000000;stroke-width:0" /><path
           id="path5178"
           d="m 665.47,423.34 0,-13.36 c 0,-2.23 -0.54,-2.23 -3.89,-2.23 l 0,-1.55 c 1.75,0.05 4.28,0.16 5.63,0.16 1.29,0 3.89,-0.11 5.57,-0.16 l 0,1.55 c -3.32,0 -3.87,0 -3.87,2.23 l 0,9.17 c 0,5.19 3.53,7.97 6.72,7.97 3.14,0 3.69,-2.69 3.69,-5.53 l 0,-11.61 c 0,-2.23 -0.55,-2.23 -3.89,-2.23 l 0,-1.55 c 1.75,0.05 4.29,0.16 5.64,0.16 1.29,0 3.87,-0.11 5.58,-0.16 l 0,1.55 c -2.6,0 -3.85,0 -3.9,1.5 l 0,9.51 c 0,4.28 0,5.83 -1.54,7.61 -0.69,0.86 -2.35,1.84 -5.22,1.84 -3.64,0 -5.99,-2.14 -7.38,-5.21 l 0,5.21 -7.03,-0.54 0,-1.55 c 3.49,0 3.89,-0.34 3.89,-2.78 z"
           inkscape:connector-curvature="0"
           style="fill:#000000;stroke-width:0" /><path
           id="path5180"
           d="m 718.66,431.11 -0.01,0.31 -0.01,0.34 -0.01,0.36 -0.02,0.37 -0.03,0.39 -0.04,0.39 -0.05,0.41 -0.05,0.41 -0.07,0.42 -0.08,0.43 -0.09,0.42 -0.1,0.43 -0.11,0.42 -0.13,0.42 -0.14,0.41 -0.15,0.41 -0.17,0.4 -0.19,0.38 -0.2,0.37 -0.21,0.36 -0.24,0.34 -0.25,0.32 -0.27,0.3 -0.29,0.27 -0.31,0.25 -0.16,0.12 -0.17,0.1 -0.17,0.1 -0.18,0.1 -0.18,0.08 -0.19,0.08 -0.2,0.07 -0.2,0.06 -0.2,0.05 -0.21,0.05 -0.22,0.03 -0.22,0.02 -0.23,0.02 -0.24,0 -0.05,-1.09 c 2.44,0 2.74,-3.19 2.74,-6.03 0,-2.44 -0.39,-4.99 -1.59,-9.92 l -10.41,0 c 0.84,3.2 1.84,7.18 3.83,10.72 1.36,2.43 3.19,5.23 5.43,5.23 l 0.05,1.09 c -6.92,0 -14.59,-14.04 -14.59,-25.45 0,-4.69 1.44,-10.22 5.98,-10.22 l 0,1.1 c -1.65,0 -2.7,1.45 -2.7,6.07 0,2.1 0.3,4.99 1.59,9.86 l 10.38,0 c -0.55,-2.28 -1.6,-6.51 -3.5,-10.11 -1.74,-3.39 -3.63,-5.82 -5.77,-5.82 l 0,-1.1 c 7.02,0 14.6,14.3 14.6,25.46 z"
           inkscape:connector-curvature="0"
           style="fill:#000000;stroke-width:0" /></g>    </g>
    <path
       style="fill:none;fill-rule:evenodd;stroke:#000000;stroke-width:1px;stroke-linecap:butt;stroke-linejoin:miter;stroke-opacity:1"
       d="m 517.31288,566.0881 c 3.11657,13.91279 5.40386,27.64129 -8.86822,37.68994"
       id="path4388"
       inkscape:connector-curvature="0"
       sodipodi:nodetypes="cc" />
    <path
       style="fill:none;fill-rule:evenodd;stroke:#000000;stroke-width:1px;stroke-linecap:butt;stroke-linejoin:miter;stroke-opacity:1"
       d="m 35.472883,666.5946 321.473007,0"
       id="path4390"
       inkscape:connector-curvature="0" />
  </g>
  <g
     transform="translate(-266.53715,-281.47242)"
     id="g4984">
    <g
       style="font-style:normal;font-variant:normal;font-weight:normal;font-stretch:normal;letter-spacing:normal;word-spacing:normal;text-anchor:start;fill:none;fill-opacity:1;fill-rule:evenodd;stroke:#000000;stroke-linecap:butt;stroke-linejoin:miter;stroke-miterlimit:10.43299961;stroke-dasharray:none;stroke-dashoffset:0;stroke-opacity:1"
       id="g4986"
       transform="matrix(1.0629921,0,0,-1.0629921,-186.02362,789.27165)"
       xml:space="preserve"
       stroke-miterlimit="10.433"
       font-style="normal"
       font-variant="normal"
       font-weight="normal"
       font-stretch="normal"
       font-size-adjust="none"
       letter-spacing="normal"
       word-spacing="normal"><path
         style="fill:#000000;stroke-width:0"
         inkscape:connector-curvature="0"
         d="m 481.22,440.23 0,0 0,0.01 0,0 0,0.01 0,0.02 0,0.01 0,0.02 0,0.02 -0.01,0.02 0,0.02 -0.01,0.02 0,0.02 -0.01,0.02 -0.01,0.03 -0.01,0.02 -0.01,0.03 -0.02,0.02 -0.01,0.03 -0.02,0.02 -0.02,0.02 -0.02,0.03 -0.02,0.01 -0.01,0.01 -0.01,0.01 -0.02,0.01 -0.01,0.01 -0.02,0.01 -0.01,0.01 -0.02,0.01 -0.01,0.01 -0.02,0.01 -0.02,0 -0.02,0.01 -0.02,0.01 -0.02,0 -0.02,0.01 -0.03,0.01 -0.02,0 -0.02,0 -0.03,0.01 -0.03,0 -0.02,0 -0.03,0.01 -0.03,0 -0.03,0 c -0.75,0 -5.48,-0.46 -6.33,-0.55 -0.4,-0.05 -0.7,-0.3 -0.7,-0.95 0,-0.6 0.45,-0.6 1.2,-0.6 2.39,0 2.49,-0.34 2.49,-0.84 l -0.14,-1 -3,-11.81 c -0.89,1.84 -2.35,3.18 -4.58,3.18 l 0.05,-1.09 c 3.23,0 3.93,-4.08 3.93,-4.37 0,-0.32 -0.09,-0.61 -0.14,-0.86 l -2.5,-9.77 c -0.25,-0.89 -0.25,-0.98 -1,-1.84 -2.18,-2.74 -4.23,-3.53 -5.62,-3.53 -2.49,0 -3.19,2.73 -3.19,4.68 0,2.49 1.59,8.61 2.74,10.91 1.54,2.94 3.79,4.78 5.78,4.78 l -0.05,1.09 c -5.83,0 -12,-7.31 -12,-14.59 0,-4.69 2.73,-7.97 6.62,-7.97 0.99,0 3.49,0.21 6.47,3.74 0.41,-2.1 2.14,-3.74 4.53,-3.74 1.75,0 2.9,1.14 3.69,2.74 0.85,1.79 1.5,4.84 1.5,4.93 0,0.5 -0.45,0.5 -0.59,0.5 -0.5,0 -0.55,-0.2 -0.7,-0.9 -0.85,-3.24 -1.75,-6.17 -3.79,-6.17 -1.34,0 -1.5,1.29 -1.5,2.29 0,1.19 0.1,1.55 0.3,2.39 z"
         id="path4988" /><path
         style="fill:#000000;stroke-width:0"
         inkscape:connector-curvature="0"
         d="m 498.08,421.25 0.03,0.13 0.03,0.15 0.05,0.16 0.04,0.18 0.05,0.19 0.06,0.21 0.07,0.22 0.07,0.22 0.08,0.23 0.09,0.24 0.1,0.25 0.1,0.24 0.11,0.25 0.12,0.25 0.13,0.25 0.14,0.25 0.14,0.24 0.16,0.24 0.17,0.23 0.17,0.22 0.19,0.22 0.2,0.2 0.21,0.19 0.22,0.18 0.23,0.16 0.25,0.14 0.12,0.07 0.13,0.06 0.14,0.05 0.13,0.05 0.14,0.05 0.14,0.04 0.15,0.03 0.15,0.03 0.15,0.02 0.15,0.02 0.16,0.01 0.17,0 c 0.25,0 1.43,0 2.48,-0.64 -1.39,-0.25 -2.39,-1.5 -2.39,-2.69 0,-0.79 0.55,-1.75 1.89,-1.75 1.09,0 2.69,0.89 2.69,2.89 0,2.6 -2.94,3.28 -4.63,3.28 -2.89,0 -4.64,-2.64 -5.23,-3.78 -1.25,3.28 -3.94,3.78 -5.38,3.78 -5.18,0 -8.03,-6.42 -8.03,-7.67 0,-0.5 0.5,-0.5 0.61,-0.5 0.39,0 0.55,0.11 0.64,0.55 1.69,5.28 4.99,6.53 6.67,6.53 0.96,0 2.69,-0.44 2.69,-3.33 0,-1.54 -0.84,-4.89 -2.69,-11.86 -0.79,-3.09 -2.53,-5.18 -4.73,-5.18 -0.3,0 -1.44,0 -2.49,0.65 1.26,0.24 2.35,1.28 2.35,2.69 0,1.34 -1.09,1.73 -1.85,1.73 -1.5,0 -2.74,-1.29 -2.74,-2.89 0,-2.28 2.5,-3.28 4.68,-3.28 3.3,0 5.08,3.49 5.24,3.78 0.59,-1.84 2.39,-3.78 5.37,-3.78 5.14,0 7.99,6.42 7.99,7.67 0,0.5 -0.46,0.5 -0.61,0.5 -0.44,0 -0.55,-0.2 -0.64,-0.54 -1.64,-5.33 -5.03,-6.53 -6.63,-6.53 -1.95,0 -2.75,1.59 -2.75,3.29 0,1.1 0.3,2.19 0.86,4.38 z"
         id="path4990" /><path
         style="fill:#000000;stroke-width:0"
         inkscape:connector-curvature="0"
         d="m 558.03,422.5 0.14,0 0.14,0 0.15,0 0.07,0.01 0.07,0 0.08,0.01 0.07,0.01 0.07,0.01 0.07,0.01 0.07,0.01 0.06,0.02 0.07,0.02 0.06,0.02 0.06,0.02 0.06,0.03 0.06,0.03 0.05,0.04 0.05,0.03 0.05,0.05 0.04,0.04 0.04,0.05 0.02,0.03 0.01,0.03 0.02,0.02 0.02,0.03 0.01,0.03 0.01,0.04 0.02,0.03 0.01,0.04 0.01,0.03 0,0.04 0.01,0.04 0.01,0.04 0,0.04 0.01,0.04 0,0.04 0,0.05 c 0,1 -0.95,1 -1.64,1 l -29.85,0 c -0.7,0 -1.64,0 -1.64,-1 0,-0.98 0.94,-0.98 1.69,-0.98 z"
         id="path4992" /><path
         style="fill:#000000;stroke-width:0"
         inkscape:connector-curvature="0"
         d="m 558.08,412.82 0.06,0 0.07,0 0.14,0.01 0.13,0 0.07,0 0.07,0.01 0.07,0.01 0.07,0 0.07,0.01 0.07,0.02 0.07,0.01 0.06,0.02 0.06,0.02 0.07,0.02 0.06,0.02 0.05,0.03 0.06,0.03 0.05,0.04 0.05,0.04 0.05,0.04 0.04,0.05 0.02,0.02 0.02,0.03 0.02,0.02 0.01,0.03 0.02,0.03 0.02,0.03 0.01,0.03 0.01,0.03 0.02,0.04 0.01,0.03 0.01,0.04 0,0.04 0.01,0.04 0.01,0.04 0,0.04 0.01,0.04 0,0.05 0,0.04 c 0,1 -0.95,1 -1.69,1 l -29.75,0 c -0.75,0 -1.69,0 -1.69,-1 0,-1 0.94,-1 1.64,-1 z"
         id="path4994" /><path
         style="fill:#000000;stroke-width:0"
         inkscape:connector-curvature="0"
         d="m 590.99,438.09 0,0.05 0,0.06 0,0.05 0,0.05 0,0.05 0,0.05 0,0.04 0,0.05 0,0.04 0,0.04 0,0.04 -0.01,0.04 0,0.04 0,0.03 0,0.04 -0.01,0.03 0,0.07 -0.01,0.06 -0.01,0.05 -0.02,0.05 -0.01,0.05 -0.02,0.04 -0.03,0.04 -0.02,0.03 -0.03,0.03 -0.03,0.03 -0.04,0.03 -0.04,0.02 -0.04,0.02 -0.02,0.01 -0.03,0.01 -0.02,0 -0.03,0.01 -0.03,0.01 -0.03,0 -0.03,0.01 -0.03,0 -0.03,0.01 -0.04,0 -0.04,0 -0.03,0.01 -0.04,0 -0.04,0 -0.04,0 -0.05,0 -0.04,0 -0.05,0.01 -0.05,0 -0.04,0 -0.06,0 -0.05,0 c -3.09,-3.19 -7.47,-3.19 -9.06,-3.19 l 0,-1.55 c 1,0 3.94,0 6.51,1.3 l 0,-25.81 c 0,-1.8 -0.14,-2.39 -4.62,-2.39 l -1.59,0 0,-1.55 c 1.75,0.16 6.07,0.16 8.06,0.16 2,0 6.33,0 8.08,-0.16 l 0,1.55 -1.6,0 c -4.48,0 -4.64,0.54 -4.64,2.39 z"
         id="path4996" /><path
         style="fill:#000000;stroke-width:0"
         inkscape:connector-curvature="0"
         d="m 623.18,441.67 0.02,0.03 0.01,0.03 0.01,0.03 0.01,0.03 0.01,0.02 0.01,0.03 0.01,0.03 0.01,0.02 0.01,0.05 0.02,0.05 0.01,0.04 0.02,0.05 0.01,0.04 0.01,0.04 0.01,0.03 0.01,0.04 0.01,0.03 0.01,0.03 0.01,0.03 0,0.02 0.01,0.03 0,0.02 0.01,0.02 0,0.02 0,0.02 0.01,0.02 0,0.01 0,0.02 0,0.01 0,0.01 0,0.01 0,0.01 0,0.01 0,0.01 0,0.01 0,0 c 0,0.55 -0.45,0.99 -1,0.99 -0.34,0 -0.7,-0.14 -0.84,-0.44 l -17.3,-47.48 c -0.25,-0.64 -0.25,-0.85 -0.25,-0.89 0,-0.55 0.46,-1 1,-1 0.66,0 0.8,0.34 1.1,1.18 z"
         id="path4998" /><path
         style="fill:#000000;stroke-width:0"
         inkscape:connector-curvature="0"
         d="m 644.91,415.87 0.11,-0.02 0.12,-0.02 0.15,-0.03 0.15,-0.04 0.17,-0.04 0.18,-0.04 0.19,-0.05 0.2,-0.06 0.2,-0.06 0.21,-0.07 0.22,-0.08 0.22,-0.08 0.22,-0.1 0.22,-0.1 0.22,-0.11 0.22,-0.12 0.22,-0.14 0.21,-0.14 0.2,-0.15 0.2,-0.16 0.19,-0.18 0.18,-0.19 0.17,-0.2 0.16,-0.21 0.14,-0.22 0.07,-0.12 0.06,-0.12 0.06,-0.13 0.05,-0.12 0.05,-0.14 0.05,-0.13 0.04,-0.14 0.03,-0.14 0.03,-0.15 0.03,-0.15 0.02,-0.16 0.01,-0.15 0.01,-0.17 0,-0.16 c 0,-2.53 -1.75,-4.53 -5.62,-4.53 -4.19,0 -5.99,2.84 -6.94,7.07 -0.14,0.64 -0.19,0.85 -0.69,0.85 -0.65,0 -0.65,-0.35 -0.65,-1.25 l 0,-6.58 c 0,-0.84 0,-1.19 0.54,-1.19 0.25,0 0.3,0.05 1.25,1 0.1,0.1 0.1,0.19 1,1.14 2.19,-2.09 4.44,-2.14 5.49,-2.14 5.72,0 8.01,3.35 8.01,6.92 0,2.64 -1.5,4.14 -2.09,4.74 -1.64,1.59 -3.59,2 -5.69,2.39 -2.78,0.55 -6.12,1.2 -6.12,4.09 0,1.74 1.3,3.78 5.58,3.78 5.48,0 5.73,-4.48 5.82,-6.03 0.07,-0.45 0.5,-0.45 0.61,-0.45 0.64,0 0.64,0.25 0.64,1.2 l 0,5.03 c 0,0.85 0,1.19 -0.54,1.19 -0.25,0 -0.35,0 -1,-0.59 -0.14,-0.21 -0.64,-0.64 -0.85,-0.8 -1.89,1.39 -3.93,1.39 -4.68,1.39 -6.08,0 -7.97,-3.33 -7.97,-6.12 0,-1.74 0.79,-3.14 2.14,-4.24 1.59,-1.29 3,-1.59 6.58,-2.28 z"
         id="path5000" /><path
         style="fill:#000000;stroke-width:0"
         inkscape:connector-curvature="0"
         d="m 663.04,428.21 -6.97,-0.54 0,-1.55 c 3.23,0 3.69,-0.3 3.69,-2.73 l 0,-13.41 c 0,-2.23 -0.55,-2.23 -3.89,-2.23 l 0,-1.55 c 1.59,0.05 4.28,0.16 5.48,0.16 1.75,0 3.49,-0.11 5.19,-0.16 l 0,1.55 c -3.3,0 -3.5,0.25 -3.5,2.18 z"
         id="path5002" /><path
         style="fill:#000000;stroke-width:0"
         inkscape:connector-curvature="0"
         d="m 663.24,436.89 0,0.14 -0.01,0.15 -0.02,0.14 -0.02,0.14 -0.04,0.13 -0.03,0.13 -0.05,0.13 -0.05,0.12 -0.05,0.12 -0.06,0.12 -0.07,0.11 -0.07,0.1 -0.07,0.1 -0.08,0.1 -0.09,0.1 -0.09,0.08 -0.09,0.09 -0.1,0.08 -0.1,0.07 -0.1,0.07 -0.11,0.07 -0.11,0.06 -0.11,0.05 -0.12,0.05 -0.12,0.04 -0.12,0.04 -0.12,0.03 -0.13,0.03 -0.12,0.02 -0.13,0.01 -0.13,0.01 -0.13,0.01 c -1.55,0 -2.64,-1.35 -2.64,-2.64 0,-1.35 1.09,-2.64 2.64,-2.64 1.39,0 2.64,1.04 2.64,2.64 z"
         id="path5004" /><path
         style="fill:#000000;stroke-width:0"
         inkscape:connector-curvature="0"
         d="m 673.51,423.34 0,-13.36 c 0,-2.23 -0.55,-2.23 -3.89,-2.23 l 0,-1.55 c 1.75,0.05 4.28,0.16 5.62,0.16 1.3,0 3.89,-0.11 5.58,-0.16 l 0,1.55 c -3.33,0 -3.87,0 -3.87,2.23 l 0,9.17 c 0,5.19 3.53,7.97 6.71,7.97 3.14,0 3.69,-2.69 3.69,-5.53 l 0,-11.61 c 0,-2.23 -0.55,-2.23 -3.89,-2.23 l 0,-1.55 c 1.75,0.05 4.3,0.16 5.64,0.16 1.3,0 3.88,-0.11 5.58,-0.16 l 0,1.55 c -2.59,0 -3.84,0 -3.89,1.5 l 0,9.51 c 0,4.28 0,5.83 -1.55,7.61 -0.69,0.86 -2.34,1.84 -5.22,1.84 -3.64,0 -5.98,-2.14 -7.37,-5.21 l 0,5.21 -7.03,-0.54 0,-1.55 c 3.48,0 3.89,-0.34 3.89,-2.78 z"
         id="path5006" /><path
         style="fill:#000000;stroke-width:0"
         inkscape:connector-curvature="0"
         d="m 726.57,431.11 0,0.31 -0.01,0.34 -0.01,0.36 -0.02,0.37 -0.03,0.39 -0.04,0.39 -0.05,0.41 -0.06,0.41 -0.06,0.42 -0.08,0.43 -0.09,0.42 -0.1,0.43 -0.11,0.42 -0.13,0.42 -0.14,0.41 -0.15,0.41 -0.17,0.4 -0.19,0.38 -0.2,0.37 -0.22,0.36 -0.23,0.34 -0.25,0.32 -0.27,0.3 -0.29,0.27 -0.31,0.25 -0.16,0.12 -0.17,0.1 -0.17,0.1 -0.18,0.1 -0.19,0.08 -0.18,0.08 -0.2,0.07 -0.2,0.06 -0.2,0.05 -0.22,0.05 -0.21,0.03 -0.23,0.02 -0.22,0.02 -0.24,0 -0.05,-1.09 c 2.44,0 2.74,-3.19 2.74,-6.03 0,-2.44 -0.39,-4.99 -1.6,-9.92 l -10.4,0 c 0.84,3.2 1.84,7.18 3.82,10.72 1.37,2.43 3.19,5.23 5.44,5.23 l 0.05,1.09 c -6.92,0 -14.59,-14.04 -14.59,-25.45 0,-4.69 1.43,-10.22 5.98,-10.22 l 0,1.1 c -1.66,0 -2.7,1.45 -2.7,6.07 0,2.1 0.29,4.99 1.59,9.86 l 10.38,0 c -0.55,-2.28 -1.6,-6.51 -3.5,-10.11 -1.74,-3.39 -3.63,-5.82 -5.77,-5.82 l 0,-1.1 c 7.02,0 14.59,14.3 14.59,25.46 z"
         id="path5008" /></g>  </g>
  <g
     id="g5816"
     transform="translate(-248.15528,9.7653701)">
    <g
       word-spacing="normal"
       letter-spacing="normal"
       font-size-adjust="none"
       font-stretch="normal"
       font-weight="normal"
       font-variant="normal"
       font-style="normal"
       stroke-miterlimit="10.433"
       xml:space="preserve"
       transform="matrix(1.0629921,0,0,-1.0629921,-186.02362,789.27165)"
       id="g5818"
       style="font-style:normal;font-variant:normal;font-weight:normal;font-stretch:normal;letter-spacing:normal;word-spacing:normal;text-anchor:start;fill:none;fill-opacity:1;fill-rule:evenodd;stroke:#000000;stroke-linecap:butt;stroke-linejoin:miter;stroke-miterlimit:10.43299961;stroke-dasharray:none;stroke-dashoffset:0;stroke-opacity:1"><path
         id="path5820"
         d="m 475.25,425.14 -0.14,0 -0.15,0 -0.15,-0.01 -0.14,0 -0.14,-0.01 -0.14,-0.02 -0.07,-0.01 -0.07,-0.01 -0.06,-0.02 -0.07,-0.01 -0.07,-0.02 -0.07,-0.02 -0.07,-0.02 -0.06,-0.02 -0.07,-0.03 -0.07,-0.03 -0.06,-0.03 -0.07,-0.04 -0.07,-0.04 -0.06,-0.04 -0.07,-0.05 -0.07,-0.04 -0.06,-0.06 -0.07,-0.05 -0.06,-0.06 -0.07,-0.07 c -0.8,-0.75 -0.89,-1.59 -0.89,-1.93 0,-1.21 0.89,-1.75 1.84,-1.75 1.44,0 2.8,1.2 2.8,3.18 0,2.44 -2.34,4.28 -5.89,4.28 -6.72,0 -13.34,-7.12 -13.34,-14.14 0,-4.48 2.89,-8.42 8.06,-8.42 7.12,0 11.31,5.28 11.31,5.88 0,0.29 -0.3,0.65 -0.59,0.65 -0.25,0 -0.35,-0.11 -0.66,-0.5 -3.94,-4.93 -9.36,-4.93 -9.95,-4.93 -3.14,0 -4.49,2.43 -4.49,5.43 0,2.03 0.99,6.88 2.69,9.96 1.55,2.84 4.28,4.98 7.02,4.98 1.7,0 3.59,-0.64 4.29,-1.98 z"
         inkscape:connector-curvature="0"
         style="fill:#000000;stroke-width:0" /><path
         id="path5822"
         d="m 479.35,400.12 -0.03,-0.15 -0.04,-0.15 -0.03,-0.14 -0.04,-0.13 -0.03,-0.13 -0.03,-0.11 -0.04,-0.12 -0.03,-0.1 -0.04,-0.1 -0.04,-0.09 -0.04,-0.09 -0.05,-0.08 -0.05,-0.07 -0.05,-0.07 -0.06,-0.07 -0.06,-0.06 -0.07,-0.05 -0.07,-0.05 -0.08,-0.04 -0.09,-0.04 -0.09,-0.04 -0.11,-0.03 -0.1,-0.03 -0.12,-0.02 -0.13,-0.02 -0.06,-0.01 -0.07,-0.01 -0.07,-0.01 -0.08,-0.01 -0.08,0 -0.07,-0.01 -0.09,0 -0.08,-0.01 -0.09,0 -0.09,0 -0.09,0 -0.1,0 -0.09,-0.01 -0.11,0 c -0.59,0 -1.14,0 -1.14,-0.93 0,-0.41 0.25,-0.61 0.64,-0.61 1.36,0 2.8,0.15 4.19,0.15 1.64,0 3.35,-0.15 4.94,-0.15 0.25,0 0.89,0 0.89,1 0,0.54 -0.5,0.54 -1.19,0.54 -2.5,0 -2.5,0.36 -2.5,0.8 0,0.61 2.1,8.72 2.46,9.97 0.64,-1.44 2.03,-3.19 4.57,-3.19 l -0.04,1.1 c -3.3,0 -3.94,4.14 -3.94,4.43 0,0.1 0,0.21 0.14,0.8 l 2.45,9.77 c 0.35,1.34 1.69,2.73 2.58,3.48 1.75,1.55 3.2,1.89 4.05,1.89 1.98,0 3.19,-1.73 3.19,-4.69 0,-2.93 -1.65,-8.65 -2.55,-10.56 -1.69,-3.48 -4.08,-5.12 -5.92,-5.12 l 0.04,-1.1 c 5.78,0 12,7.27 12,14.6 0,4.68 -2.82,7.96 -6.62,7.96 -2.49,0 -4.88,-1.78 -6.52,-3.73 -0.5,2.69 -2.64,3.73 -4.48,3.73 -2.3,0 -3.25,-1.93 -3.69,-2.82 -0.91,-1.71 -1.55,-4.69 -1.55,-4.85 0,-0.5 0.5,-0.5 0.6,-0.5 0.5,0 0.54,0.07 0.84,1.16 0.86,3.53 1.85,5.92 3.64,5.92 0.85,0 1.55,-0.39 1.55,-2.28 0,-1.16 -0.16,-1.7 -0.34,-2.55 z"
         inkscape:connector-curvature="0"
         style="fill:#000000;stroke-width:0" /><path
         id="path5824"
         d="m 550.23,422.5 0.14,0 0.14,0 0.15,0 0.07,0.01 0.07,0 0.08,0.01 0.07,0.01 0.07,0.01 0.07,0.01 0.07,0.01 0.06,0.02 0.07,0.02 0.06,0.02 0.06,0.02 0.06,0.03 0.05,0.03 0.06,0.04 0.05,0.03 0.04,0.05 0.05,0.04 0.04,0.05 0.02,0.03 0.01,0.03 0.02,0.02 0.02,0.03 0.01,0.03 0.01,0.04 0.01,0.03 0.02,0.04 0.01,0.03 0,0.04 0.01,0.04 0.01,0.04 0,0.04 0.01,0.04 0,0.04 0,0.05 c 0,1 -0.95,1 -1.64,1 l -29.85,0 c -0.7,0 -1.64,0 -1.64,-1 0,-0.98 0.94,-0.98 1.69,-0.98 z"
         inkscape:connector-curvature="0"
         style="fill:#000000;stroke-width:0" /><path
         id="path5826"
         d="m 550.28,412.82 0.06,0 0.07,0 0.14,0.01 0.13,0 0.07,0 0.07,0.01 0.07,0.01 0.07,0 0.07,0.01 0.07,0.02 0.07,0.01 0.06,0.02 0.06,0.02 0.07,0.02 0.06,0.02 0.05,0.03 0.06,0.03 0.05,0.04 0.05,0.04 0.05,0.04 0.04,0.05 0.02,0.02 0.02,0.03 0.02,0.02 0.01,0.03 0.02,0.03 0.02,0.03 0.01,0.03 0.01,0.03 0.01,0.04 0.02,0.03 0.01,0.04 0,0.04 0.01,0.04 0.01,0.04 0,0.04 0.01,0.04 0,0.05 0,0.04 c 0,1 -0.95,1 -1.69,1 l -29.75,0 c -0.75,0 -1.69,0 -1.69,-1 0,-1 0.94,-1 1.64,-1 z"
         inkscape:connector-curvature="0"
         style="fill:#000000;stroke-width:0" /><path
         id="path5828"
         d="m 582.85,440.23 0,0 0,0.01 0,0 0,0.01 0,0.02 0,0.01 0,0.02 0,0.02 -0.01,0.02 0,0.02 -0.01,0.02 0,0.02 -0.01,0.02 -0.01,0.03 -0.01,0.02 -0.01,0.03 -0.02,0.02 -0.01,0.03 -0.02,0.02 -0.02,0.02 -0.02,0.03 -0.02,0.01 -0.01,0.01 -0.01,0.01 -0.02,0.01 -0.01,0.01 -0.02,0.01 -0.01,0.01 -0.02,0.01 -0.02,0.01 -0.01,0.01 -0.02,0 -0.02,0.01 -0.02,0.01 -0.02,0 -0.02,0.01 -0.03,0.01 -0.02,0 -0.03,0 -0.02,0.01 -0.03,0 -0.02,0 -0.03,0.01 -0.03,0 -0.03,0 c -1.16,0 -4.78,-0.41 -6.08,-0.5 -0.4,-0.05 -0.95,-0.1 -0.95,-1 0,-0.6 0.45,-0.6 1.2,-0.6 2.39,0 2.49,-0.34 2.49,-0.84 l -0.16,-1 -7.22,-28.7 c -0.2,-0.69 -0.2,-0.8 -0.2,-1.1 0,-1.14 1,-1.39 1.45,-1.39 0.8,0 1.6,0.6 1.85,1.3 l 0.93,3.78 1.11,4.48 c 0.3,1.1 0.6,2.19 0.85,3.35 0.09,0.3 0.5,1.94 0.54,2.23 0.14,0.46 1.69,3.25 3.39,4.6 1.1,0.79 2.64,1.73 4.79,1.73 2.14,0 2.68,-1.69 2.68,-3.48 0,-2.69 -1.89,-8.13 -3.09,-11.16 -0.39,-1.16 -0.64,-1.75 -0.64,-2.75 0,-2.33 1.73,-4.08 4.08,-4.08 4.68,0 6.53,7.27 6.53,7.67 0,0.5 -0.46,0.5 -0.6,0.5 -0.5,0 -0.5,-0.15 -0.75,-0.9 -0.75,-2.64 -2.34,-6.17 -5.07,-6.17 -0.86,0 -1.21,0.5 -1.21,1.64 0,1.25 0.46,2.45 0.91,3.54 0.8,2.14 3.03,8.07 3.03,10.96 0,3.23 -2,5.32 -5.73,5.32 -3.14,0 -5.54,-1.53 -7.38,-3.82 z"
         inkscape:connector-curvature="0"
         style="fill:#000000;stroke-width:0" /><path
         id="path5830"
         d="m 619.74,417.06 0,0.38 0.01,0.36 0.02,0.36 0.02,0.35 0.02,0.34 0.04,0.34 0.03,0.32 0.04,0.32 0.05,0.31 0.05,0.3 0.06,0.29 0.06,0.29 0.13,0.55 0.15,0.51 0.17,0.49 0.18,0.46 0.2,0.43 0.21,0.4 0.22,0.38 0.23,0.35 0.24,0.32 0.25,0.3 0.26,0.28 0.26,0.26 0.27,0.23 0.28,0.21 0.27,0.19 0.28,0.16 0.29,0.15 0.28,0.13 0.28,0.12 0.28,0.09 0.28,0.08 0.28,0.06 0.27,0.05 0.27,0.03 0.26,0.02 0.25,0.01 c 0.43,0 3.57,-0.05 5.32,-1.85 -2.04,-0.15 -2.34,-1.64 -2.34,-2.29 0,-1.3 0.89,-2.3 2.3,-2.3 1.28,0 2.28,0.86 2.28,2.34 0,3.39 -3.78,5.33 -7.63,5.33 -6.21,0 -10.81,-5.37 -10.81,-11.55 0,-6.37 4.94,-11.31 10.72,-11.31 6.67,0 8.27,5.99 8.27,6.47 0,0.5 -0.5,0.5 -0.64,0.5 -0.46,0 -0.55,-0.19 -0.66,-0.5 -1.44,-4.62 -4.67,-5.22 -6.52,-5.22 -2.64,0 -7.03,2.14 -7.03,10.16 z"
         inkscape:connector-curvature="0"
         style="fill:#000000;stroke-width:0" /><path
         id="path5832"
         d="m 659.46,416.86 -0.01,0.59 -0.05,0.59 -0.07,0.58 -0.09,0.57 -0.13,0.56 -0.15,0.55 -0.17,0.54 -0.2,0.53 -0.22,0.51 -0.25,0.5 -0.27,0.49 -0.28,0.47 -0.31,0.46 -0.33,0.44 -0.35,0.43 -0.37,0.4 -0.38,0.39 -0.4,0.37 -0.42,0.35 -0.43,0.32 -0.45,0.31 -0.46,0.28 -0.47,0.26 -0.49,0.24 -0.5,0.21 -0.51,0.18 -0.52,0.16 -0.53,0.13 -0.54,0.11 -0.55,0.07 -0.55,0.05 -0.56,0.01 -0.05,-1.09 c 2.19,0 4.33,-1.1 5.62,-3.24 1.3,-2.14 1.3,-5.03 1.3,-6.92 0,-1.8 0,-4.48 -1.09,-6.67 -1.1,-2.25 -3.28,-3.69 -5.78,-3.69 l 0,0 c -2.15,0 -4.33,1.05 -5.68,3.33 -1.25,2.2 -1.25,5.23 -1.25,7.03 0,1.94 0,4.63 1.19,6.83 1.36,2.28 3.69,3.33 5.69,3.33 l 0.05,1.09 c -6.22,0 -11.07,-5.42 -11.07,-11.65 0,-6.43 5.19,-11.21 11.02,-11.21 6.03,0 11.06,4.88 11.06,11.21 z"
         inkscape:connector-curvature="0"
         style="fill:#000000;stroke-width:0" /><path
         id="path5834"
         d="m 671.31,415.87 0.11,-0.02 0.13,-0.02 0.14,-0.03 0.16,-0.04 0.16,-0.04 0.18,-0.04 0.19,-0.05 0.2,-0.06 0.21,-0.06 0.21,-0.07 0.21,-0.08 0.22,-0.08 0.22,-0.1 0.22,-0.1 0.22,-0.11 0.22,-0.12 0.22,-0.14 0.21,-0.14 0.2,-0.15 0.2,-0.16 0.19,-0.18 0.18,-0.19 0.17,-0.2 0.16,-0.21 0.14,-0.22 0.07,-0.12 0.06,-0.12 0.06,-0.13 0.05,-0.12 0.05,-0.14 0.05,-0.13 0.04,-0.14 0.03,-0.14 0.03,-0.15 0.03,-0.15 0.02,-0.16 0.01,-0.15 0.01,-0.17 0.01,-0.16 c 0,-2.53 -1.75,-4.53 -5.63,-4.53 -4.19,0 -5.98,2.84 -6.94,7.07 -0.14,0.64 -0.18,0.85 -0.68,0.85 -0.66,0 -0.66,-0.35 -0.66,-1.25 l 0,-6.58 c 0,-0.84 0,-1.19 0.55,-1.19 0.25,0 0.29,0.05 1.25,1 0.09,0.1 0.09,0.19 1,1.14 2.18,-2.09 4.43,-2.14 5.48,-2.14 5.72,0 8.02,3.35 8.02,6.92 0,2.64 -1.5,4.14 -2.1,4.74 -1.64,1.59 -3.59,2 -5.69,2.39 -2.78,0.55 -6.12,1.2 -6.12,4.09 0,1.74 1.3,3.78 5.58,3.78 5.48,0 5.73,-4.48 5.83,-6.03 0.06,-0.45 0.5,-0.45 0.61,-0.45 0.64,0 0.64,0.25 0.64,1.2 l 0,5.03 c 0,0.85 0,1.19 -0.55,1.19 -0.25,0 -0.34,0 -1,-0.59 -0.14,-0.21 -0.64,-0.64 -0.84,-0.8 -1.9,1.39 -3.94,1.39 -4.69,1.39 -6.08,0 -7.97,-3.33 -7.97,-6.12 0,-1.74 0.8,-3.14 2.14,-4.24 1.59,-1.29 3,-1.59 6.58,-2.28 z"
         inkscape:connector-curvature="0"
         style="fill:#000000;stroke-width:0" /><path
         id="path5836"
         d="m 710.67,439.57 0,0.01 0,0.01 0,0 0,0.01 0,0.01 0.01,0.01 0,0 0,0.01 0,0.02 0.01,0.03 0,0.02 0.01,0.02 0,0.03 0.01,0.03 0,0.02 0.01,0.03 0.01,0.03 0.01,0.03 0.01,0.06 0.01,0.06 0.01,0.03 0.01,0.02 0.01,0.03 0,0.03 0.01,0.02 0,0.02 0.01,0.02 0,0.02 0.01,0.01 0,0.01 0,0.01 0,0.01 0,0 0,0.01 0.01,0.01 0,0 0,0.01 0,0 0,0 0,0.01 c 0,0.04 0,0.5 -0.6,0.5 -0.5,0 -0.54,-0.16 -0.75,-1 l -2.89,-11.5 c -7.92,-0.25 -15.25,-6.88 -15.25,-13.66 0,-4.73 3.49,-8.67 9.57,-9.01 l 0.25,1.09 c -2.99,0.14 -6.58,1.89 -6.58,6.87 0,5.99 4.3,12.96 11.72,13.6 l -5.14,-20.47 -0.25,-1.09 c -0.39,-1.55 -0.74,-3.15 -1.14,-4.69 -0.6,-2.35 -1.1,-4.24 -1.1,-4.39 0,-0.49 0.35,-0.55 0.6,-0.55 0.25,0 0.35,0.06 0.5,0.2 0.09,0.1 0.4,1.3 0.54,2 l 1.89,7.43 0.25,1.09 5.14,20.47 c 3.79,-0.19 6.63,-2.49 6.63,-6.88 0,-5.87 -4.28,-13 -11.77,-13.59 l -0.25,-1.09 c 8.03,0.25 15.25,6.96 15.25,13.64 0,3.93 -2.64,8.53 -9.56,9.03 z"
         inkscape:connector-curvature="0"
         style="fill:#000000;stroke-width:0" /></g>  </g>
  <path
     style="opacity:1;fill:none;fill-opacity:1;stroke:#00ff00;stroke-width:0.56800002;stroke-linecap:butt;stroke-linejoin:miter;stroke-miterlimit:4;stroke-dasharray:none;stroke-dashoffset:0;stroke-opacity:1"
     d="M 721.4885,163.91663 C 496.31056,267.31466 496.31056,266.1658 496.31056,266.1658"
     id="path5946"
     inkscape:connector-curvature="0" />
  <path
     style="opacity:1;fill:none;fill-opacity:1;stroke:#008000;stroke-width:0.56800002;stroke-linecap:butt;stroke-linejoin:miter;stroke-miterlimit:4;stroke-dasharray:none;stroke-dashoffset:0;stroke-opacity:1"
     d="M 817.99333,289.14314 749.06131,152.42796"
     id="path5948"
     inkscape:connector-curvature="0" />
  <text
     xml:space="preserve"
     style="font-style:normal;font-variant:normal;font-weight:normal;font-stretch:normal;font-size:15px;line-height:125%;font-family:Arial;-inkscape-font-specification:Arial;letter-spacing:0px;word-spacing:0px;fill:#000000;fill-opacity:1;stroke:none;stroke-width:1px;stroke-linecap:butt;stroke-linejoin:miter;stroke-opacity:1"
     x="795.01599"
     y="200.68037"
     id="text5950"
     sodipodi:linespacing="125%"><tspan
       sodipodi:role="line"
       id="tspan5952"
       x="795.01599"
       y="200.68037">cp</tspan></text>
  <path
     style="opacity:1;fill:none;fill-opacity:1;stroke:#008000;stroke-width:0.56800002;stroke-linecap:butt;stroke-linejoin:miter;stroke-miterlimit:4;stroke-dasharray:none;stroke-dashoffset:0;stroke-opacity:1"
     d="M 741.01924,154.72569 722.63737,119.11081"
     id="path5954"
     inkscape:connector-curvature="0" />
  <text
     xml:space="preserve"
     style="font-style:normal;font-variant:normal;font-weight:normal;font-stretch:normal;font-size:15px;line-height:125%;font-family:Arial;-inkscape-font-specification:Arial;letter-spacing:0px;word-spacing:0px;fill:#000000;fill-opacity:1;stroke:none;stroke-width:1px;stroke-linecap:butt;stroke-linejoin:miter;stroke-opacity:1"
     x="761.69885"
     y="124.85515"
     id="text5956"
     sodipodi:linespacing="125%"><tspan
       sodipodi:role="line"
       id="tspan5958"
       x="761.69885"
       y="124.85515">dp</tspan></text>
  <path
     style="opacity:1;fill:none;fill-opacity:1;stroke:#00ff00;stroke-width:0.56800002;stroke-linecap:butt;stroke-linejoin:miter;stroke-miterlimit:4;stroke-dasharray:none;stroke-dashoffset:0;stroke-opacity:1"
     d="M 572.16985,230.45197 553.78798,194.83709"
     id="path5954-3"
     inkscape:connector-curvature="0" />
</svg>
