<?xml version="1.0" encoding="UTF-8" standalone="no"?>
<!-- Created with Inkscape (http://www.inkscape.org/) -->

<svg
   xmlns:dc="http://purl.org/dc/elements/1.1/"
   xmlns:cc="http://creativecommons.org/ns#"
   xmlns:rdf="http://www.w3.org/1999/02/22-rdf-syntax-ns#"
   xmlns:svg="http://www.w3.org/2000/svg"
   xmlns="http://www.w3.org/2000/svg"
   xmlns:sodipodi="http://sodipodi.sourceforge.net/DTD/sodipodi-0.dtd"
   xmlns:inkscape="http://www.inkscape.org/namespaces/inkscape"
   width="129.39503mm"
   height="129.39503mm"
   viewBox="0 0 129.39503 129.39503"
   version="1.1"
   id="svg1571"
   inkscape:version="0.92.2 5c3e80d, 2017-08-06"
   sodipodi:docname="nightly_build.svg"
   inkscape:export-filename="/Users/kaestner/git/imagingsuite/build/nightly_build.png"
   inkscape:export-xdpi="207.42"
   inkscape:export-ydpi="207.42">
  <defs
     id="defs1565" />
  <sodipodi:namedview
     id="base"
     pagecolor="#ffffff"
     bordercolor="#666666"
     borderopacity="1.0"
     inkscape:pageopacity="0.0"
     inkscape:pageshadow="2"
     inkscape:zoom="2.5699782"
     inkscape:cx="244.52605"
     inkscape:cy="244.52605"
     inkscape:document-units="mm"
     inkscape:current-layer="layer1"
     showgrid="false"
     fit-margin-top="2"
     fit-margin-left="2"
     fit-margin-right="2"
     fit-margin-bottom="2"
     inkscape:window-width="2517"
     inkscape:window-height="1395"
     inkscape:window-x="437"
     inkscape:window-y="245"
     inkscape:window-maximized="0" />
  <metadata
     id="metadata1568">
    <rdf:RDF>
      <cc:Work
         rdf:about="">
        <dc:format>image/svg+xml</dc:format>
        <dc:type
           rdf:resource="http://purl.org/dc/dcmitype/StillImage" />
        <dc:title></dc:title>
      </cc:Work>
    </rdf:RDF>
  </metadata>
  <g
     inkscape:label="Layer 1"
     inkscape:groupmode="layer"
     id="layer1"
     transform="translate(-19.969154,-74.308434)">
    <circle
       style="fill:#344e5d;stroke-width:0.26458332"
       cx="84.666672"
       cy="139.00595"
       r="62.697517"
       id="circle2198" />
    <path
       inkscape:connector-curvature="0"
       style="fill:#f1eb75;stroke-width:0.26458332"
       d="m 66.576485,120.61937 c 0,-13.84247 7.544858,-25.914621 18.74097,-32.355631 -4.16904,-1.74652 -8.745805,-2.71463 -13.549316,-2.71463 -19.368558,0 -35.070255,15.700641 -35.070255,35.070261 0,19.36776 15.700639,35.07025 35.070255,35.07025 4.803511,0 9.380276,-0.96916 13.549316,-2.71647 -11.195847,-6.43917 -18.74097,-18.51343 -18.74097,-32.35378 z"
       id="path2200" />
    <g
       id="g2202"
       transform="matrix(0.26458333,0,0,0.26458333,21.969154,76.308433)" />
    <g
       id="g2204"
       transform="matrix(0.26458333,0,0,0.26458333,21.969154,76.308433)" />
    <g
       id="g2206"
       transform="matrix(0.26458333,0,0,0.26458333,21.969154,76.308433)" />
    <g
       id="g2208"
       transform="matrix(0.26458333,0,0,0.26458333,21.969154,76.308433)" />
    <g
       id="g2210"
       transform="matrix(0.26458333,0,0,0.26458333,21.969154,76.308433)" />
    <g
       id="g2212"
       transform="matrix(0.26458333,0,0,0.26458333,21.969154,76.308433)" />
    <g
       id="g2214"
       transform="matrix(0.26458333,0,0,0.26458333,21.969154,76.308433)" />
    <g
       id="g2216"
       transform="matrix(0.26458333,0,0,0.26458333,21.969154,76.308433)" />
    <g
       id="g2218"
       transform="matrix(0.26458333,0,0,0.26458333,21.969154,76.308433)" />
    <g
       id="g2220"
       transform="matrix(0.26458333,0,0,0.26458333,21.969154,76.308433)" />
    <g
       id="g2222"
       transform="matrix(0.26458333,0,0,0.26458333,21.969154,76.308433)" />
    <g
       id="g2224"
       transform="matrix(0.26458333,0,0,0.26458333,21.969154,76.308433)" />
    <g
       id="g2226"
       transform="matrix(0.26458333,0,0,0.26458333,21.969154,76.308433)" />
    <g
       id="g2228"
       transform="matrix(0.26458333,0,0,0.26458333,21.969154,76.308433)" />
    <g
       id="g2230"
       transform="matrix(0.26458333,0,0,0.26458333,21.969154,76.308433)" />
    <g
       id="g2465"
       transform="matrix(-0.18955394,0,0,0.18719039,142.13322,110.88152)">
      <g
         id="g2395">
        <path
           id="path2365"
           d="m 347.045,248.043 v -46.364 l -47.493,-7.556 c -3.185,-13.104 -8.353,-25.432 -15.18,-36.641 l 28.242,-38.929 5.216,-32.784 h -38 L 240.9,114.013 C 229.692,107.186 217.364,102.019 204.26,98.834 L 196.704,51.339 H 150.34 l -7.556,47.497 c -13.103,3.185 -25.429,8.353 -36.636,15.18 l -0.932,-28.245 h -38 l -32.784,32.784 28.246,38.933 c -6.826,11.207 -11.993,23.533 -15.177,36.635 L 0,201.679 v 46.364 l 47.501,7.557 c 3.185,13.102 8.351,25.427 15.177,36.634 l -28.246,38.935 32.784,32.784 h 38 l 0.934,-28.246 c 11.207,6.827 23.533,11.993 36.635,15.179 l 7.557,47.499 h 46.364 l 7.556,-47.497 c 13.103,-3.185 25.43,-8.351 36.638,-15.178 l 38.931,28.244 h 38 l -5.216,-32.784 -28.243,-38.93 c 6.828,-11.208 11.995,-23.536 15.181,-36.639 z m -173.519,4.447 c -15.26,0 -27.64,-12.37 -27.64,-27.63 0,-15.26 12.38,-27.63 27.64,-27.63 15.26,0 27.63,12.37 27.63,27.63 0,15.26 -12.37,27.63 -27.63,27.63 z"
           style="fill:#999999"
           inkscape:connector-curvature="0" />
        <path
           id="path2367"
           d="m 385.045,248.043 v -46.364 l -47.493,-7.556 c -3.185,-13.104 -8.353,-25.432 -15.18,-36.641 L 350.614,118.553 317.829,85.77 278.9,114.013 C 267.692,107.186 255.364,102.019 242.26,98.834 L 234.704,51.339 H 188.34 l -7.556,47.497 c -13.103,3.185 -25.429,8.353 -36.636,15.18 L 105.216,85.77 72.432,118.554 100.678,157.487 C 93.852,168.694 88.685,181.02 85.501,194.122 L 38,201.679 v 46.364 l 47.501,7.557 c 3.185,13.102 8.351,25.427 15.177,36.634 l -28.246,38.935 32.784,32.784 38.934,-28.246 c 11.207,6.827 23.533,11.993 36.635,15.179 l 7.557,47.499 h 46.364 l 7.556,-47.497 c 13.103,-3.185 25.43,-8.351 36.638,-15.178 l 38.931,28.244 32.784,-32.784 -28.243,-38.93 c 6.828,-11.208 11.995,-23.536 15.181,-36.639 z m -173.519,4.447 c -15.26,0 -27.64,-12.37 -27.64,-27.63 0,-15.26 12.38,-27.63 27.64,-27.63 15.26,0 27.63,12.37 27.63,27.63 0,15.26 -12.37,27.63 -27.63,27.63 z"
           style="fill:#cccccc"
           inkscape:connector-curvature="0" />
        <path
           id="path2369"
           d="m 211.526,136.6 c -3.27,0 -6.49,0.18 -9.67,0.53 -44.2,4.81 -78.59,42.26 -78.59,87.73 0,45.48 34.39,82.92 78.59,87.73 3.18,0.35 6.4,0.53 9.67,0.53 48.74,0 88.26,-39.51 88.26,-88.26 0,-48.74 -39.52,-88.26 -88.26,-88.26 z m -27.64,88.26 c 0,-11.86 7.48,-21.98 17.98,-25.89 3.01,-1.13 6.26,-1.74 9.66,-1.74 15.26,0 27.63,12.37 27.63,27.63 0,15.26 -12.37,27.63 -27.63,27.63 -3.4,0 -6.65,-0.61 -9.66,-1.74 -10.5,-3.91 -17.98,-14.03 -17.98,-25.89 z"
           style="fill:#999999"
           inkscape:connector-curvature="0" />
        <path
           id="path2371"
           d="m 201.856,137.13 c -44.2,4.81 -78.59,42.26 -78.59,87.73 0,45.48 34.39,82.92 78.59,87.73 44.2,-4.81 78.6,-42.25 78.6,-87.73 0,-45.47 -34.4,-82.92 -78.6,-87.73 z m -9.66,115.36 c -15.26,0 -27.64,-12.37 -27.64,-27.63 0,-15.26 12.38,-27.63 27.64,-27.63 3.4,0 6.66,0.61 9.67,1.74 10.49,3.92 17.96,14.03 17.96,25.89 0,11.86 -7.47,21.97 -17.96,25.89 -3.01,1.13 -6.27,1.74 -9.67,1.74 z"
           style="fill:#b3b3b3"
           inkscape:connector-curvature="0" />
        <path
           id="path2373"
           d="m 202.192,178.3 c -25.72,0 -46.56,20.85 -46.56,46.56 0,25.72 20.84,46.56 46.56,46.56 25.71,0 46.56,-20.84 46.56,-46.56 0,-25.71 -20.85,-46.56 -46.56,-46.56 z m 0,74.19 c -15.26,0 -27.64,-12.37 -27.64,-27.63 0,-15.26 12.38,-27.63 27.64,-27.63 15.26,0 27.63,12.37 27.63,27.63 0,15.26 -12.37,27.63 -27.63,27.63 z"
           style="fill:#999999"
           inkscape:connector-curvature="0" />
        <path
           id="path2375"
           d="m 211.526,178.3 c -25.72,0 -46.56,20.85 -46.56,46.56 0,25.72 20.84,46.56 46.56,46.56 25.71,0 46.56,-20.84 46.56,-46.56 0,-25.71 -20.85,-46.56 -46.56,-46.56 z m 0,74.19 c -15.26,0 -27.64,-12.37 -27.64,-27.63 0,-15.26 12.38,-27.63 27.64,-27.63 15.26,0 27.63,12.37 27.63,27.63 0,15.26 -12.37,27.63 -27.63,27.63 z"
           style="fill:#cccccc"
           inkscape:connector-curvature="0" />
        <path
           id="path2377"
           d="m 211.526,197.23 c -7.36,0 -14.05,2.87 -19,7.58 5.31,5.02 8.63,12.15 8.63,20.05 0,7.9 -3.32,15.03 -8.63,20.05 4.95,4.71 11.64,7.58 19,7.58 15.26,0 27.63,-12.37 27.63,-27.63 0,-15.26 -12.37,-27.63 -27.63,-27.63 z"
           style="fill:#999999"
           inkscape:connector-curvature="0" />
        <g
           id="g2393">
          <path
             id="path2379"
             d="m 457.62,286.384 13.913,-29.179 h -26 l -31.86,7.626 c -5.421,-7.417 -11.887,-13.829 -19.106,-19.103 l 4.447,-43.949 h -26 l -17.138,27.923 c -8.834,-1.375 -17.939,-1.413 -27.017,-0.002 l 8.863,-27.922 h -26 l -29.18,12.087 7.626,31.863 c -7.416,5.42 -13.827,11.886 -19.1,19.104 l -5.866,-7.627 h -26 l -12.087,29.179 27.926,17.14 c -1.374,8.833 -1.413,17.937 -0.002,27.013 l -27.925,17.139 12.087,29.179 h 26 l 5.865,-7.627 c 5.42,7.415 11.885,13.826 19.102,19.099 l -7.627,31.867 29.179,12.086 h 26 l -8.86,-27.927 c 8.833,1.375 17.937,1.413 27.013,0.003 l 17.138,27.924 h 26 l 0.174,-24.645 -4.62,-19.304 c 7.416,-5.42 13.828,-11.885 19.102,-19.104 l 31.865,7.627 h 26 l -13.913,-29.179 -27.924,-17.138 c 1.375,-8.834 1.414,-17.94 0.003,-27.017 z m -108.048,48.033 c -9.604,3.978 -20.62,-0.58 -24.598,-10.184 -3.978,-9.604 0.589,-20.617 10.193,-24.595 9.604,-3.978 20.614,0.582 24.592,10.186 3.978,9.605 -0.582,20.615 -10.187,24.593 z"
             style="fill:#999999"
             inkscape:connector-curvature="0" />
          <path
             id="path2381"
             d="m 483.62,286.384 -12.087,-29.179 -31.86,7.626 c -5.421,-7.417 -11.887,-13.829 -19.106,-19.103 l 7.626,-31.863 -29.18,-12.086 -17.138,27.923 c -8.834,-1.375 -17.939,-1.413 -27.017,-0.002 l -17.137,-27.922 -29.18,12.087 7.626,31.863 c -7.416,5.42 -13.827,11.886 -19.1,19.104 l -31.866,-7.627 -12.087,29.179 27.926,17.14 c -1.374,8.833 -1.413,17.937 -0.002,27.013 l -27.925,17.139 12.087,29.179 31.865,-7.627 c 5.42,7.415 11.885,13.826 19.102,19.099 l -7.627,31.867 29.179,12.086 17.14,-27.927 c 8.833,1.375 17.937,1.413 27.013,0.003 l 17.138,27.924 29.18,-12.087 -7.626,-31.863 c 7.416,-5.42 13.828,-11.885 19.102,-19.104 l 31.865,7.627 12.087,-29.179 -27.924,-17.138 c 1.375,-8.834 1.414,-17.94 0.003,-27.017 z m -108.048,48.033 c -9.604,3.978 -20.62,-0.58 -24.598,-10.184 -3.978,-9.604 0.589,-20.617 10.193,-24.595 9.604,-3.978 20.614,0.582 24.592,10.186 3.978,9.605 -0.582,20.615 -10.187,24.593 z"
             style="fill:#b3b3b3"
             inkscape:connector-curvature="0" />
          <path
             id="path2383"
             d="m 368.37,256.905 c -2.228,0 -4.421,0.123 -6.587,0.361 -30.11,3.277 -53.537,28.788 -53.537,59.763 0,30.982 23.427,56.486 53.537,59.763 2.166,0.238 4.36,0.361 6.587,0.361 33.202,0 60.124,-26.915 60.124,-60.124 0,-33.202 -26.921,-60.124 -60.124,-60.124 z m -18.829,60.124 c 0,-8.079 5.096,-14.973 12.248,-17.637 2.05,-0.77 4.264,-1.185 6.581,-1.185 10.395,0 18.822,8.427 18.822,18.822 0,10.395 -8.427,18.822 -18.822,18.822 -2.316,0 -4.53,-0.415 -6.581,-1.185 -7.152,-2.664 -12.248,-9.558 -12.248,-17.637 z"
             style="fill:#999999"
             inkscape:connector-curvature="0" />
          <path
             id="path2385"
             d="m 361.783,257.266 c -30.11,3.277 -53.537,28.788 -53.537,59.763 0,30.982 23.427,56.486 53.537,59.763 30.11,-3.277 53.543,-28.781 53.543,-59.763 0,-30.975 -23.434,-56.486 -53.543,-59.763 z m -6.581,78.585 c -10.395,0 -18.829,-8.427 -18.829,-18.822 0,-10.395 8.433,-18.822 18.829,-18.822 2.316,0 4.537,0.415 6.587,1.185 7.146,2.67 12.235,9.558 12.235,17.637 0,8.079 -5.089,14.966 -12.235,17.637 -2.05,0.769 -4.271,1.185 -6.587,1.185 z"
             style="fill:#cccccc"
             inkscape:connector-curvature="0" />
          <path
             id="path2387"
             d="m 362.012,285.312 c -17.521,0 -31.717,14.203 -31.717,31.717 0,17.521 14.197,31.717 31.717,31.717 17.514,0 31.717,-14.197 31.717,-31.717 0.001,-17.514 -14.203,-31.717 -31.717,-31.717 z m 0,50.539 c -10.395,0 -18.829,-8.427 -18.829,-18.822 0,-10.395 8.433,-18.822 18.829,-18.822 10.396,0 18.822,8.427 18.822,18.822 0,10.395 -8.427,18.822 -18.822,18.822 z"
             style="fill:#999999"
             inkscape:connector-curvature="0" />
          <path
             id="path2389"
             d="m 368.37,285.312 c -17.521,0 -31.717,14.203 -31.717,31.717 0,17.521 14.197,31.717 31.717,31.717 17.514,0 31.717,-14.197 31.717,-31.717 0.001,-17.514 -14.203,-31.717 -31.717,-31.717 z m 0,50.539 c -10.395,0 -18.829,-8.427 -18.829,-18.822 0,-10.395 8.433,-18.822 18.829,-18.822 10.395,0 18.822,8.427 18.822,18.822 0,10.395 -8.427,18.822 -18.822,18.822 z"
             style="fill:#b3b3b3"
             inkscape:connector-curvature="0" />
          <path
             id="path2391"
             d="m 368.37,298.207 c -5.014,0 -9.571,1.955 -12.943,5.164 3.617,3.42 5.879,8.277 5.879,13.658 0,5.381 -2.262,10.239 -5.879,13.658 3.372,3.208 7.929,5.163 12.943,5.163 10.395,0 18.822,-8.427 18.822,-18.822 0,-10.395 -8.427,-18.821 -18.822,-18.821 z"
             style="fill:#999999"
             inkscape:connector-curvature="0" />
        </g>
      </g>
      <g
         id="g2397" />
      <g
         id="g2399" />
      <g
         id="g2401" />
      <g
         id="g2403" />
      <g
         id="g2405" />
      <g
         id="g2407" />
      <g
         id="g2409" />
      <g
         id="g2411" />
      <g
         id="g2413" />
      <g
         id="g2415" />
      <g
         id="g2417" />
      <g
         id="g2419" />
      <g
         id="g2421" />
      <g
         id="g2423" />
      <g
         id="g2425" />
    </g>
  </g>
</svg>
