<?xml version="1.0" encoding="UTF-8" standalone="no"?>
<!-- Created with Inkscape (http://www.inkscape.org/) -->

<svg
   width="800"
   height="600"
   viewBox="0 0 211.66667 158.75"
   version="1.1"
   id="svg8"
   inkscape:version="1.4 (e7c3feb1, 2024-10-09)"
   sodipodi:docname="muh4_install.svg"
   inkscape:export-filename="muh4_install.png"
   inkscape:export-xdpi="96"
   inkscape:export-ydpi="96"
   xml:space="preserve"
   xmlns:inkscape="http://www.inkscape.org/namespaces/inkscape"
   xmlns:sodipodi="http://sodipodi.sourceforge.net/DTD/sodipodi-0.dtd"
   xmlns="http://www.w3.org/2000/svg"
   xmlns:svg="http://www.w3.org/2000/svg"
   xmlns:rdf="http://www.w3.org/1999/02/22-rdf-syntax-ns#"
   xmlns:cc="http://creativecommons.org/ns#"
   xmlns:dc="http://purl.org/dc/elements/1.1/"><defs
     id="defs2"><inkscape:path-effect
       effect="skeletal"
       id="path-effect886"
       is_visible="true"
       pattern="M 0,5 C 0,2.24 2.24,0 5,0 7.76,0 10,2.24 10,5 10,7.76 7.76,10 5,10 2.24,10 0,7.76 0,5 Z"
       copytype="single_stretched"
       prop_scale="0.26458333"
       scale_y_rel="false"
       spacing="0"
       normal_offset="0"
       tang_offset="0"
       prop_units="false"
       vertical_pattern="false"
       fuse_tolerance="0"
       lpeversion="0"
       hide_knot="false" /><inkscape:path-effect
       effect="skeletal"
       id="path-effect817"
       is_visible="true"
       pattern="m 8.048282,9.4302665 c 0,-2.76 2.24,-5 5,-5 2.76,0 5,2.24 5,5 0,2.7599995 -2.24,4.9999995 -5,4.9999995 -2.76,0 -5,-2.24 -5,-4.9999995 z"
       copytype="single_stretched"
       prop_scale="0.35"
       scale_y_rel="false"
       spacing="0"
       normal_offset="0"
       tang_offset="0"
       prop_units="false"
       vertical_pattern="false"
       fuse_tolerance="0"
       lpeversion="0"
       hide_knot="false" /><inkscape:path-effect
       effect="skeletal"
       id="path-effect817-7"
       is_visible="true"
       pattern="m 50.070564,143.07491 c 0,-2.76 2.24,-5 5,-5 2.76,0 5,2.24 5,5 0,2.76 -2.24,5 -5,5 -2.76,0 -5,-2.24 -5,-5 z"
       copytype="single_stretched"
       prop_scale="0.35"
       scale_y_rel="false"
       spacing="0"
       normal_offset="0"
       tang_offset="0"
       prop_units="false"
       vertical_pattern="false"
       fuse_tolerance="0"
       lpeversion="0"
       hide_knot="false" /><inkscape:path-effect
       effect="skeletal"
       id="path-effect817-7-7"
       is_visible="true"
       pattern="m -10.66309,84.193592 c 0,-2.76 2.2400003,-5 5.0000003,-5 2.76,0 4.99999999,2.24 4.99999999,5 0,2.76 -2.23999999,5 -4.99999999,5 -2.76,0 -5.0000003,-2.24 -5.0000003,-5 z"
       copytype="single_stretched"
       prop_scale="0.35000001"
       scale_y_rel="false"
       spacing="0"
       normal_offset="0"
       tang_offset="0"
       prop_units="false"
       vertical_pattern="false"
       fuse_tolerance="0"
       lpeversion="0"
       hide_knot="false" /><inkscape:path-effect
       effect="skeletal"
       id="path-effect817-9"
       is_visible="true"
       pattern="m -52.685372,-49.451052 c 0,-2.76 2.24,-5 5,-5 2.76,0 5,2.24 5,5 0,2.76 -2.24,5 -5,5 -2.76,0 -5,-2.24 -5,-5 z"
       copytype="single_stretched"
       prop_scale="0.35000001"
       scale_y_rel="false"
       spacing="0"
       normal_offset="0"
       tang_offset="0"
       prop_units="false"
       vertical_pattern="false"
       fuse_tolerance="0"
       lpeversion="0"
       hide_knot="false" /></defs><sodipodi:namedview
     id="base"
     pagecolor="#ffffff"
     bordercolor="#666666"
     borderopacity="1.0"
     inkscape:pageopacity="0.0"
     inkscape:pageshadow="2"
     inkscape:zoom="0.9325"
     inkscape:cx="399.46381"
     inkscape:cy="300.2681"
     inkscape:document-units="mm"
     inkscape:current-layer="layer1"
     showgrid="false"
     fit-margin-top="2"
     fit-margin-left="2"
     fit-margin-right="2"
     fit-margin-bottom="2"
     inkscape:window-width="1728"
     inkscape:window-height="997"
     inkscape:window-x="0"
     inkscape:window-y="38"
     inkscape:window-maximized="0"
     inkscape:showpageshadow="2"
     inkscape:pagecheckerboard="0"
     inkscape:deskcolor="#d1d1d1" /><metadata
     id="metadata5"><rdf:RDF><cc:Work
         rdf:about=""><dc:format>image/svg+xml</dc:format><dc:type
           rdf:resource="http://purl.org/dc/dcmitype/StillImage" /></cc:Work></rdf:RDF></metadata><g
     inkscape:label="Layer 1"
     inkscape:groupmode="layer"
     id="layer1"
     transform="translate(-38.657345,-123.88445)"
     style="display:none" /><g
     inkscape:groupmode="layer"
     id="layer2"
     inkscape:label="Muh"
     style="display:inline"><path
       id="rect1"
       style="fill:#cccccc;stroke-width:0.215503"
       d="m 146.99476,80.487311 h 27.68738 v 15.981815 h 5.29167 l -19.13536,8.982764 -19.13536,-8.982764 h 5.29167 z"
       sodipodi:nodetypes="cccccccc" /><g
       id="g1"
       transform="matrix(0.5,0,0,0.5,81.997645,-1.8492957)"><path
         style="fill:#ffffff;fill-opacity:1;fill-rule:evenodd;stroke:none;stroke-width:0.264583px;stroke-linecap:butt;stroke-linejoin:miter;stroke-opacity:1"
         d="m 114.89753,83.998142 c 33.59059,5.23283 55.96421,-4.86583 74.50401,-21.16045 -1.55223,89.482498 -30.5905,126.553238 -74.50401,21.16045 z"
         id="path947"
         inkscape:connector-curvature="0"
         sodipodi:nodetypes="ccc" /><path
         transform="translate(42.350046,-101.23503)"
         style="fill:#cccccc;fill-rule:evenodd;stroke:none;stroke-width:0.193413px;stroke-linecap:butt;stroke-linejoin:miter;stroke-opacity:1"
         inkscape:path-effect="#path-effect817"
         inkscape:original-d="m 41.374063,167.59841 c 50.703576,43.44221 114.023587,2.7983 120.434387,-32.1009"
         id="path815"
         d="m 41.374063,167.59841 c 0.232273,-0.2711 3.751479,2.61353 10.388813,6.46952 6.508957,3.78142 16.646265,8.65084 29.1294,10.16299 8.923927,1.09602 18.774875,0.49882 28.893134,-2.31997 2.67286,-0.74462 5.26923,-1.61856 7.7756,-2.6017 12.17598,-4.78489 21.77789,-11.75656 28.83395,-18.93307 4.22035,-4.29421 7.29311,-8.41344 9.57902,-12.20059 4.50599,-7.47394 5.45598,-12.74761 5.83447,-12.67808 0.37849,0.0695 0.14092,5.64249 -4.03728,13.68399 -2.11037,4.06666 -5.11359,8.53445 -9.33371,13.1332 -7.0581,7.69472 -16.93101,15.17871 -29.59638,20.22803 -2.61144,1.0429 -5.32139,1.9644 -8.11555,2.74282 -10.57945,2.94731 -20.92403,3.4537 -30.25583,2.11858 -13.093023,-1.89414 -23.357067,-7.35634 -29.738531,-11.69912 -6.497308,-4.42161 -9.58938,-7.8355 -9.357106,-8.1066 z"
         inkscape:connector-curvature="0"
         sodipodi:nodetypes="cc" /><g
         id="g860"
         transform="matrix(0.7061522,-0.14564564,0.1469982,0.72307434,42.761301,-28.952297)"
         style="fill:#cccccc;stroke:none;stroke-opacity:1"><ellipse
           ry="8.2957106"
           rx="4.480762"
           cy="204.11397"
           cx="114.6061"
           id="path841"
           style="opacity:1;fill:#cccccc;fill-opacity:1;stroke:none;stroke-width:0.303605;stroke-linejoin:round;stroke-miterlimit:4;stroke-dasharray:none;stroke-dashoffset:0;stroke-opacity:1" /><ellipse
           ry="8.2957106"
           rx="4.480762"
           cy="203.44635"
           cx="125.19259"
           id="path841-3"
           style="opacity:1;fill:#cccccc;fill-opacity:1;stroke:none;stroke-width:0.303605;stroke-linejoin:round;stroke-miterlimit:4;stroke-dasharray:none;stroke-dashoffset:0;stroke-opacity:1" /></g><path
         style="fill:#cccccc;fill-rule:evenodd;stroke:none;stroke-width:0.264583px;stroke-linecap:butt;stroke-linejoin:miter;stroke-opacity:1"
         d="m 144.6771,137.76469 c 4.80903,-1.83364 9.01065,-2.85914 6.17179,5.48247"
         id="path864"
         inkscape:connector-curvature="0"
         sodipodi:nodetypes="cc" /><path
         style="fill:#cccccc;fill-rule:evenodd;stroke:none;stroke-width:0.264583px;stroke-linecap:butt;stroke-linejoin:miter;stroke-opacity:1"
         d="m 178.203,132.90142 c -5.12922,-0.42435 -9.4503,-0.24135 -4.40428,6.98218"
         id="path864-8"
         inkscape:connector-curvature="0"
         sodipodi:nodetypes="cc" /><path
         style="fill:#cccccc;fill-rule:evenodd;stroke:none;stroke-width:0.264583px;stroke-linecap:butt;stroke-linejoin:miter;stroke-opacity:1"
         d="m 114.89753,83.998142 c 6.59738,2.59649 13.66525,-0.70142 20.26264,1.89507 0,0 -4.57445,9.39657 0.006,12.03492 4.58038,2.638358 3.73527,12.575998 -1.70945,12.336628 -5.44472,-0.23936 -2.84413,2.58674 -4.26619,3.88011 z"
         id="path881"
         inkscape:connector-curvature="0"
         sodipodi:nodetypes="cczzcc" /><path
         style="fill:#cccccc;fill-rule:evenodd;stroke:none;stroke-width:0.264583px;stroke-linecap:butt;stroke-linejoin:miter;stroke-opacity:1"
         d="m 185.9634,98.773462 c 0,0 -5.38996,-0.57685 -7.45011,4.204768 -2.06015,4.78163 1.20069,8.08639 0.14765,11.06474 -2.40576,6.80429 3.64809,6.66767 1.86731,10.66301"
         id="path884"
         inkscape:connector-curvature="0"
         sodipodi:nodetypes="czsc" /><ellipse
         style="opacity:1;fill:#ffffff;fill-opacity:1;stroke:none;stroke-width:0.3;stroke-linejoin:round;stroke-miterlimit:4;stroke-dasharray:none;stroke-dashoffset:0;stroke-opacity:1"
         id="path915"
         cx="162.90703"
         cy="92.160057"
         rx="1.335232"
         ry="1.4306058"
         transform="rotate(4.5635495)" /><ellipse
         style="opacity:1;fill:#ffffff;fill-opacity:1;stroke:none;stroke-width:0.3;stroke-linejoin:round;stroke-miterlimit:4;stroke-dasharray:none;stroke-dashoffset:0;stroke-opacity:1"
         id="path915-0"
         cx="168.82021"
         cy="89.966469"
         rx="1.3352321"
         ry="1.4306058"
         transform="rotate(4.5635495)" /><path
         transform="translate(42.350046,-101.23503)"
         style="fill:#cccccc;fill-rule:evenodd;stroke:none;stroke-width:0.200272px;stroke-linecap:butt;stroke-linejoin:miter;stroke-opacity:1"
         inkscape:path-effect="#path-effect817-7"
         inkscape:original-d="m 59.873789,156.44627 c 65.133341,173.31936 94.487391,69.78426 84.573841,-29.06904"
         id="path815-9"
         d="m 59.873789,156.44627 c 0.582365,-0.21885 8.026828,21.58878 24.054759,51.88744 4.924616,9.29222 11.079422,20.37546 19.296292,29.45827 2.41746,2.66694 5.05938,5.22582 8.07022,7.17615 2.13228,1.36667 4.44039,2.47974 6.81608,2.7842 1.90795,0.26475 3.92373,-0.008 5.69035,-0.81648 0.99526,-0.44112 1.93214,-1.05023 2.81477,-1.77557 0.84086,-0.69102 1.62677,-1.48284 2.36022,-2.32372 1.88187,-2.17652 3.37138,-4.72754 4.66024,-7.36105 1.61285,-3.30962 2.87265,-6.78677 3.93904,-10.2582 2.83397,-9.22979 4.375,-18.71529 5.42485,-27.40018 1.48837,-12.3452 1.96206,-24.01251 2.08311,-33.69836 0,0 0,0 0,0 0.28185,-22.63451 -1.12195,-36.69282 -0.63609,-36.74155 0.48586,-0.0487 2.77771,13.94824 3.13136,36.7376 0,0 0,1e-5 0,1e-5 0.15202,9.76629 -0.0899,21.51704 -1.43036,34.06012 -0.9383,8.80671 -2.42276,18.48619 -5.28777,28.03912 -1.07764,3.59484 -2.38663,7.24391 -4.09141,10.77972 -1.35042,2.81225 -2.99737,5.61568 -5.13934,8.12265 -0.83299,0.98234 -1.76563,1.91874 -2.80164,2.75768 -1.08729,0.88047 -2.28031,1.64698 -3.58187,2.24767 -2.4012,1.08248 -5.0599,1.44185 -7.61683,1.08431 -3.07643,-0.45545 -5.85001,-1.75646 -8.22957,-3.34369 -3.35992,-2.22057 -6.20665,-4.98678 -8.70369,-7.80523 C 92.204141,230.4896 86.07807,219.15386 81.301101,209.693 65.684321,178.82373 59.291424,156.66512 59.873789,156.44627 Z"
         inkscape:connector-curvature="0"
         sodipodi:nodetypes="cc" /></g><g
       id="g2"
       transform="matrix(0.35277778,0,0,0.35277778,143.19964,111.53779)"
       style="fill:#cccccc"><path
         d="m 53.125,68.75 c 0,1.2656 -0.76172,2.4023 -1.9297,2.8867 -1.168,0.48438 -2.5117,0.21484 -3.4062,-0.67578 -0.89062,-0.89453 -1.1602,-2.2383 -0.67578,-3.4062 0.48438,-1.168 1.6211,-1.9297 2.8867,-1.9297 0.82812,0 1.625,0.32812 2.2109,0.91406 0.58594,0.58594 0.91406,1.3828 0.91406,2.2109 z"
         id="path1"
         style="fill:#cccccc" /><path
         d="m 92.188,18.75 h -12.5 c -0.0078,-2.5859 -2.1016,-4.6797 -4.6875,-4.6875 h -29.969 c -0.38281,0 -0.75391,-0.14062 -1.0469,-0.39062 l -7,-6.2344 c -0.85938,-0.76562 -1.9727,-1.1875 -3.125,-1.1875 h -13.547 c -2.5859,0.00781 -4.6797,2.1016 -4.6875,4.6875 v 7.8125 H 7.8126 c -2.4766,-0.10156 -4.5742,1.8203 -4.6875,4.2969 v 49.219 c 0.11328,2.4766 2.2109,4.3984 4.6875,4.2969 h 33.113 l -4.3438,7.8125 h -0.64453 c -2.5898,0 -4.6875,2.0977 -4.6875,4.6875 0,2.5898 2.0977,4.6875 4.6875,4.6875 h 28.125 c 2.5898,0 4.6875,-2.0977 4.6875,-4.6875 0,-2.5898 -2.0977,-4.6875 -4.6875,-4.6875 h -0.64453 l -4.3438,-7.8125 h 33.113 c 2.4766,0.10156 4.5742,-1.8203 4.6875,-4.2969 v -49.219 c -0.11328,-2.4766 -2.2109,-4.3984 -4.6875,-4.2969 z M 18.75,10.9375 c 0.0039,-0.86328 0.69922,-1.5586 1.5625,-1.5625 h 13.547 c 0.38672,0 0.75781,0.13672 1.0469,0.39062 l 7,6.2344 c 0.85938,0.76562 1.9727,1.1875 3.125,1.1875 h 29.969 c 0.86328,0.0039 1.5586,0.69922 1.5625,1.5625 v 6.25 h -3.125 v -1.5625 c 0,-2.5898 -2.0977,-4.6875 -4.6875,-4.6875 h -42.188 c -2.5898,0 -4.6875,2.0977 -4.6875,4.6875 v 2.8203 c -0.69922,0.64453 -1.1836,1.4883 -1.3906,2.4141 l -1.7344,7.7656 z m 6.25,12.5 c 0,-0.86328 0.69922,-1.5625 1.5625,-1.5625 h 42.188 c 0.41406,0 0.8125,0.16406 1.1055,0.45703 0.293,0.29297 0.45703,0.69141 0.45703,1.1055 v 1.5625 h -45.25 c -0.14453,0.13281 -0.02344,-1.5625 -0.0625,-1.5625 z m -6.25,27.375 4.7812,-21.469 c 0.16406,-0.71484 0.80078,-1.2188 1.5312,-1.2188 h 56.312 c 0.47656,0 0.92578,0.21484 1.2227,0.58594 0.29688,0.37109 0.41016,0.85547 0.30859,1.3203 l -4.875,21.875 c -0.16016,0.69141 -0.76172,1.1875 -1.4688,1.2188 h -56.25 c -1.25,0.01563 -1.7148,-1.2461 -1.5625,-2.3125 z M 7.812,21.8745 h 7.8125 v 29.688 c 0.0078,2.5859 2.1016,4.6797 4.6875,4.6875 H 76.5 c 2.2031,0.01172 4.1094,-1.5195 4.5781,-3.6719 l 4.875,-21.875 C 86.24998,29.3164 85.910131,27.8672 85.01951,26.7617 84.13279,25.6562 82.79291,25.0078 81.37501,25 h -1.6875 v -3.125 h 12.5 c 0.84766,0 1.5625,0.53906 1.5625,1.1719 v 37.891 h -87.5 v -37.891 c 0,-0.63281 0.71484,-1.1719 1.5625,-1.1719 z m 57.812,67.188 c 0,0.86328 -0.69922,1.5625 -1.5625,1.5625 h -28.125 c -0.86328,0 -1.5625,-0.69922 -1.5625,-1.5625 0,-0.86328 0.69922,-1.5625 1.5625,-1.5625 h 28.125 c 0.86328,0 1.5625,0.69922 1.5625,1.5625 z M 59.8428,84.375 h -19.688 l 4.3438,-7.8125 h 10.996 z M 92.1868,73.437 H 7.8118 c -0.84766,0 -1.5625,-0.53516 -1.5625,-1.1719 V 64.062 h 87.5 v 8.2031 c 0,0.63672 -0.71484,1.1719 -1.5625,1.1719 z"
         id="path2"
         style="fill:#cccccc" /></g></g></svg>
