<?xml version="1.0" encoding="UTF-8" standalone="no"?>
<!-- Created with Inkscape (http://www.inkscape.org/) -->

<svg
   xmlns:ns0="http://www.iki.fi/pav/software/textext/"
   xmlns:dc="http://purl.org/dc/elements/1.1/"
   xmlns:cc="http://creativecommons.org/ns#"
   xmlns:rdf="http://www.w3.org/1999/02/22-rdf-syntax-ns#"
   xmlns:svg="http://www.w3.org/2000/svg"
   xmlns="http://www.w3.org/2000/svg"
   xmlns:sodipodi="http://sodipodi.sourceforge.net/DTD/sodipodi-0.dtd"
   xmlns:inkscape="http://www.inkscape.org/namespaces/inkscape"
   width="161.84892"
   height="252.04768"
   id="svg2"
   version="1.1"
   inkscape:version="0.47 r22583"
   sodipodi:docname="axis_tilt.svg">
  <sodipodi:namedview
     id="base"
     pagecolor="#ffffff"
     bordercolor="#666666"
     borderopacity="1.0"
     inkscape:pageopacity="0.0"
     inkscape:pageshadow="2"
     inkscape:zoom="2.8566024"
     inkscape:cx="80.924463"
     inkscape:cy="126.02384"
     inkscape:document-units="px"
     inkscape:current-layer="layer1"
     showgrid="false"
     inkscape:window-width="1272"
     inkscape:window-height="944"
     inkscape:window-x="-4"
     inkscape:window-y="-4"
     inkscape:window-maximized="1"
     units="mm" />
  <defs
     id="defs4">
    <inkscape:perspective
       sodipodi:type="inkscape:persp3d"
       inkscape:vp_x="0 : 526.18109 : 1"
       inkscape:vp_y="0 : 1000 : 0"
       inkscape:vp_z="744.09448 : 526.18109 : 1"
       inkscape:persp3d-origin="372.04724 : 350.78739 : 1"
       id="perspective10" />
    <inkscape:perspective
       id="perspective3602"
       inkscape:persp3d-origin="0.5 : 0.33333333 : 1"
       inkscape:vp_z="1 : 0.5 : 1"
       inkscape:vp_y="0 : 1000 : 0"
       inkscape:vp_x="0 : 0.5 : 1"
       sodipodi:type="inkscape:persp3d" />
    <inkscape:perspective
       id="perspective3628"
       inkscape:persp3d-origin="0.5 : 0.33333333 : 1"
       inkscape:vp_z="1 : 0.5 : 1"
       inkscape:vp_y="0 : 1000 : 0"
       inkscape:vp_x="0 : 0.5 : 1"
       sodipodi:type="inkscape:persp3d" />
  </defs>
  <metadata
     id="metadata7">
    <rdf:RDF>
      <cc:Work
         rdf:about="">
        <dc:format>image/svg+xml</dc:format>
        <dc:type
           rdf:resource="http://purl.org/dc/dcmitype/StillImage" />
        <dc:title />
      </cc:Work>
    </rdf:RDF>
  </metadata>
  <g
     inkscape:label="Layer 1"
     inkscape:groupmode="layer"
     id="layer1"
     transform="translate(-275.11487,-275.40153)">
    <path
       sodipodi:type="arc"
       style="fill:#00ff00;stroke:#cc6800;stroke-width:0.95766801;stroke-linejoin:bevel;stroke-miterlimit:4;stroke-opacity:1;stroke-dasharray:none;stroke-dashoffset:0"
       id="path3660"
       sodipodi:cx="313.90286"
       sodipodi:cy="421.54037"
       sodipodi:rx="28.536625"
       sodipodi:ry="19.256422"
       d="m 341.27402,416.09335 c 0.7593,1.73737 1.15153,3.53834 1.1651,5.34966"
       transform="matrix(0.85777132,0,0,1.2711551,33.556504,-126.1042)"
       sodipodi:start="5.9964026"
       sodipodi:end="6.2781291"
       sodipodi:open="true" />
    <path
       sodipodi:type="arc"
       style="fill:none;stroke:#3fb49c;stroke-width:1;stroke-linejoin:bevel;stroke-miterlimit:4;stroke-opacity:1;stroke-dasharray:none;stroke-dashoffset:0"
       id="path3658"
       sodipodi:cx="325.27112"
       sodipodi:cy="474.66956"
       sodipodi:rx="20.880457"
       sodipodi:ry="37.58482"
       d="m 315.94152,441.04509 c 3.27364,-2.94295 6.91946,-4.28571 10.57219,-3.89374"
       sodipodi:start="4.2491926"
       sodipodi:end="4.7719339"
       transform="translate(78.881726,34.336752)"
       sodipodi:open="true" />
    <rect
       style="fill:#b6db74;fill-opacity:1;stroke:#000000;stroke-width:0.96499997;stroke-linejoin:bevel;stroke-miterlimit:4;stroke-opacity:1;stroke-dasharray:none;stroke-dashoffset:0"
       id="rect3616"
       width="139.03493"
       height="99.03492"
       x="178.77065"
       y="377.66208"
       transform="matrix(0.96156474,-0.27457832,0.27457832,0.96156474,0,0)" />
    <path
       style="fill:none;stroke:#000000;stroke-width:5;stroke-linecap:butt;stroke-linejoin:miter;stroke-miterlimit:4;stroke-opacity:1;stroke-dasharray:none"
       d="M 405.113,514.98728 356.97748,345.32504"
       id="path3642"
       sodipodi:nodetypes="cc" />
    <path
       sodipodi:type="arc"
       style="fill:#ff0000;fill-opacity:1;stroke:#7d0000;stroke-width:0.96499997;stroke-linejoin:bevel;stroke-miterlimit:4;stroke-opacity:1;stroke-dasharray:none;stroke-dashoffset:0"
       id="path3618"
       sodipodi:cx="433"
       sodipodi:cy="451.36218"
       sodipodi:rx="15"
       sodipodi:ry="14"
       d="m 448,451.36218 c 0,7.73199 -6.71573,14 -15,14 -8.28427,0 -15,-6.26801 -15,-14 0,-7.73198 6.71573,-14 15,-14 8.28427,0 15,6.26802 15,14 z"
       transform="matrix(0.77548371,-0.2214422,0.2372595,0.8308754,-85.624601,67.68407)" />
    <path
       style="fill:none;stroke:#000000;stroke-width:1px;stroke-linecap:butt;stroke-linejoin:miter;stroke-opacity:1"
       d="m 405.54487,515.03843 0,-68.6735"
       id="path3650" />
    <path
       style="fill:none;stroke:#000000;stroke-width:1px;stroke-linecap:butt;stroke-linejoin:miter;stroke-opacity:1"
       d="m 302.53462,409.70813 53.82517,0"
       id="path3652" />
    <path
       sodipodi:type="arc"
       style="fill:#ff0000;fill-opacity:1;stroke:#7d0000;stroke-width:0.96499997;stroke-linejoin:bevel;stroke-miterlimit:4;stroke-opacity:1;stroke-dasharray:none;stroke-dashoffset:0"
       id="path3618-7"
       sodipodi:cx="433"
       sodipodi:cy="451.36218"
       sodipodi:rx="15"
       sodipodi:ry="14"
       d="m 448,451.36218 c 0,7.73199 -6.71573,14 -15,14 -8.28427,0 -15,-6.26801 -15,-14 0,-7.73198 6.71573,-14 15,-14 8.28427,0 15,6.26802 15,14 z"
       transform="matrix(0.77548371,-0.2214422,0.2372595,0.8308754,-37.617108,235.80482)" />
    <g
       id="content"
       transform="matrix(1,0,0,-1,101.31988,1125.9163)"
       xml:space="preserve"
       stroke-miterlimit="10.433"
       font-style="normal"
       font-variant="normal"
       font-weight="normal"
       font-stretch="normal"
       font-size-adjust="none"
       letter-spacing="normal"
       word-spacing="normal"
       ns0:text="$\\alpha_{detector}$"
       ns0:preamble=""
       style="font-style:normal;font-variant:normal;font-weight:normal;font-stretch:normal;letter-spacing:normal;word-spacing:normal;text-anchor:start;fill:none;stroke:#000000;stroke-linecap:butt;stroke-linejoin:miter;stroke-miterlimit:10.43299961;stroke-opacity:1;stroke-dasharray:none;stroke-dashoffset:0">
<path
   d="m 228.18,709.48 0,0.07 0,0.07 0,0.07 -0.01,0.07 -0.01,0.13 -0.02,0.12 -0.02,0.12 -0.03,0.12 -0.03,0.1 -0.03,0.11 -0.04,0.09 -0.04,0.1 -0.05,0.08 -0.05,0.08 -0.05,0.08 -0.05,0.07 -0.06,0.07 -0.06,0.06 -0.06,0.06 -0.07,0.05 -0.06,0.05 -0.07,0.04 -0.07,0.04 -0.07,0.04 -0.07,0.03 -0.07,0.03 -0.07,0.02 -0.07,0.02 -0.07,0.02 -0.08,0.02 -0.07,0.01 -0.07,0 -0.07,0.01 -0.07,0 c -1.36,0 -2.67,-1.43 -2.67,-2.83 0,-0.93 0.59,-1.69 1.6,-1.69 l 0.02,0.22 c -0.59,0 -0.89,0.45 -0.89,1.09 0,0.49 0.26,1.57 0.58,2.07 0.46,0.73 1,0.92 1.35,0.92 0.99,0 0.99,-1.3 0.99,-2.08 0,-0.37 0,-0.95 0.02,-1.12 h 0 c -0.88,-0.77 -1.65,-0.88 -2.05,-0.88 l -0.02,-0.22 c 0.63,0 1.35,0.23 2.11,0.84 0.13,-0.53 0.45,-0.84 0.9,-0.84 0.53,0 0.84,0.55 0.84,0.71 0,0.07 -0.06,0.1 -0.12,0.1 -0.07,0 -0.1,-0.03 -0.13,-0.1 -0.18,-0.49 -0.54,-0.49 -0.56,-0.49 -0.31,0 -0.31,0.78 -0.31,1.02 0,0.21 0,0.23 0.1,0.35 0.94,1.18 1.15,2.33 1.15,2.34 0,0.02 -0.01,0.1 -0.12,0.1 -0.1,0 -0.1,-0.03 -0.15,-0.21 -0.18,-0.63 -0.51,-1.38 -0.98,-1.97 z"
   id="path3679"
   style="fill:#000000;stroke-width:0" />
<path
   d="m 233.79,710.26 0,0 0,0 0,0 0,0.01 0,0 0,0 0,0 0,0 0,0 0,0.01 0,0 0,0 0.01,0.01 0,0 0,0.01 0,0 0,0.01 0,0 0,0.01 0.01,0.01 0,0 0,0.01 0,0 0,0.01 0,0 0,0 0,0.01 0,0 0,0 0,0 0,0.01 0,0 0,0 0,0 0,0 0,0 0,0 0,0 0,0 0.01,0 c 0,0.04 -0.03,0.1 -0.12,0.1 -0.14,0 -0.71,-0.06 -0.89,-0.07 -0.05,-0.01 -0.15,-0.01 -0.15,-0.16 0,-0.1 0.1,-0.1 0.18,-0.1 0.33,0 0.33,-0.05 0.33,-0.1 0,-0.05 -0.01,-0.09 -0.02,-0.15 l -0.4,-1.6 c -0.15,0.24 -0.39,0.42 -0.72,0.42 v -0.2 c 0.49,0 0.62,-0.53 0.62,-0.61 0,-0.02 -0.01,-0.07 -0.02,-0.09 l -0.33,-1.31 c -0.05,-0.19 -0.2,-0.33 -0.35,-0.47 -0.07,-0.05 -0.35,-0.27 -0.65,-0.27 -0.25,0 -0.5,0.18 -0.5,0.67 0,0.37 0.2,1.14 0.36,1.42 0.32,0.56 0.67,0.66 0.87,0.66 v 0.2 c -0.89,0 -1.79,-0.99 -1.79,-1.99 0,-0.68 0.45,-1.16 1.04,-1.16 0.38,0 0.71,0.22 0.99,0.49 0.14,-0.42 0.54,-0.49 0.72,-0.49 0.25,0 0.43,0.15 0.55,0.37 0.16,0.27 0.25,0.67 0.25,0.7 0,0.09 -0.09,0.09 -0.11,0.09 -0.1,0 -0.11,-0.03 -0.16,-0.22 -0.08,-0.33 -0.21,-0.74 -0.51,-0.74 -0.18,0 -0.23,0.15 -0.23,0.34 0,0.13 0.02,0.19 0.04,0.28 z"
   id="path3681"
   style="fill:#000000;stroke-width:0" />
<path
   d="m 235.51,707.22 0.02,0 0.02,0 0.03,0 0.02,0 0.03,0 0.03,0 0.03,0 0.03,0 0.03,0.01 0.04,0 0.03,0 0.04,0 0.03,0 0.04,0.01 0.08,0 0.08,0.01 0.08,0.01 0.08,0.01 0.08,0.02 0.08,0.01 0.04,0.01 0.04,0.01 0.04,0.01 0.03,0.01 0.04,0.01 0.04,0.02 c 0.51,0.18 0.61,0.51 0.61,0.72 0,0.39 -0.38,0.62 -0.86,0.62 v -0.2 c 0.3,0 0.56,-0.15 0.56,-0.42 0,-0.67 -1.18,-0.68 -1.48,-0.68 h -0.34 c 0.29,1.02 1.06,1.1 1.26,1.1 v 0.2 c -0.84,0 -1.97,-0.64 -1.97,-1.84 0,-0.7 0.44,-1.31 1.26,-1.31 1.17,0 1.72,0.69 1.72,0.79 0,0.04 -0.06,0.12 -0.11,0.12 -0.05,0 -0.06,-0.02 -0.12,-0.07 -0.54,-0.64 -1.36,-0.64 -1.48,-0.64 -0.42,0 -0.7,0.27 -0.7,0.84 0,0.1 0,0.24 0.08,0.62 z"
   id="path3683"
   style="fill:#000000;stroke-width:0" />
<path
   d="m 239.45,708.39 h 0.71 c 0.13,0 0.22,0 0.22,0.15 0,0.1 -0.09,0.1 -0.21,0.1 h -0.66 l 0.26,1.03 c 0,0.03 0.02,0.07 0.02,0.1 0,0.12 -0.1,0.22 -0.24,0.22 -0.17,0 -0.28,-0.12 -0.32,-0.3 -0.05,-0.17 0.04,0.16 -0.27,-1.05 h -0.71 c -0.13,0 -0.23,0 -0.23,-0.16 0,-0.09 0.09,-0.09 0.21,-0.09 h 0.67 l -0.41,-1.65 c -0.05,-0.17 -0.11,-0.43 -0.11,-0.52 0,-0.41 0.35,-0.66 0.75,-0.66 0.77,0 1.21,0.98 1.21,1.07 0,0.09 -0.09,0.09 -0.11,0.09 -0.08,0 -0.09,-0.01 -0.15,-0.13 -0.19,-0.44 -0.55,-0.83 -0.93,-0.83 -0.15,0 -0.24,0.09 -0.24,0.34 0,0.07 0.02,0.21 0.04,0.28 z"
   id="path3685"
   style="fill:#000000;stroke-width:0" />
<path
   d="m 242.3,707.22 0.02,0 0.02,0 0.03,0 0.02,0 0.03,0 0.03,0 0.03,0 0.03,0 0.03,0.01 0.03,0 0.04,0 0.04,0 0.03,0 0.04,0.01 0.08,0 0.08,0.01 0.08,0.01 0.08,0.01 0.08,0.02 0.08,0.01 0.04,0.01 0.04,0.01 0.04,0.01 0.03,0.01 0.04,0.01 0.04,0.02 c 0.51,0.18 0.61,0.51 0.61,0.72 0,0.39 -0.38,0.62 -0.86,0.62 v -0.2 c 0.3,0 0.56,-0.15 0.56,-0.42 0,-0.67 -1.18,-0.68 -1.48,-0.68 h -0.34 c 0.29,1.02 1.06,1.1 1.26,1.1 v 0.2 c -0.84,0 -1.97,-0.64 -1.97,-1.84 0,-0.7 0.44,-1.31 1.25,-1.31 1.18,0 1.73,0.69 1.73,0.79 0,0.04 -0.06,0.12 -0.11,0.12 -0.05,0 -0.06,-0.02 -0.12,-0.07 -0.54,-0.64 -1.36,-0.64 -1.48,-0.64 -0.42,0 -0.7,0.27 -0.7,0.84 0,0.1 0,0.24 0.09,0.62 z"
   id="path3687"
   style="fill:#000000;stroke-width:0" />
<path
   d="m 247.58,708.3 -0.03,0 -0.02,-0.01 -0.02,0 -0.02,-0.01 -0.02,-0.01 -0.02,-0.01 -0.02,-0.01 -0.02,-0.01 -0.01,-0.01 -0.02,-0.01 -0.01,-0.01 -0.02,-0.01 -0.01,-0.01 -0.01,-0.01 -0.01,-0.02 -0.02,-0.01 -0.01,-0.02 -0.01,-0.01 0,-0.01 -0.01,-0.02 -0.01,-0.01 -0.01,-0.02 0,-0.01 -0.01,-0.02 0,-0.01 -0.01,-0.02 0,-0.01 0,-0.02 -0.01,-0.01 0,-0.02 0,-0.01 0,-0.02 c 0,-0.19 0.15,-0.25 0.27,-0.25 0.16,0 0.4,0.11 0.4,0.44 0,0.47 -0.54,0.61 -0.92,0.61 -1.05,0 -2.01,-0.97 -2.01,-1.93 0,-0.61 0.42,-1.22 1.28,-1.22 1.18,0 1.73,0.69 1.73,0.79 0,0.04 -0.06,0.12 -0.12,0.12 -0.04,0 -0.05,-0.02 -0.11,-0.07 -0.54,-0.64 -1.36,-0.64 -1.48,-0.64 -0.5,0 -0.72,0.34 -0.72,0.77 0,0.2 0.09,0.96 0.45,1.44 0.27,0.35 0.63,0.54 0.98,0.54 0.1,0 0.43,-0.01 0.61,-0.21 z"
   id="path3689"
   style="fill:#000000;stroke-width:0" />
<path
   d="m 249.8,708.39 h 0.71 c 0.13,0 0.22,0 0.22,0.15 0,0.1 -0.09,0.1 -0.21,0.1 h -0.66 l 0.26,1.03 c 0.01,0.03 0.02,0.07 0.02,0.1 0,0.12 -0.1,0.22 -0.24,0.22 -0.17,0 -0.28,-0.12 -0.33,-0.3 -0.04,-0.17 0.05,0.16 -0.26,-1.05 h -0.71 c -0.14,0 -0.22,0 -0.22,-0.16 0,-0.09 0.08,-0.09 0.2,-0.09 h 0.67 l -0.41,-1.65 c -0.05,-0.17 -0.11,-0.43 -0.11,-0.52 0,-0.41 0.35,-0.66 0.75,-0.66 0.77,0 1.21,0.98 1.21,1.07 0,0.09 -0.09,0.09 -0.11,0.09 -0.09,0 -0.09,-0.01 -0.15,-0.13 -0.19,-0.44 -0.55,-0.83 -0.93,-0.83 -0.15,0 -0.24,0.09 -0.24,0.34 0,0.07 0.02,0.21 0.03,0.28 z"
   id="path3691"
   style="fill:#000000;stroke-width:0" />
<path
   d="m 254.8,707.49 0,0.07 -0.01,0.07 -0.01,0.06 -0.01,0.07 -0.01,0.06 -0.02,0.07 -0.02,0.06 -0.02,0.05 -0.03,0.06 -0.03,0.05 -0.03,0.05 -0.03,0.05 -0.04,0.05 -0.04,0.04 -0.04,0.05 -0.04,0.04 -0.04,0.03 -0.05,0.04 -0.05,0.03 -0.05,0.03 -0.05,0.03 -0.05,0.03 -0.05,0.02 -0.06,0.03 -0.06,0.01 -0.06,0.02 -0.06,0.01 -0.06,0.02 -0.06,0.01 -0.06,0 -0.06,0.01 -0.07,0 0,-0.2 c 0.37,0 0.7,-0.26 0.7,-0.77 0,-0.17 -0.09,-0.86 -0.4,-1.35 -0.26,-0.41 -0.68,-0.63 -1.03,-0.63 h 0 c -0.35,0 -0.7,0.22 -0.7,0.77 0,0.29 0.14,0.97 0.41,1.37 0.3,0.43 0.7,0.61 1.02,0.61 l 0,0.2 c -1.03,0 -2,-0.97 -2,-1.93 0,-0.7 0.51,-1.22 1.26,-1.22 1,0 2.01,0.92 2.01,1.93 z"
   id="path3693"
   style="fill:#000000;stroke-width:0" />
<path
   d="m 256.66,707.04 0,0 0,0.01 0,0 0.01,0 0,0.01 0,0.01 0,0 0,0.01 0,0.01 0.01,0.01 0,0.01 0,0.01 0,0.01 0.01,0.01 0,0.02 0.01,0.03 0.01,0.02 0,0.03 0.01,0.03 0.01,0.03 0.01,0.03 0.01,0.06 0.02,0.07 0.01,0.03 0,0.03 0.01,0.03 0.01,0.02 0.01,0.03 0,0.03 0.01,0.02 0,0.01 0,0.01 0.01,0.01 0,0.01 0,0.01 0,0.01 0.01,0 0,0.01 0,0.01 0,0 0,0.01 0,0 0,0 0.01,0 c 0.01,0.06 0.21,0.41 0.43,0.58 0.08,0.05 0.27,0.19 0.57,0.19 0.07,0 0.24,0 0.38,-0.1 -0.22,-0.06 -0.31,-0.25 -0.31,-0.38 0,-0.15 0.12,-0.26 0.28,-0.26 0.16,0 0.39,0.13 0.39,0.43 0,0.36 -0.38,0.51 -0.73,0.51 -0.37,0 -0.68,-0.15 -0.99,-0.5 -0.12,0.43 -0.55,0.5 -0.72,0.5 -0.25,0 -0.43,-0.16 -0.54,-0.36 -0.16,-0.27 -0.26,-0.68 -0.26,-0.71 0,-0.09 0.1,-0.09 0.12,-0.09 0.1,0 0.1,0.02 0.15,0.21 0.11,0.42 0.24,0.75 0.51,0.75 0.19,0 0.23,-0.15 0.23,-0.34 0,-0.13 -0.06,-0.39 -0.11,-0.58 -0.05,-0.19 -0.12,-0.47 -0.15,-0.63 l -0.22,-0.89 c -0.03,-0.09 -0.08,-0.27 -0.08,-0.29 0,-0.15 0.13,-0.22 0.24,-0.22 0.11,0 0.25,0.06 0.3,0.2 0.02,0.04 0.09,0.35 0.14,0.53 z"
   id="path3695"
   style="fill:#000000;stroke-width:0" />
</g>    <g
       ns0:preamble=""
       ns0:text="$\\alpha_{pivot}$"
       word-spacing="normal"
       letter-spacing="normal"
       font-size-adjust="none"
       font-stretch="normal"
       font-weight="normal"
       font-variant="normal"
       font-style="normal"
       stroke-miterlimit="10.433"
       xml:space="preserve"
       transform="matrix(1,0,0,-1,189.1865,1180.5267)"
       id="g3747"
       style="font-style:normal;font-variant:normal;font-weight:normal;font-stretch:normal;letter-spacing:normal;word-spacing:normal;text-anchor:start;fill:none;stroke:#000000;stroke-linecap:butt;stroke-linejoin:miter;stroke-miterlimit:10.43299961;stroke-opacity:1;stroke-dasharray:none;stroke-dashoffset:0">
<path
   id="path3749"
   d="m 228.18,709.48 0,0.07 0,0.07 0,0.07 -0.01,0.07 -0.01,0.13 -0.02,0.12 -0.02,0.12 -0.03,0.12 -0.03,0.1 -0.03,0.11 -0.04,0.09 -0.04,0.1 -0.05,0.08 -0.05,0.08 -0.05,0.08 -0.05,0.07 -0.06,0.07 -0.06,0.06 -0.06,0.06 -0.07,0.05 -0.06,0.05 -0.07,0.04 -0.07,0.04 -0.07,0.04 -0.07,0.03 -0.07,0.03 -0.07,0.02 -0.07,0.02 -0.07,0.02 -0.08,0.02 -0.07,0.01 -0.07,0 -0.07,0.01 -0.07,0 c -1.36,0 -2.67,-1.43 -2.67,-2.83 0,-0.93 0.59,-1.69 1.6,-1.69 l 0.02,0.22 c -0.59,0 -0.89,0.45 -0.89,1.09 0,0.49 0.26,1.57 0.58,2.07 0.46,0.73 1,0.92 1.35,0.92 0.99,0 0.99,-1.3 0.99,-2.08 0,-0.37 0,-0.95 0.02,-1.12 h 0 c -0.88,-0.77 -1.65,-0.88 -2.05,-0.88 l -0.02,-0.22 c 0.63,0 1.35,0.23 2.11,0.84 0.13,-0.53 0.45,-0.84 0.9,-0.84 0.53,0 0.84,0.55 0.84,0.71 0,0.07 -0.06,0.1 -0.12,0.1 -0.07,0 -0.1,-0.03 -0.13,-0.1 -0.18,-0.49 -0.54,-0.49 -0.56,-0.49 -0.31,0 -0.31,0.78 -0.31,1.02 0,0.21 0,0.23 0.1,0.35 0.94,1.18 1.15,2.33 1.15,2.34 0,0.02 -0.01,0.1 -0.12,0.1 -0.1,0 -0.1,-0.03 -0.15,-0.21 -0.18,-0.63 -0.51,-1.38 -0.98,-1.97 z"
   style="fill:#000000;stroke-width:0" />
<path
   id="path3751"
   d="m 230.33,704.78 -0.01,-0.02 0,-0.01 -0.01,-0.02 0,-0.02 0,-0.01 -0.01,-0.02 0,-0.01 -0.01,-0.01 0,-0.01 -0.01,-0.01 0,-0.02 -0.01,-0.01 0,0 -0.01,-0.01 -0.01,-0.01 -0.01,-0.01 -0.01,-0.01 0,0 -0.02,-0.01 -0.01,0 -0.01,-0.01 -0.01,0 -0.01,-0.01 -0.02,0 -0.02,0 0,0 -0.01,-0.01 -0.01,0 -0.01,0 -0.01,0 -0.01,0 -0.01,0 -0.01,0 -0.01,0 -0.01,0 -0.02,0 -0.01,0 -0.01,0 -0.01,0 c -0.09,0 -0.19,0 -0.19,-0.15 0,-0.07 0.06,-0.1 0.1,-0.1 0.18,0 0.41,0.03 0.59,0.03 0.24,0 0.51,-0.03 0.74,-0.03 0.06,0 0.14,0.02 0.14,0.15 0,0.1 -0.1,0.1 -0.18,0.1 -0.16,0 -0.35,0 -0.35,0.08 0,0.04 0.05,0.22 0.08,0.32 0.09,0.37 0.18,0.75 0.26,1.04 0.08,-0.14 0.3,-0.41 0.72,-0.41 v 0.2 c -0.5,0 -0.62,0.53 -0.62,0.6 0,0.03 0.01,0.08 0.02,0.11 l 0.35,1.4 c 0.4,0.54 0.75,0.64 0.97,0.64 0.27,0 0.51,-0.2 0.51,-0.67 0,-0.29 -0.15,-1 -0.36,-1.41 -0.17,-0.34 -0.52,-0.67 -0.87,-0.67 v -0.2 c 0.85,0 1.79,0.94 1.79,1.98 0,0.82 -0.57,1.17 -1.05,1.17 -0.43,0 -0.8,-0.3 -0.99,-0.49 -0.11,0.4 -0.51,0.49 -0.72,0.49 -0.27,0 -0.44,-0.18 -0.55,-0.37 -0.14,-0.24 -0.25,-0.66 -0.25,-0.7 0,-0.09 0.1,-0.09 0.12,-0.09 0.1,0 0.11,0.02 0.15,0.21 0.11,0.4 0.24,0.75 0.51,0.75 0.19,0 0.23,-0.15 0.23,-0.34 0,-0.08 -0.01,-0.17 -0.02,-0.21 z"
   style="fill:#000000;stroke-width:0" />
<path
   id="path3753"
   d="m 236.17,709.99 0,0.01 0,0.01 0,0.01 0,0.01 -0.01,0.01 0,0.02 0,0.01 -0.01,0.01 0,0.01 0,0.01 -0.01,0.01 -0.01,0.01 0,0.01 -0.01,0.01 -0.01,0.01 0,0.01 -0.01,0.01 -0.01,0.01 -0.01,0.01 -0.01,0.01 -0.01,0 -0.02,0.01 -0.01,0.01 -0.01,0 -0.02,0.01 -0.01,0.01 -0.01,0 -0.02,0 -0.02,0.01 -0.01,0 -0.02,0 -0.02,0 c -0.19,0 -0.39,-0.18 -0.39,-0.38 0,-0.12 0.09,-0.27 0.28,-0.27 0.2,0 0.39,0.2 0.39,0.39 z"
   style="fill:#000000;stroke-width:0" />
<path
   id="path3755"
   d="m 234.75,706.45 -0.01,-0.02 0,-0.02 -0.01,-0.03 -0.01,-0.02 0,-0.01 -0.01,-0.02 0,-0.02 -0.01,-0.02 0,-0.01 -0.01,-0.02 0,-0.02 0,-0.01 0,-0.01 0,-0.01 0,-0.01 0,-0.01 0,-0.01 0,-0.01 0,-0.02 c 0,-0.32 0.27,-0.59 0.66,-0.59 0.7,0 1,0.96 1,1.07 0,0.09 -0.09,0.09 -0.11,0.09 -0.1,0 -0.1,-0.04 -0.13,-0.12 -0.16,-0.56 -0.47,-0.84 -0.74,-0.84 -0.14,0 -0.17,0.09 -0.17,0.24 0,0.16 0.04,0.29 0.11,0.45 0.07,0.19 0.14,0.37 0.22,0.56 0.06,0.16 0.31,0.8 0.34,0.88 0.02,0.07 0.04,0.15 0.04,0.22 0,0.33 -0.28,0.6 -0.66,0.6 -0.69,0 -1.01,-0.95 -1.01,-1.07 0,-0.09 0.1,-0.09 0.12,-0.09 0.1,0 0.1,0.03 0.12,0.11 0.18,0.6 0.49,0.85 0.75,0.85 0.11,0 0.17,-0.05 0.17,-0.24 0,-0.16 -0.04,-0.27 -0.21,-0.7 z"
   style="fill:#000000;stroke-width:0" />
<path
   id="path3757"
   d="m 240.45,708.16 0,0.03 0,0.02 0,0.03 0,0.02 -0.01,0.02 0,0.02 0,0.02 0,0.02 -0.01,0.02 0,0.02 -0.01,0.02 0,0.01 0,0.02 -0.01,0.02 -0.01,0.01 0,0.02 -0.01,0.01 0,0.02 -0.01,0.01 -0.01,0.01 0,0.01 -0.01,0.01 -0.01,0.02 0,0.01 -0.01,0.01 -0.01,0 -0.01,0.02 -0.02,0.02 -0.01,0.01 -0.02,0.01 -0.02,0.01 -0.01,0.01 -0.02,0.01 -0.01,0.01 -0.01,0 -0.02,0.01 -0.01,0 -0.01,0.01 -0.01,0 -0.01,0 -0.01,0 -0.01,0 -0.01,0 0,0 0,0 c -0.18,0 -0.38,-0.18 -0.38,-0.37 0,-0.12 0.07,-0.17 0.12,-0.21 0.12,-0.1 0.25,-0.28 0.25,-0.56 0,-0.31 -0.45,-1.81 -1.28,-1.81 -0.57,0 -0.57,0.5 -0.57,0.62 0,0.32 0.13,0.71 0.38,1.36 0.06,0.14 0.1,0.25 0.1,0.37 0,0.36 -0.3,0.6 -0.66,0.6 -0.7,0 -1.01,-0.96 -1.01,-1.07 0,-0.09 0.1,-0.09 0.12,-0.09 0.09,0 0.1,0.03 0.12,0.11 0.17,0.57 0.47,0.85 0.75,0.85 0.12,0 0.17,-0.08 0.17,-0.24 0,-0.16 -0.05,-0.31 -0.12,-0.47 -0.3,-0.77 -0.38,-1.07 -0.38,-1.33 0,-0.69 0.54,-0.91 1.07,-0.91 1.18,0 1.66,2.03 1.66,2.6 z"
   style="fill:#000000;stroke-width:0" />
<path
   id="path3759"
   d="m 244.66,707.49 0,0.07 0,0.07 -0.01,0.06 -0.01,0.07 -0.02,0.06 -0.01,0.07 -0.02,0.06 -0.03,0.05 -0.02,0.06 -0.03,0.05 -0.03,0.05 -0.03,0.05 -0.04,0.05 -0.04,0.04 -0.04,0.05 -0.04,0.04 -0.04,0.03 -0.05,0.04 -0.05,0.03 -0.05,0.03 -0.05,0.03 -0.05,0.03 -0.05,0.02 -0.06,0.03 -0.06,0.01 -0.05,0.02 -0.06,0.01 -0.06,0.02 -0.06,0.01 -0.07,0 -0.06,0.01 -0.06,0 -0.01,-0.2 c 0.38,0 0.7,-0.26 0.7,-0.77 0,-0.17 -0.09,-0.86 -0.39,-1.35 -0.27,-0.41 -0.69,-0.63 -1.03,-0.63 h 0 c -0.35,0 -0.7,0.22 -0.7,0.77 0,0.29 0.13,0.97 0.4,1.37 0.3,0.43 0.71,0.61 1.02,0.61 l 0.01,0.2 c -1.03,0 -2.01,-0.97 -2.01,-1.93 0,-0.7 0.51,-1.22 1.27,-1.22 0.99,0 1.99,0.92 1.99,1.93 z"
   style="fill:#000000;stroke-width:0" />
<path
   id="path3761"
   d="m 246.62,708.39 h 0.71 c 0.13,0 0.22,0 0.22,0.15 0,0.1 -0.09,0.1 -0.21,0.1 h -0.66 l 0.25,1.03 c 0.01,0.03 0.03,0.07 0.03,0.1 0,0.12 -0.1,0.22 -0.24,0.22 -0.18,0 -0.28,-0.12 -0.33,-0.3 -0.05,-0.17 0.04,0.16 -0.26,-1.05 h -0.72 c -0.13,0 -0.22,0 -0.22,-0.16 0,-0.09 0.09,-0.09 0.21,-0.09 h 0.66 l -0.41,-1.65 c -0.04,-0.17 -0.1,-0.43 -0.1,-0.52 0,-0.41 0.35,-0.66 0.74,-0.66 0.78,0 1.22,0.98 1.22,1.07 0,0.09 -0.09,0.09 -0.11,0.09 -0.09,0 -0.1,-0.01 -0.15,-0.13 -0.2,-0.44 -0.55,-0.83 -0.93,-0.83 -0.15,0 -0.25,0.09 -0.25,0.34 0,0.07 0.03,0.21 0.04,0.28 z"
   style="fill:#000000;stroke-width:0" />
</g>  </g>
</svg>
