<?xml version="1.0" encoding="UTF-8" standalone="no"?>
<!-- Created with Inkscape (http://www.inkscape.org/) -->

<svg
   xmlns:dc="http://purl.org/dc/elements/1.1/"
   xmlns:cc="http://creativecommons.org/ns#"
   xmlns:rdf="http://www.w3.org/1999/02/22-rdf-syntax-ns#"
   xmlns:svg="http://www.w3.org/2000/svg"
   xmlns="http://www.w3.org/2000/svg"
   xmlns:sodipodi="http://sodipodi.sourceforge.net/DTD/sodipodi-0.dtd"
   xmlns:inkscape="http://www.inkscape.org/namespaces/inkscape"
   width="121.65236mm"
   height="129.59453mm"
   viewBox="0 0 121.65236 129.59453"
   version="1.1"
   id="svg8"
   inkscape:version="0.92.2 5c3e80d, 2017-08-06"
   sodipodi:docname="muh4_icon.svg">
  <defs
     id="defs2">
    <inkscape:path-effect
       effect="skeletal"
       id="path-effect886"
       is_visible="true"
       pattern="M 0,5 C 0,2.24 2.24,0 5,0 7.76,0 10,2.24 10,5 10,7.76 7.76,10 5,10 2.24,10 0,7.76 0,5 Z"
       copytype="single_stretched"
       prop_scale="0.26458333"
       scale_y_rel="false"
       spacing="0"
       normal_offset="0"
       tang_offset="0"
       prop_units="false"
       vertical_pattern="false"
       fuse_tolerance="0" />
    <inkscape:path-effect
       effect="skeletal"
       id="path-effect817"
       is_visible="true"
       pattern="m 3.8149486,9.9594332 c 0,-2.76 2.2400001,-5 5,-5 2.7600004,0 5.0000004,2.24 5.0000004,5 0,2.7599998 -2.24,4.9999998 -5.0000004,4.9999998 -2.7599999,0 -5,-2.24 -5,-4.9999998 z"
       copytype="single_stretched"
       prop_scale="0.35"
       scale_y_rel="false"
       spacing="0"
       normal_offset="0"
       tang_offset="0"
       prop_units="false"
       vertical_pattern="false"
       fuse_tolerance="0" />
    <inkscape:path-effect
       effect="skeletal"
       id="path-effect817-7"
       is_visible="true"
       pattern="m 45.837231,143.60408 c 0,-2.76 2.24,-5 5,-5 2.76,0 5,2.24 5,5 0,2.76 -2.24,5 -5,5 -2.76,0 -5,-2.24 -5,-5 z"
       copytype="single_stretched"
       prop_scale="0.35"
       scale_y_rel="false"
       spacing="0"
       normal_offset="0"
       tang_offset="0"
       prop_units="false"
       vertical_pattern="false"
       fuse_tolerance="0" />
  </defs>
  <sodipodi:namedview
     id="base"
     pagecolor="#ffffff"
     bordercolor="#666666"
     borderopacity="1.0"
     inkscape:pageopacity="0.0"
     inkscape:pageshadow="2"
     inkscape:zoom="1.3870873"
     inkscape:cx="176.37494"
     inkscape:cy="271.30961"
     inkscape:document-units="mm"
     inkscape:current-layer="layer1"
     showgrid="false"
     fit-margin-top="2"
     fit-margin-left="2"
     fit-margin-right="2"
     fit-margin-bottom="2"
     inkscape:window-width="1867"
     inkscape:window-height="1155"
     inkscape:window-x="419"
     inkscape:window-y="56"
     inkscape:window-maximized="0" />
  <metadata
     id="metadata5">
    <rdf:RDF>
      <cc:Work
         rdf:about="">
        <dc:format>image/svg+xml</dc:format>
        <dc:type
           rdf:resource="http://purl.org/dc/dcmitype/StillImage" />
        <dc:title></dc:title>
      </cc:Work>
    </rdf:RDF>
  </metadata>
  <g
     inkscape:label="Layer 1"
     inkscape:groupmode="layer"
     id="layer1"
     transform="translate(-38.657345,-124.28992)">
    <g
       id="g943"
       inkscape:export-xdpi="215.9903"
       inkscape:export-ydpi="215.9903">
      <path
         sodipodi:nodetypes="cc"
         inkscape:connector-curvature="0"
         d="m 40.661796,174.58478 c 0.209967,-0.28872 3.947531,2.30676 10.870623,5.62243 6.78919,3.25154 17.281794,7.29896 29.845667,7.81309 8.98284,0.38251 18.755044,-0.99658 28.616954,-4.6115 2.60513,-0.95492 5.12374,-2.03267 7.54394,-3.21211 11.75666,-5.7385 20.77343,-13.45204 27.23613,-21.16722 3.8653,-4.61638 6.60058,-8.96703 8.57792,-12.92406 3.89704,-7.80876 4.42441,-13.1413 4.80724,-13.10211 0.2347,0.024 0.65894,5.44875 -2.93572,13.96184 -1.78012,4.22168 -4.41834,8.91425 -8.25918,13.8342 -6.42349,8.2319 -15.66964,16.4777 -27.8931,22.51873 -2.52019,1.24737 -5.14823,2.38157 -7.8716,3.37983 -10.31141,3.77972 -20.5829,5.10758 -29.991344,4.51917 -13.20222,-0.84639 -23.868324,-5.47462 -30.575088,-9.29588 -6.860414,-3.90882 -10.114433,-7.14116 -9.972442,-7.33641 z"
         id="path815"
         inkscape:original-d="M 40.661796,174.58478 C 94.661095,213.85504 154.54654,168.30194 158.16027,133.00331"
         inkscape:path-effect="#path-effect817"
         style="fill:#000000;fill-rule:evenodd;stroke:none;stroke-width:0.19341271px;stroke-linecap:butt;stroke-linejoin:miter;stroke-opacity:1" />
      <path
         sodipodi:nodetypes="cc"
         inkscape:connector-curvature="0"
         d="m 58.215555,161.99607 c 0.563106,-0.26449 9.719087,20.88168 28.106911,49.80903 5.648337,8.87093 12.665465,19.42933 21.578954,27.82957 2.622,2.46614 5.45914,4.8067 8.61561,6.5113 2.23426,1.19268 4.62361,2.11858 7.01599,2.23304 1.92296,0.11211 3.91062,-0.32064 5.60735,-1.26664 0.95701,-0.51891 1.84245,-1.20063 2.66457,-1.9939 0.78321,-0.75573 1.50363,-1.60757 2.16785,-2.50414 1.70273,-2.31934 2.98455,-4.9808 4.05979,-7.7085 1.34441,-3.42745 2.32355,-6.99382 3.11036,-10.53909 2.09061,-9.42602 2.87206,-19.00405 3.22757,-27.74494 0.5014,-12.42449 0.0453,-24.09249 -0.6047,-33.75727 0,0 0,0 0,0 -1.51996,-22.58518 -4.03786,-36.48723 -3.55741,-36.57446 0.29637,-0.0538 3.8747,13.64127 6.04445,36.37199 0,0 0,1e-5 0,1e-5 0.92859,9.72322 1.62238,21.45598 1.28416,34.06594 -0.23462,8.85345 -0.94423,18.62035 -3.04008,28.37095 -0.7882,3.66918 -1.8027,7.41084 -3.22075,11.07108 -1.12239,2.91078 -2.54106,5.83636 -4.47677,8.50581 -0.75219,1.0455 -1.60737,2.05314 -2.57334,2.97184 -1.0138,0.96419 -2.14205,1.8232 -3.39168,2.52554 -2.30746,1.27011 -4.92914,1.83987 -7.50641,1.68691 -3.10292,-0.20924 -5.97121,-1.28544 -8.46953,-2.67831 -3.52594,-1.9462 -6.58374,-4.47714 -9.29711,-7.08797 C 96.334652,233.2323 89.326076,222.41992 83.8115,213.36913 65.741991,183.76469 58.315185,161.94927 58.215555,161.99607 Z"
         id="path815-9"
         inkscape:original-d="M 58.215555,161.99607 C 136.93252,329.58363 157.95576,224.04122 140.2084,126.29008"
         inkscape:path-effect="#path-effect817-7"
         style="fill:#000000;fill-rule:evenodd;stroke:none;stroke-width:0.20027241px;stroke-linecap:butt;stroke-linejoin:miter;stroke-opacity:1" />
      <g
         transform="matrix(0.69232522,-0.20136874,0.20406342,0.70908609,-7.7549185,82.830469)"
         id="g860">
        <ellipse
           style="opacity:1;fill:#000000;fill-opacity:1;stroke:#505050;stroke-width:0.30360496;stroke-linejoin:round;stroke-miterlimit:4;stroke-dasharray:none;stroke-dashoffset:0;stroke-opacity:1"
           id="path841"
           cx="114.6061"
           cy="204.11397"
           rx="4.480762"
           ry="8.2957106" />
        <ellipse
           style="opacity:1;fill:#000000;fill-opacity:1;stroke:#505050;stroke-width:0.30360496;stroke-linejoin:round;stroke-miterlimit:4;stroke-dasharray:none;stroke-dashoffset:0;stroke-opacity:1"
           id="path841-3"
           cx="125.19259"
           cy="203.44635"
           rx="4.480762"
           ry="8.2957106" />
      </g>
      <path
         sodipodi:nodetypes="cc"
         inkscape:connector-curvature="0"
         id="path864"
         d="m 107.10258,240.91001 c 4.64789,-2.21045 8.75459,-3.567 6.58843,4.97403"
         style="fill:#000000;fill-rule:evenodd;stroke:#000000;stroke-width:0.26458332px;stroke-linecap:butt;stroke-linejoin:miter;stroke-opacity:1" />
      <path
         sodipodi:nodetypes="cc"
         inkscape:connector-curvature="0"
         id="path864-8"
         d="m 139.0769,234.98219 c -5.14672,-0.0149 -9.43954,0.51133 -3.83478,7.31047"
         style="fill:#000000;fill-rule:evenodd;stroke:#000000;stroke-width:0.26458332px;stroke-linecap:butt;stroke-linejoin:miter;stroke-opacity:1" />
      <path
         sodipodi:nodetypes="ccsccc"
         inkscape:connector-curvature="0"
         id="path881"
         d="m 73.139493,189.68332 c 6.783059,2.06334 13.56612,-1.78647 20.349178,0.27687 0,0 -7.385132,8.03585 0.96348,11.9963 1.202952,0.57065 5.139323,13.54152 -0.72247,12.43353 -4.587999,-0.99154 -2.629294,2.80483 -3.943942,4.20724 z"
         style="fill:#000000;fill-rule:evenodd;stroke:#000000;stroke-width:0.26458332px;stroke-linecap:butt;stroke-linejoin:miter;stroke-opacity:1" />
      <path
         sodipodi:nodetypes="ccccccc"
         inkscape:connector-curvature="0"
         id="path884"
         d="m 145.15566,198.75746 c -4.19209,0.69427 -4.91582,1.41523 -7.09194,4.78421 -2.60572,1.81575 -1.76507,6.12342 -2.59666,7.39371 -1.77396,1.88072 -4.69531,5.66101 -1.56645,7.21038 1.61053,0.89212 3.33778,1.72868 4.48421,3.22418 0.68706,0.90099 1.69345,1.43998 2.64082,2.01387 0.49164,0.20852 0.79788,1.58522 0.24624,1.6564"
         style="fill:#000000;fill-rule:evenodd;stroke:none;stroke-width:0.26458332px;stroke-linecap:butt;stroke-linejoin:miter;stroke-opacity:1" />
      <ellipse
         ry="1.4306058"
         rx="1.335232"
         cy="207.25333"
         cx="114.82996"
         id="path915"
         style="opacity:1;fill:#ffffff;fill-opacity:1;stroke:#505050;stroke-width:0.30000001;stroke-linejoin:round;stroke-miterlimit:4;stroke-dasharray:none;stroke-dashoffset:0;stroke-opacity:1" />
      <ellipse
         ry="1.4306058"
         rx="1.3352321"
         cy="205.05974"
         cx="120.74313"
         id="path915-0"
         style="opacity:1;fill:#ffffff;fill-opacity:1;stroke:#505050;stroke-width:0.30000001;stroke-linejoin:round;stroke-miterlimit:4;stroke-dasharray:none;stroke-dashoffset:0;stroke-opacity:1" />
    </g>
  </g>
</svg>
