<?xml version="1.0" encoding="UTF-8" standalone="no"?>
<!-- Created with Inkscape (http://www.inkscape.org/) -->

<svg
   width="279.79724mm"
   height="97.740807mm"
   viewBox="0 0 279.79724 97.740807"
   version="1.1"
   id="svg5"
   inkscape:version="1.2-alpha1 (b6a15bb, 2022-02-23)"
   sodipodi:docname="callingmodes.svg"
   xmlns:inkscape="http://www.inkscape.org/namespaces/inkscape"
   xmlns:sodipodi="http://sodipodi.sourceforge.net/DTD/sodipodi-0.dtd"
   xmlns="http://www.w3.org/2000/svg"
   xmlns:svg="http://www.w3.org/2000/svg">
  <sodipodi:namedview
     id="namedview7"
     pagecolor="#ffffff"
     bordercolor="#666666"
     borderopacity="1.0"
     inkscape:pageshadow="2"
     inkscape:pageopacity="0.0"
     inkscape:pagecheckerboard="0"
     inkscape:deskcolor="#d1d1d1"
     inkscape:document-units="mm"
     showgrid="false"
     inkscape:zoom="0.62114087"
     inkscape:cx="519.20589"
     inkscape:cy="97.401415"
     inkscape:window-width="1526"
     inkscape:window-height="713"
     inkscape:window-x="99"
     inkscape:window-y="166"
     inkscape:window-maximized="0"
     inkscape:current-layer="layer1" />
  <defs
     id="defs2" />
  <g
     inkscape:label="Layer 1"
     inkscape:groupmode="layer"
     id="layer1"
     transform="translate(-11.143669,-79.104574)">
    <rect
       style="fill:#80e5ff;fill-opacity:1;stroke:#0070e2;stroke-width:1.23291;stroke-opacity:1"
       id="rect1464"
       width="94.152672"
       height="78.626205"
       x="120.14309"
       y="94.502045" />
    <text
       xml:space="preserve"
       style="font-style:normal;font-weight:normal;font-size:10.5833px;line-height:1.25;font-family:sans-serif;fill:#000000;fill-opacity:1;stroke:none;stroke-width:0.264583"
       x="121.11038"
       y="87.145401"
       id="text11559"><tspan
         sodipodi:role="line"
         id="tspan11557"
         style="stroke-width:0.264583"
         x="121.11038"
         y="87.145401">MuhRec engine</tspan></text>
    <rect
       style="fill:#aaffcc;fill-opacity:1;stroke:#0070e2;stroke-width:1;stroke-opacity:1"
       id="rect11919"
       width="49.080505"
       height="10.067796"
       x="131.64302"
       y="103.93676" />
    <rect
       style="fill:#aaffcc;fill-opacity:1;stroke:#0070e2;stroke-width:1;stroke-opacity:1"
       id="rect11919-7"
       width="49.080505"
       height="10.067796"
       x="138.46756"
       y="109.2671" />
    <rect
       style="fill:#aaffcc;fill-opacity:1;stroke:#0070e2;stroke-width:1;stroke-opacity:1"
       id="rect11919-6"
       width="49.080505"
       height="10.067796"
       x="145.49655"
       y="114.77816" />
    <rect
       style="fill:#00ccff;fill-opacity:1;stroke:#0070e2;stroke-width:1;stroke-opacity:1"
       id="rect11919-6-7"
       width="49.080505"
       height="10.067796"
       x="137.46861"
       y="142.34946" />
    <g
       id="g66241"
       transform="translate(-22.433413,17.359302)">
      <rect
         style="fill:#ffd5d5;fill-opacity:1;stroke:#0070e2;stroke-width:0.77312;stroke-opacity:1"
         id="rect15927"
         width="59.226879"
         height="19.226879"
         x="33.963642"
         y="69.285828" />
      <text
         xml:space="preserve"
         style="font-style:normal;font-weight:normal;font-size:10.5833px;line-height:1.25;font-family:sans-serif;fill:#000000;fill-opacity:1;stroke:none;stroke-width:0.264583"
         x="53.430447"
         y="82.736229"
         id="text15985"><tspan
           sodipodi:role="line"
           id="tspan15983"
           style="stroke-width:0.264583"
           x="53.430447"
           y="82.736229">GUI</tspan></text>
    </g>
    <g
       id="g66350"
       transform="translate(-25.531505,19.915084)">
      <rect
         style="fill:#ffd5d5;fill-opacity:1;stroke:#0070e2;stroke-width:0.752569;stroke-opacity:1"
         id="rect15929"
         width="59.247433"
         height="19.247431"
         x="40.033203"
         y="137.30658" />
      <text
         xml:space="preserve"
         style="font-style:normal;font-weight:normal;font-size:10.5833px;line-height:1.25;font-family:sans-serif;fill:#000000;fill-opacity:1;stroke:none;stroke-width:0.264583"
         x="51.280838"
         y="149.88618"
         id="text15989"><tspan
           sodipodi:role="line"
           id="tspan15987"
           style="stroke-width:0.264583"
           x="51.280838"
           y="149.88618">Python</tspan></text>
    </g>
    <rect
       style="fill:#ffd5d5;fill-opacity:1;stroke:#0070e2;stroke-width:1.05148;stroke-opacity:1"
       id="rect16145"
       width="58.948517"
       height="18.948517"
       x="231.46664"
       y="121.8974" />
    <text
       xml:space="preserve"
       style="font-style:normal;font-weight:normal;font-size:10.5833px;line-height:1.25;font-family:sans-serif;fill:#000000;fill-opacity:1;stroke:none;stroke-width:0.264583"
       x="242.56482"
       y="134.32744"
       id="text16201"><tspan
         sodipodi:role="line"
         id="tspan16199"
         style="stroke-width:0.264583"
         x="242.56482"
         y="134.32744">Python</tspan></text>
    <text
       xml:space="preserve"
       style="font-style:normal;font-weight:normal;font-size:4.93889px;line-height:1.25;font-family:sans-serif;fill:#000000;fill-opacity:1;stroke:none;stroke-width:0.264583"
       x="130.91351"
       y="100.10142"
       id="text26654"><tspan
         sodipodi:role="line"
         id="tspan26652"
         style="font-size:4.93889px;stroke-width:0.264583"
         x="130.91351"
         y="100.10142">Pre-processing</tspan></text>
    <text
       xml:space="preserve"
       style="font-style:normal;font-weight:normal;font-size:4.93889px;line-height:1.25;font-family:sans-serif;fill:#000000;fill-opacity:1;stroke:none;stroke-width:0.264583"
       x="137.64926"
       y="139.82558"
       id="text26654-6"><tspan
         sodipodi:role="line"
         id="tspan26652-7"
         style="font-size:4.93889px;stroke-width:0.264583"
         x="137.64926"
         y="139.82558">Back-projection</tspan></text>
    <g
       fill-rule="evenodd"
       id="g67354"
       transform="matrix(0.35277778,0,0,0.35277778,75.36398,114.73048)">
      <path
         d="m 40.363,60.07 -5.6719,-8.5078 c 0,0 5.6719,-8.5078 5.6719,-8.5078 0.47656,-0.71875 0.28516,-1.6875 -0.43359,-2.168 -0.71875,-0.47656 -1.6875,-0.28516 -2.168,0.43359 l -6.25,9.375 c -0.35156,0.52344 -0.35156,1.2109 0,1.7344 l 6.25,9.375 c 0.47656,0.71875 1.4492,0.91016 2.168,0.43359 0.71875,-0.47656 0.91016,-1.4492 0.43359,-2.168 z"
         id="path67342" />
      <path
         d="m 62.238,61.805 6.25,-9.375 c 0.35156,-0.52344 0.35156,-1.2109 0,-1.7344 l -6.25,-9.375 c -0.47656,-0.71875 -1.4492,-0.91016 -2.168,-0.43359 -0.71875,0.47656 -0.91016,1.4492 -0.43359,2.168 l 5.6719,8.5078 c 0,0 -5.6719,8.5078 -5.6719,8.5078 -0.47656,0.71875 -0.28516,1.6875 0.43359,2.168 0.71875,0.47656 1.6875,0.28516 2.168,-0.43359 z"
         id="path67344" />
      <path
         d="m 45.312,51.562 c 0,2.082 -3.125,2.082 -3.125,0 0,-2.082 3.125,-2.082 3.125,0"
         id="path67346" />
      <path
         d="m 51.562,51.562 c 0,2.082 -3.125,2.082 -3.125,0 0,-2.082 3.125,-2.082 3.125,0"
         id="path67348" />
      <path
         d="m 57.812,51.562 c 0,2.082 -3.125,2.082 -3.125,0 0,-2.082 3.125,-2.082 3.125,0"
         id="path67350" />
      <path
         d="m 58.918,11.395 c -0.29297,-0.29297 -0.69141,-0.45703 -1.1055,-0.45703 h -29.688 c -1.2344,0 -2.418,0.47656 -3.293,1.3125 -0.89844,0.85938 -1.3945,2.0312 -1.3945,3.25 v 69 c 0,1.2188 0.5,2.3867 1.3945,3.25 0.875,0.83984 2.0547,1.3125 3.293,1.3125 h 43.75 c 1.2344,0 2.418,-0.47656 3.293,-1.3125 0.89844,-0.85938 1.3945,-2.0312 1.3945,-3.25 v -54.812 c 0,-0.41406 -0.16406,-0.8125 -0.45703,-1.1055 z m 14.52,69.855 v 3.25 c 0,0.375 -0.16016,0.73047 -0.43359,0.99219 -0.29688,0.28906 -0.70703,0.44531 -1.1289,0.44531 h -43.75 c -0.42188,0 -0.82812,-0.15625 -1.1289,-0.44531 C 26.72317,85.22656 26.56302,84.8711 26.56302,84.5 V 81.25 Z M 56.25,14.062 H 28.125 c -0.42188,0 -0.82812,0.15625 -1.1289,0.44531 -0.27344,0.26563 -0.43359,0.62109 -0.43359,0.99219 v 62.625 h 46.875 v -46.875 h -12.5 c -1.2422,0 -2.4375,-0.49219 -3.3125,-1.375 -0.87891,-0.87891 -1.375,-2.0703 -1.375,-3.3125 z m 3.125,2.2109 v 10.289 c 0,0.41406 0.16406,0.8125 0.45703,1.1055 0.29297,0.293 0.69141,0.45703 1.1055,0.45703 h 10.289 z"
         id="path67352" />
    </g>
    <g
       id="g69689"
       transform="matrix(0.16432029,0,0,0.16432029,193.92817,154.50355)">
      <path
         d="m 35.156,97.598 h -6.582 c -0.42969,0 -0.78125,-0.35156 -0.78125,-0.78125 v -6.1914 c -2.5586,-0.52734 -5.0586,-1.543 -7.2656,-3.0078 l -4.3945,4.375 c -0.3125,0.3125 -0.80078,0.3125 -1.1133,0 l -4.6484,-4.6484 c -0.15625,-0.15625 -0.23438,-0.35156 -0.23438,-0.54688 0,-0.19532 0.07813,-0.41016 0.23438,-0.54688 l 4.3945,-4.3945 c -1.4648,-2.207 -2.4805,-4.707 -3.0078,-7.2852 h -6.2109 c -0.42969,0 -0.78125,-0.35156 -0.78125,-0.78125 v -6.582 c 0,-0.42969 0.35156,-0.78125 0.78125,-0.78125 h 6.2109 c 0.52734,-2.5781 1.5625,-5.0781 3.0273,-7.2852 l -4.3945,-4.3945 c -0.15625,-0.15625 -0.23438,-0.35156 -0.23438,-0.54688 0,-0.19531 0.07813,-0.41016 0.23438,-0.54688 l 4.6484,-4.6484 c 0.3125,-0.3125 0.80078,-0.3125 1.1133,0 l 4.3945,4.3945 c 2.207,-1.4648 4.6484,-2.4805 7.2656,-3.0273 v -6.2109 c 0,-0.42969 0.35156,-0.78125 0.78125,-0.78125 h 6.5625 c 0.42969,0 0.78125,0.35156 0.78125,0.78125 v 6.2109 c 2.6172,0.52734 5.0781,1.543 7.2852,3.0273 l 4.3945,-4.3945 c 0.15625,-0.15625 0.35156,-0.23438 0.54687,-0.23438 0.19531,0 0.41016,0.07813 0.54688,0.23438 l 4.6484,4.6484 c 0.3125,0.3125 0.3125,0.80078 0,1.1133 l -4.3945,4.3945 c 1.4648,2.207 2.5,4.6875 3.0273,7.2852 h 6.2109 c 0.42969,0 0.78125,0.35156 0.78125,0.78125 v 6.582 c 0,0.42969 -0.35156,0.78125 -0.78125,0.78125 h -6.2109 c -0.52734,2.5977 -1.5625,5.0977 -3.0273,7.2852 l 4.3945,4.3945 c 0.15625,0.15625 0.23438,0.35156 0.23438,0.54688 0,0.19531 -0.07813,0.41016 -0.23438,0.54688 l -4.6484,4.6289 c -0.3125,0.3125 -0.80078,0.3125 -1.1133,0 l -4.3945,-4.3945 c -2.2266,1.4844 -4.668,2.5 -7.2852,3.0078 v 6.2109 c 0.01953,0.42969 -0.3125,0.78125 -0.76172,0.78125 z m -5.8008,-1.5625 h 5.0195 v -6.0742 c 0,-0.39063 0.27344,-0.70313 0.64453,-0.76172 2.832,-0.46875 5.4688,-1.5625 7.832,-3.2422 0.3125,-0.21484 0.74219,-0.17578 0.99609,0.07813 l 4.2969,4.2969 3.5547,-3.5547 -4.2969,-4.2969 c -0.27344,-0.27344 -0.3125,-0.70312 -0.07813,-1.0156 1.6406,-2.3047 2.7539,-5 3.2422,-7.832 0.05859,-0.37109 0.39062,-0.64453 0.76172,-0.64453 h 6.0938 v -5.0195 h -6.0742 c -0.39062,0 -0.70312,-0.27344 -0.76172,-0.64453 -0.46875,-2.793 -1.6016,-5.5078 -3.2422,-7.832 -0.21484,-0.3125 -0.19531,-0.74219 0.07813,-1.0156 l 4.2969,-4.2969 -3.5547,-3.5547 -4.2969,4.2969 c -0.27344,0.27344 -0.70313,0.3125 -1.0156,0.07813 -2.3242,-1.6602 -4.9609,-2.7539 -7.832,-3.2422 -0.37109,-0.05859 -0.64453,-0.39062 -0.64453,-0.76172 v -6.0742 h -5.0195 v 6.0742 c 0,0.37109 -0.27344,0.70312 -0.64453,0.76172 -2.8516,0.48828 -5.4883,1.582 -7.8125,3.2422 -0.3125,0.21484 -0.74219,0.19531 -0.99609,-0.07813 l -4.3164,-4.2969 -3.5547,3.5547 4.2969,4.2969 c 0.27344,0.27344 0.3125,0.70313 0.07813,1.0156 -1.6602,2.3242 -2.7734,5.0195 -3.2422,7.832 -0.05859,0.37109 -0.39062,0.64453 -0.76172,0.64453 h -6.0742 v 5.0195 h 6.0742 c 0.39062,0 0.70312,0.27344 0.76172,0.64453 0.46875,2.793 1.582,5.5078 3.2422,7.832 0.21484,0.3125 0.17578,0.74219 -0.07813,0.99609 l -4.2969,4.2969 3.5547,3.5547 4.3164,-4.2969 c 0.27344,-0.27344 0.70312,-0.3125 0.99609,-0.07813 2.3242,1.6602 5.0391,2.7734 7.8125,3.2422 0.37109,0.05859 0.64453,0.39062 0.64453,0.76172 z"
         id="path69677" />
      <path
         d="m 31.875,83.125 c -6.9531,0 -12.617,-5.6641 -12.617,-12.617 0,-6.9531 5.6641,-12.617 12.617,-12.617 6.9727,0 12.637,5.6641 12.637,12.617 0,6.9531 -5.6641,12.617 -12.637,12.617 z m 0,-23.691 c -6.0938,0 -11.055,4.9609 -11.055,11.055 0,6.0941 4.9609,11.055 11.055,11.055 6.1133,0 11.074,-4.9609 11.074,-11.055 0,-6.0941 -4.9609,-11.055 -11.074,-11.055 z"
         id="path69679" />
      <path
         d="m 74.258,67.988 h -5.7617 c -0.42969,0 -0.78125,-0.35156 -0.78125,-0.78125 v -5.3516 c -2.2266,-0.44922 -4.3555,-1.3477 -6.2695,-2.5781 l -3.7891,3.7695 c -0.3125,0.3125 -0.80078,0.3125 -1.0938,0 l -4.082,-4.0625 c -0.15625,-0.13672 -0.23438,-0.35156 -0.23438,-0.54688 0,-0.19532 0.07813,-0.41016 0.23438,-0.54688 l 3.7891,-3.7891 c -1.25,-1.8945 -2.1289,-4.043 -2.5781,-6.2695 h -5.3516 c -0.42969,0 -0.78125,-0.35156 -0.78125,-0.78125 v -5.7617 c 0,-0.42969 0.35156,-0.78125 0.78125,-0.78125 h 5.3516 c 0.44922,-2.2461 1.3281,-4.3359 2.5781,-6.25 l -3.7891,-3.7891 c -0.3125,-0.3125 -0.3125,-0.80078 0,-1.1133 l 4.082,-4.082 c 0.15625,-0.15625 0.35156,-0.23438 0.54688,-0.23438 0.19532,0 0.41016,0.07813 0.54688,0.23438 l 3.7891,3.7891 c 1.9141,-1.25 4.043,-2.1484 6.25,-2.5977 v -5.3516 c 0,-0.42969 0.35156,-0.78125 0.78125,-0.78125 h 5.7617 c 0.42969,0 0.78125,0.35156 0.78125,0.78125 v 5.3516 c 2.2266,0.44922 4.3164,1.3281 6.25,2.5977 l 3.7891,-3.7891 c 0.15625,-0.15625 0.35156,-0.23438 0.54688,-0.23438 0.21484,0 0.41016,0.07813 0.54688,0.23438 l 4.082,4.082 c 0.3125,0.3125 0.3125,0.80078 0,1.1133 l -3.7891,3.7891 c 1.2695,1.9336 2.1484,4.0234 2.5977,6.25 h 5.3516 c 0.42969,0 0.78125,0.35156 0.78125,0.78125 v 5.7617 c 0,0.42969 -0.35156,0.78125 -0.78125,0.78125 h -5.332 c -0.46875,2.2266 -1.3477,4.375 -2.5977,6.2695 l 3.7891,3.7891 c 0.15625,0.15625 0.23438,0.35156 0.23438,0.54688 0,0.19532 -0.07813,0.41016 -0.23438,0.54688 l -4.082,4.0625 c -0.3125,0.3125 -0.80078,0.3125 -1.0938,0 l -3.7891,-3.7695 c -1.9141,1.25 -4.0039,2.1289 -6.25,2.5781 v 5.3516 c 0,0.42969 -0.35156,0.78125 -0.78125,0.78125 z m -4.9805,-1.5625 h 4.1992 v -5.2148 c 0,-0.39063 0.27344,-0.70313 0.64453,-0.76172 2.4609,-0.41016 4.7461,-1.3477 6.7969,-2.8125 0.3125,-0.21484 0.74219,-0.17578 0.99609,0.07813 l 3.6914,3.6914 2.9688,-2.9688 -3.6914,-3.6914 c -0.27344,-0.27344 -0.3125,-0.70312 -0.07812,-0.99609 1.4258,-2.0117 2.4023,-4.375 2.832,-6.8164 0.05859,-0.37109 0.39062,-0.64453 0.76172,-0.64453 h 5.2148 v -4.1992 h -5.2148 c -0.39063,0 -0.70313,-0.27344 -0.76172,-0.64453 -0.41016,-2.4414 -1.3477,-4.7266 -2.832,-6.7969 -0.21484,-0.3125 -0.17578,-0.74219 0.07812,-0.99609 l 3.6914,-3.6914 -2.9492,-3.0078 -3.6914,3.6914 c -0.27344,0.27344 -0.70312,0.3125 -0.99609,0.07813 -2.0703,-1.4648 -4.3555,-2.4219 -6.7969,-2.832 -0.37109,-0.05859 -0.64453,-0.39062 -0.64453,-0.76172 v -5.2148 h -4.1992 v 5.2148 c 0,0.39062 -0.27344,0.70312 -0.64453,0.76172 -2.4219,0.41016 -4.7852,1.3867 -6.8164,2.832 -0.3125,0.21484 -0.74219,0.17578 -0.99609,-0.07813 l -3.7305,-3.6914 -2.9688,2.9688 3.6914,3.6914 c 0.27344,0.27344 0.3125,0.70312 0.07813,0.99609 -1.4453,2.0508 -2.4023,4.3359 -2.8125,6.7969 -0.05859,0.37109 -0.39062,0.64453 -0.76172,0.64453 h -5.2148 v 4.1992 h 5.2148 c 0.39062,0 0.70312,0.27344 0.76172,0.64453 0.41016,2.4414 1.3867,4.8047 2.8125,6.8164 0.21484,0.3125 0.17578,0.74219 -0.07813,0.99609 l -3.6914,3.6914 2.9688,2.9688 3.6914,-3.6914 c 0.27344,-0.27344 0.70312,-0.3125 0.99609,-0.07813 2.0117,1.4258 4.375,2.4023 6.8164,2.8125 0.37109,0.05859 0.64453,0.39062 0.64453,0.76172 z"
         id="path69681" />
      <path
         d="m 71.367,55.312 c -6.1523,0 -11.152,-5 -11.152,-11.152 0,-6.152 5,-11.152 11.152,-11.152 6.1523,0 11.152,5 11.152,11.152 0,6.152 -5,11.152 -11.152,11.152 z m 0,-20.723 c -5.293,0 -9.5898,4.2969 -9.5898,9.5898 0,5.293 4.2969,9.5898 9.5898,9.5898 5.293,0 9.5898,-4.2969 9.5898,-9.5898 0,-5.293 -4.2969,-9.5898 -9.5898,-9.5898 z"
         id="path69683" />
      <path
         d="m 37.402,39.824 h -4.4727 c -0.42969,0 -0.78125,-0.35156 -0.78125,-0.78125 v -4.0234 c -1.6602,-0.37109 -3.2422,-1.0156 -4.668,-1.9336 l -2.832,2.832 c -0.3125,0.3125 -0.80078,0.3125 -1.1133,0 l -3.1641,-3.1641 c -0.3125,-0.3125 -0.3125,-0.80078 0,-1.0938 l 2.832,-2.8516 c -0.91797,-1.4258 -1.582,-3.0078 -1.9336,-4.6484 h -4.0039 c -0.42969,0 -0.78125,-0.35156 -0.78125,-0.78125 v -4.4727 c 0,-0.42969 0.35156,-0.78125 0.78125,-0.78125 h 4.0234 c 0.35156,-1.6602 0.99609,-3.2227 1.9336,-4.668 l -2.832,-2.8516 c -0.3125,-0.3125 -0.3125,-0.80078 0,-1.1133 l 3.1641,-3.1641 c 0.15625,-0.15625 0.35156,-0.23438 0.54687,-0.23438 0.21484,0 0.41016,0.078125 0.54688,0.23438 l 2.832,2.8516 c 1.4062,-0.91797 3.0078,-1.5625 4.668,-1.9336 v -4.0039 c 0,-0.42969 0.35156,-0.78125 0.78125,-0.78125 h 4.4727 c 0.42969,0 0.78125,0.35156 0.78125,0.78125 v 4.0039 c 1.6797,0.37109 3.2422,1.0156 4.668,1.9336 l 2.8516,-2.8516 c 0.15625,-0.15625 0.35156,-0.23438 0.54688,-0.23438 0.21484,0 0.41016,0.078125 0.54688,0.23438 l 3.1445,3.1641 c 0.3125,0.3125 0.3125,0.80078 0,1.0938 l -2.832,2.8516 c 0.91797,1.4258 1.582,2.9883 1.9336,4.668 h 4.0039 c 0.42969,0 0.78125,0.35156 0.78125,0.78125 v 4.4727 c 0,0.42969 -0.35156,0.78125 -0.78125,0.78125 h -4.0039 c -0.37109,1.6602 -1.0352,3.2422 -1.9336,4.6484 l 2.832,2.8516 c 0.3125,0.3125 0.3125,0.80078 0,1.0938 l -3.1445,3.1641 c -0.13672,0.15625 -0.35156,0.23437 -0.54688,0.23437 -0.21484,0 -0.41016,-0.07812 -0.54688,-0.23437 l -2.8516,-2.832 c -1.4258,0.91797 -3.0078,1.5625 -4.668,1.9336 v 4.0234 c 0,0.44922 -0.35156,0.80078 -0.78125,0.80078 z m -3.6914,-1.5625 h 2.9102 v -3.8867 c 0,-0.37109 0.27344,-0.70312 0.64453,-0.76172 1.8945,-0.33203 3.6523,-1.0547 5.2148,-2.1484 0.3125,-0.21484 0.74219,-0.17578 0.99609,0.07813 l 2.7539,2.7344 2.0508,-2.0508 -2.7344,-2.7539 c -0.27344,-0.27344 -0.3125,-0.70312 -0.07813,-1.0156 1.0938,-1.5234 1.8359,-3.3203 2.168,-5.2148 0.05859,-0.37109 0.39062,-0.64453 0.76172,-0.64453 h 3.8672 v -2.9102 h -3.8672 c -0.37109,0 -0.70313,-0.27344 -0.76172,-0.64453 -0.33203,-1.8945 -1.0547,-3.6523 -2.168,-5.2148 -0.21484,-0.3125 -0.19531,-0.74219 0.07813,-0.99609 l 2.7344,-2.7539 -2.0508,-2.0508 -2.7344,2.7148 c -0.27344,0.27344 -0.70312,0.3125 -1.0156,0.07812 -1.5625,-1.1133 -3.3203,-1.8359 -5.2148,-2.168 C 36.89423,8.593586 36.62079,8.26156 36.62079,7.89046 v -3.8672 h -2.9102 v 3.8672 c 0,0.37109 -0.27344,0.70312 -0.64453,0.76172 -1.875,0.33203 -3.6914,1.0742 -5.2148,2.168 -0.3125,0.21484 -0.74219,0.19531 -1.0156,-0.07812 l -2.7344,-2.7539 -2.0508,2.0508 2.7344,2.7539 c 0.27344,0.27344 0.3125,0.68359 0.07813,0.99609 -1.1328,1.6016 -1.8555,3.3398 -2.1484,5.2148 -0.05859,0.37109 -0.39062,0.66406 -0.76172,0.66406 h -3.9062 v 2.9102 h 3.8867 c 0.39062,0 0.70312,0.27344 0.76172,0.64453 0.3125,1.8555 1.0547,3.6523 2.1484,5.1953 0.21484,0.3125 0.19531,0.74219 -0.07813,0.99609 l -2.7344,2.7539 2.0508,2.0508 2.7344,-2.7344 c 0.27344,-0.27344 0.68359,-0.3125 0.99609,-0.07813 1.543,1.0938 3.3594,1.8359 5.2344,2.1484 0.37109,0.05859 0.64453,0.39062 0.64453,0.76172 v 3.9453 z"
         id="path69685" />
      <path
         d="m 35.156,29.961 c -4.8633,0 -8.8281,-3.9648 -8.8281,-8.8281 0,-4.8828 3.9648,-8.8477 8.8281,-8.8477 4.8828,0 8.8477,3.9648 8.8477,8.8477 0,4.8633 -3.9648,8.8281 -8.8477,8.8281 z m 0,-16.113 c -4.0039,0 -7.2656,3.2617 -7.2656,7.2852 0,4.0039 3.2617,7.2656 7.2656,7.2656 4.0234,0 7.2852,-3.2617 7.2852,-7.2656 0,-4.0039 -3.2617,-7.2852 -7.2852,-7.2852 z"
         id="path69687" />
    </g>
    <path
       style="fill:none;fill-rule:evenodd;stroke:#000000;stroke-width:0.264583px;stroke-linecap:butt;stroke-linejoin:miter;stroke-opacity:1"
       d="m 54.949547,105.87201 28.682486,19.97246"
       id="path71236"
       inkscape:connector-type="polyline"
       inkscape:connector-curvature="0"
       inkscape:connection-start="#g66241"
       inkscape:connection-end="#g67354" />
    <path
       style="fill:none;fill-rule:evenodd;stroke:#000000;stroke-width:0.264583px;stroke-linecap:butt;stroke-linejoin:miter;stroke-opacity:1"
       d="M 57.7692,157.22166 83.632033,138.97918"
       id="path71238"
       inkscape:connector-type="polyline"
       inkscape:connector-curvature="0"
       inkscape:connection-start="#g66350"
       inkscape:connection-end="#g67354" />
    <path
       style="fill:none;fill-rule:evenodd;stroke:#000000;stroke-width:0.264583px;stroke-linecap:butt;stroke-linejoin:miter;stroke-opacity:1"
       d="m 102.37335,132.55206 17.76974,0.34612"
       id="path71240"
       inkscape:connector-type="polyline"
       inkscape:connector-curvature="0"
       inkscape:connection-start="#g67354"
       inkscape:connection-end="#rect1464" />
    <path
       style="fill:none;stroke:#000000;stroke-width:0.264583px;stroke-linecap:butt;stroke-linejoin:miter;stroke-opacity:1"
       d="M 230.87221,130.77079 192.96146,107.76876"
       id="path78866" />
    <path
       style="fill:none;stroke:#000000;stroke-width:0.264583px;stroke-linecap:butt;stroke-linejoin:miter;stroke-opacity:1"
       d="m 230.87221,135.03043 -34.50305,-14.0568"
       id="path79501" />
    <path
       style="fill:none;stroke:#000000;stroke-width:0.264583px;stroke-linecap:butt;stroke-linejoin:miter;stroke-opacity:1"
       d="m 230.87221,139.29006 -43.02231,8.94523"
       id="path79824" />
    <text
       xml:space="preserve"
       style="font-style:normal;font-weight:normal;font-size:7.05556px;line-height:1.25;font-family:sans-serif;fill:#000000;fill-opacity:1;stroke:none;stroke-width:0.264583"
       x="14.432151"
       y="154.92114"
       id="text80658"><tspan
         sodipodi:role="line"
         id="tspan80656"
         style="font-size:7.05556px;stroke-width:0.264583"
         x="14.432151"
         y="154.92114">Engine mode</tspan></text>
    <text
       xml:space="preserve"
       style="font-style:normal;font-weight:normal;font-size:7.05556px;line-height:1.25;font-family:sans-serif;fill:#000000;fill-opacity:1;stroke:none;stroke-width:0.264583"
       x="231.54411"
       y="118.71429"
       id="text80662"><tspan
         sodipodi:role="line"
         id="tspan80660"
         style="font-size:7.05556px;stroke-width:0.264583"
         x="231.54411"
         y="118.71429">Scripting mode</tspan></text>
  </g>
</svg>
