<?xml version="1.0" encoding="UTF-8" standalone="no"?>
<!-- Created with Inkscape (http://www.inkscape.org/) -->

<svg
   width="56.607479mm"
   height="65.332336mm"
   viewBox="0 0 60.000222 69.248"
   version="1.1"
   id="svg1"
   xml:space="preserve"
   inkscape:version="1.4 (e7c3feb1, 2024-10-09)"
   sodipodi:docname="muh5_icon.svg"
   xmlns:inkscape="http://www.inkscape.org/namespaces/inkscape"
   xmlns:sodipodi="http://sodipodi.sourceforge.net/DTD/sodipodi-0.dtd"
   xmlns="http://www.w3.org/2000/svg"
   xmlns:svg="http://www.w3.org/2000/svg"><sodipodi:namedview
     id="namedview1"
     pagecolor="#ffffff"
     bordercolor="#000000"
     borderopacity="0.25"
     inkscape:showpageshadow="2"
     inkscape:pageopacity="0.0"
     inkscape:pagecheckerboard="0"
     inkscape:deskcolor="#d1d1d1"
     inkscape:document-units="mm"
     inkscape:zoom="3.6652235"
     inkscape:cx="111.04371"
     inkscape:cy="122.63918"
     inkscape:window-width="1728"
     inkscape:window-height="1080"
     inkscape:window-x="0"
     inkscape:window-y="37"
     inkscape:window-maximized="0"
     inkscape:current-layer="layer1" /><defs
     id="defs1" /><g
     inkscape:label="Layer 1"
     inkscape:groupmode="layer"
     id="layer1"
     transform="translate(-85.419479,-102.87072)"><path
       id="path2"
       style="fill:#ffffff;fill-opacity:1;stroke:#000000;stroke-width:1.12176405;stroke-opacity:1;stroke-dasharray:none;stroke-linejoin:round;stroke-linecap:round"
       d="m 106.02962,123.23491 4.31137,15.81092 9.22889,-0.0894 5.75107,-25.27908 -12.23801,0.0863 c -0.0949,0.36754 -0.14377,0.74417 -0.10129,1.13223 0.004,0.89253 0.0471,1.78493 0.0134,2.67736 -0.18297,0.58351 -0.38865,1.12084 -0.80357,1.56425 -0.67681,0.54662 -1.6276,0.55147 -2.43448,0.81183 -0.93835,0.01 -1.18269,0.93605 -1.69963,1.51102 -0.69248,0.50542 -0.97904,1.43898 -1.85054,1.72031 -0.0587,0.0217 -0.11783,0.0389 -0.17725,0.0543 z" /><path
       id="path12"
       style="fill:#000000;fill-opacity:1;stroke:#000000;stroke-width:1.12176405;stroke-opacity:1;stroke-dasharray:none;stroke-linejoin:round;stroke-linecap:round"
       d="m 106.02962,123.23491 c 0.0594,-0.0153 0.11852,-0.0325 0.17725,-0.0543 0.8715,-0.28133 1.15806,-1.21489 1.85054,-1.72031 0.51694,-0.57497 0.76128,-1.50102 1.69963,-1.51102 0.80688,-0.26036 1.75767,-0.26521 2.43448,-0.81183 0.41492,-0.44341 0.6206,-0.98074 0.80357,-1.56425 0.0337,-0.89243 -0.009,-1.78483 -0.0134,-2.67736 -0.0425,-0.38806 0.006,-0.76469 0.10129,-1.13223 l -9.6175,0.0677 z" /><path
       style="fill:#ffffff;fill-opacity:1;stroke:#000000;stroke-width:1.12176405;stroke-opacity:1;stroke-dasharray:none;stroke-linejoin:round;stroke-linecap:round"
       d="m 127.41654,113.76669 -1.1146,5.52841 c 7.47544,-3.48595 10.45378,-8.89923 13.01851,-14.48978 -3.49561,3.01665 -4.97231,6.15947 -11.90391,8.96137 z"
       id="path3"
       sodipodi:nodetypes="cccc" /><path
       style="fill:#ffffff;fill-opacity:1;stroke:#000000;stroke-width:1.12176405;stroke-opacity:1;stroke-dasharray:none;stroke-linejoin:round;stroke-linecap:round"
       d="m 101.35703,113.704 1.1146,5.52841 c -7.475432,-3.48595 -10.453772,-8.89923 -13.018502,-14.48978 3.49561,3.01665 4.97231,6.15947 11.903902,8.96137 z"
       id="path3-6"
       sodipodi:nodetypes="cccc" /><path
       id="rect4"
       style="fill:#000000;fill-opacity:1;stroke:#000000;stroke-width:1.12176405;stroke-opacity:1;stroke-dasharray:none;stroke-linejoin:round;stroke-linecap:round"
       d="m 108.32767,169.6357 c -0.005,-0.19261 -0.0108,-0.38528 -0.0124,-0.57775 -0.0334,-0.68691 -0.12321,-1.40494 -0.21601,-2.05413 -0.1669,-0.54738 -0.28856,-0.84037 -0.27026,-1.77302 0.0183,-0.93265 -0.61165,-1.39818 -1.19683,-1.74615 -0.64211,-0.36461 -1.3769,-0.72784 -2.12752,-0.72657 v 6.87762 z" /><path
       id="path14"
       style="fill:#ffffff;fill-opacity:1;stroke:#000000;stroke-width:1.12176405;stroke-opacity:1;stroke-dasharray:none;stroke-linejoin:round;stroke-linecap:round"
       d="m 104.50465,160.13498 v 2.6231 c 0.75062,-0.001 1.48541,0.36196 2.12752,0.72657 0.58518,0.34797 1.21513,0.8135 1.19683,1.74615 -0.0183,0.93265 0.10336,1.22564 0.27026,1.77302 0.0928,0.64919 0.18262,1.36722 0.21601,2.05413 0.002,0.19247 0.007,0.38514 0.0124,0.57775 h 5.86683 v -9.50072 z" /><path
       id="rect4-5"
       style="fill:#ffffff;fill-opacity:1;stroke:#000000;stroke-width:1.12176405;stroke-opacity:1;stroke-dasharray:none;stroke-linejoin:round;stroke-linecap:round"
       d="m 116.49927,160.79334 v 8.84236 h 9.68985 v -8.18813 c -0.72821,0.0383 -1.60165,0.0739 -1.82366,0.0739 -0.21839,0 -2.21894,0.0238 -2.24276,0 -0.0352,-0.0352 0.0352,-0.1141 0,-0.14934 -0.0948,-0.0948 -0.47341,0.0622 -0.5979,0 -0.65729,-0.32865 -1.88961,0.0267 -2.24276,-0.14986 -0.0631,-0.0315 -0.0868,-0.11783 -0.14986,-0.14935 -0.15687,-0.0784 -0.6279,0.11934 -0.74724,0 -0.0352,-0.0352 0.0352,-0.1141 0,-0.14934 -0.0746,-0.0746 -0.63069,0 -0.74776,0 -0.1418,0 -0.80681,0.0903 -0.8971,0 -0.0352,-0.0352 0.0352,-0.11462 0,-0.14987 -0.0549,-0.0549 -0.16242,0.0178 -0.24081,0.0196 z" /><path
       id="path15"
       style="fill:#000000;fill-opacity:1;stroke:#000000;stroke-width:1.12176405;stroke-opacity:1;stroke-dasharray:none;stroke-linejoin:round;stroke-linecap:round"
       d="m 116.49927,160.79334 c 0.0784,-0.002 0.18592,-0.0745 0.24081,-0.0196 0.0352,0.0352 -0.0352,0.11467 0,0.14987 0.0903,0.0903 0.7553,0 0.8971,0 0.11707,0 0.67316,-0.0746 0.74776,0 0.0352,0.0352 -0.0352,0.11414 0,0.14934 0.11934,0.11934 0.59037,-0.0784 0.74724,0 0.063,0.0315 0.0868,0.11785 0.14986,0.14935 0.35315,0.17652 1.58547,-0.17879 2.24276,0.14986 0.12449,0.0622 0.5031,-0.0948 0.5979,0 0.0352,0.0352 -0.0352,0.11414 0,0.14934 0.0238,0.0238 2.02437,0 2.24276,0 0.22201,0 1.09545,-0.0356 1.82366,-0.0739 v -1.31259 h -9.68985 z" /><ellipse
       style="fill:#000000;fill-opacity:1;stroke:#000000;stroke-width:1.12176405;stroke-opacity:1;stroke-dasharray:none;stroke-linejoin:round;stroke-linecap:round"
       id="path7"
       cx="142.06453"
       cy="150.86053"
       rx="2.5168412"
       ry="2.4075334" /><circle
       style="fill:#000000;fill-opacity:1;stroke:#000000;stroke-width:1.12176405;stroke-opacity:1;stroke-dasharray:none;stroke-linejoin:round;stroke-linecap:round"
       id="path8"
       cx="111.63083"
       cy="126.01968"
       r="1.3" /><circle
       style="fill:#000000;fill-opacity:1;stroke:#000000;stroke-width:1.12176405;stroke-opacity:1;stroke-dasharray:none;stroke-linejoin:round;stroke-linecap:round"
       id="path8-7"
       cx="117.61988"
       cy="126.01968"
       r="1.3" /><path
       id="path4"
       style="fill:#000000;fill-opacity:1;stroke:#000000;stroke-width:1.12176405;stroke-opacity:1;stroke-dasharray:none;stroke-linejoin:round;stroke-linecap:round"
       d="m 97.464265,158.26998 c 0.429948,-0.41049 0.512269,-1.03165 0.503845,-1.59783 0.214949,-1.44073 -0.140706,-2.87867 -1.036629,-4.04317 -0.638788,-1.49885 -1.334871,-3.13098 -1.037146,-4.80281 0.284658,-1.89986 2.2734,-3.07163 2.36368,-5.02915 -0.25216,-1.59051 -1.295882,-2.916 -2.232422,-4.17804 -1.348037,-2.01664 -3.242439,-3.55716 -5.189864,-4.96352 -0.623736,-0.26198 -1.068801,-0.94065 -1.564762,-1.46451 a 26.259077,26.259075 0 0 0 -0.806153,6.39961 26.259077,26.259075 0 0 0 8.999451,19.67942 z" /><path
       id="path10"
       style="fill:#000000;fill-opacity:1;stroke:#000000;stroke-width:1.12176405;stroke-opacity:1;stroke-dasharray:none;stroke-linejoin:round;stroke-linecap:round"
       d="m 134.94879,121.9306 c -0.55774,1.016 -1.03502,2.08266 -1.87689,2.9037 -0.78161,0.80789 -1.45392,1.72452 -1.7694,2.82205 -0.58051,1.79927 -0.2532,3.71703 -0.33848,5.5702 0.0798,1.26813 1.28035,1.90408 2.0252,2.7559 0.77657,0.78067 1.62487,1.55017 2.72748,1.80816 0.99723,0.28626 1.97682,0.69777 2.73317,1.4211 1.0578,0.7844 1.42451,2.12761 2.21692,3.13521 0.004,0.006 0.008,0.0131 0.0114,0.0196 a 26.259077,26.259075 0 0 0 0.30438,-3.776 26.259077,26.259075 0 0 0 -6.03374,-16.65996 z" /><path
       id="path11"
       style="fill:#000000;fill-opacity:1;stroke:#000000;stroke-width:1.12176405;stroke-opacity:1;stroke-dasharray:none;stroke-linejoin:round;stroke-linecap:round"
       d="m 134.8289,155.33218 c -0.0926,-0.0605 -0.18759,-0.11866 -0.28732,-0.17157 -1.34695,-0.92838 -2.61229,-1.96448 -3.69022,-3.20032 -0.98851,-0.83363 -2.02979,-1.65934 -3.2985,-2.01693 -1.79185,-0.60334 -3.36973,-1.93934 -5.31957,-2.00298 -1.28503,0.30227 -2.42514,1.1507 -3.47524,1.90893 -1.23733,0.91983 -0.79125,2.92239 -2.25155,3.57911 -1.3165,0.47919 -2.65472,1.23817 -3.1688,2.62826 -0.3857,0.80676 -0.53558,1.7696 -0.32194,2.63136 h 14.83734 v 2.57556 a 26.259077,26.259075 0 0 0 6.9758,-5.93142 z" /><path
       id="path13"
       style="fill:#ffffff;fill-opacity:1;stroke:#000000;stroke-width:1.12176405;stroke-opacity:1;stroke-dasharray:none;stroke-linejoin:round;stroke-linecap:round"
       d="m 131.58517,118.46724 a 26.259077,26.259075 0 0 1 -6.0756,3.81734 l -4.0535,18.64641 -13.08447,0.0806 -4.86224,-18.95698 a 26.259077,26.259075 0 0 1 -5.628583,-3.57394 26.259077,26.259075 0 0 0 -8.60981,13.71027 c 0.495961,0.52386 0.941026,1.20253 1.564762,1.46451 1.947425,1.40636 3.841827,2.94688 5.189864,4.96352 0.93654,1.26204 1.980262,2.58753 2.232422,4.17804 -0.09028,1.95752 -2.079022,3.12929 -2.36368,5.02915 -0.297725,1.67183 0.398358,3.30396 1.037146,4.80281 0.895923,1.1645 1.251578,2.60244 1.036629,4.04317 0.0084,0.56618 -0.0739,1.18734 -0.503845,1.59783 a 26.259077,26.259075 0 0 0 5.401725,3.68815 v -3.27009 h 10.14977 c -0.21364,-0.86176 -0.0638,-1.8246 0.32194,-2.63136 0.51408,-1.39009 1.8523,-2.14907 3.1688,-2.62826 1.4603,-0.65672 1.01422,-2.65928 2.25155,-3.57911 1.0501,-0.75823 2.19021,-1.60666 3.47524,-1.90893 1.94984,0.0636 3.52772,1.39964 5.31957,2.00298 1.26871,0.35759 2.30999,1.1833 3.2985,2.01693 1.07793,1.23584 2.34327,2.27194 3.69022,3.20032 0.0997,0.0529 0.19468,0.11111 0.28732,0.17157 a 26.259077,26.259075 0 0 0 5.84925,-12.96562 c -0.004,-0.007 -0.008,-0.0131 -0.0114,-0.0196 -0.79241,-1.0076 -1.15912,-2.35081 -2.21692,-3.13521 -0.75635,-0.72333 -1.73594,-1.13484 -2.73317,-1.4211 -1.10261,-0.25799 -1.95091,-1.02749 -2.72748,-1.80816 -0.74485,-0.85182 -1.9454,-1.48777 -2.0252,-2.7559 0.0853,-1.85317 -0.24203,-3.77093 0.33848,-5.5702 0.31548,-1.09753 0.98779,-2.01416 1.7694,-2.82205 0.84187,-0.82104 1.31915,-1.8877 1.87689,-2.9037 a 26.259077,26.259075 0 0 0 -3.36362,-3.46336 z" /></g></svg>
